<?xml version="1.0" encoding="UTF-8"?>
<svg width="1387px" height="675px" viewBox="0 0 1387 675" version="1.1" xmlns="http://www.w3.org/2000/svg" xmlns:xlink="http://www.w3.org/1999/xlink">
    <!-- Generator: Sketch 52.4 (67378) - http://www.bohemiancoding.com/sketch -->
    <title>Group 11</title>
    <desc>Created with Sketch.</desc>
    <g id="Page-1" stroke="none" stroke-width="1" fill="none" fill-rule="evenodd">
        <g id="about_00" transform="translate(-213.000000, 0.000000)">
            <g id="Group-11" transform="translate(212.000000, -51.000000)">
                <path d="M302.257228,50.8374234 C101.026626,150.220502 8.54993737,239.363227 24.8271622,318.265596 C49.2429993,436.619151 371.116082,464.425526 466.193939,456.943075 C561.271795,449.460623 693.345158,395.980863 787.934638,383.300291 C882.524117,370.619718 1054.61666,492.659218 1245.52686,580.977148 C1380.04692,636.650281 1434.48506,663.632455 1408.84127,661.923671 L1408.84127,646.500401 C1359.09203,626.164655 1294.59772,598.476812 1215.35833,563.436874 C1096.49925,510.876965 934.175947,384.717072 815.169254,378.353694 C696.162561,371.990316 612.366905,462.005828 366.247335,443.792099 C120.127764,425.57837 35.2340112,370.316662 27.5283672,310.792489 C16.4970977,225.578691 123.659129,133.718414 349.014461,35.2116579 L320.711777,30 L302.257228,50.8374234 Z" id="Path-6" fill="#98F4D9" fill-rule="nonzero"></path>
                <path d="M261.443783,64.1471975 C115.08166,135.16685 39.8659663,193.395316 35.7967016,238.832594 C29.6928047,306.988511 29.1584649,427.299251 206.460328,450.055703 C383.762191,472.812155 793.283748,342.839971 911.248252,342.839971 C1029.21276,342.839971 1131.76711,571.027022 1248.66674,628.013511 C1326.59982,666.004504 1377.37758,685 1401,685 L1401,619.204425 C1320.37542,625.077149 1247.87235,604.864918 1183.4908,558.567733 C1086.91847,489.121955 1058.4711,317.015672 925.162373,317.015672 C791.853642,317.015672 735.324483,394.48073 534.373304,394.48073 C333.422124,394.48073 226.320992,496.233487 116.194515,394.48073 C6.06803905,292.727973 39.5105646,133.243607 304.430848,64.1471975 C481.04437,18.0829244 498.667158,-3.17219096 357.299212,0.381851461 L261.443783,64.1471975 Z" id="Path-4" fill="#21C4FC" fill-rule="nonzero"></path>
                <path d="M205.951514,64.0475202 C101.317171,132.316002 49,201.338787 49,271.115874 C49,375.781504 88.1855039,456.881813 208.01616,470.579235 C327.846815,484.276658 318.916617,391.415089 476.867822,372.879132 C634.819028,354.343175 620.427877,394.968533 754.781968,394.968533 C889.13606,394.968533 911.975611,303.598038 1031.93855,346.490383 C1149.74241,391.062061 1155.74023,594.622146 1275.39092,660.244325 C1355.6438,704.258854 1396.84682,720.732098 1399,709.664057 L1394.05649,691.115955 C1340.91414,683.797684 1294.52423,666.349479 1254.88677,638.77134 C1195.43057,597.404132 1106.14368,331.754638 1021.07209,331.754638 C862.218133,325.14452 862.218133,370.317385 788.406118,379.11434 C714.594102,387.911295 553.805302,350.757475 476.867822,361.818303 C399.930343,372.879132 177.87524,548.275122 102.857424,403.693516 C27.8396084,259.111911 50.1610673,167.588062 193.492342,82.6852985 C289.046526,26.0834564 293.199583,19.8708637 205.951514,64.0475202 Z" id="Path-5" fill="#98F4D9" fill-rule="nonzero"></path>
                <g id="Group-4" transform="translate(1241.000000, 523.000000)">
                    <path d="M14.8990684,9.23705556e-14 C12.3494028,-1.35161277e-15 10.2824905,2.06691233 10.2824905,4.61657791 L10.2824905,9.89266694 L5.00640143,9.89266694 C3.26996459,9.7455168 1.59863894,10.5886948 0.685130973,12.072733 C-0.228376991,13.5567711 -0.228376991,15.428743 0.685130973,16.9127812 C1.59863894,18.3968193 3.26996459,19.2399973 5.00640143,19.0928472 L14.8990684,19.0928472 C17.430522,19.0928472 19.4826707,17.0406985 19.4826707,14.5092448 L19.4826707,4.61657791 C19.4827354,2.07973477 17.4358468,0.0181203073 14.8990684,9.23705556e-14 Z" id="Path" fill="#47ECBB"></path>
                    <path d="M16.2101379,28.9286619 C18.5540827,28.5976998 20.2893818,26.5802382 20.2661314,24.2131573 L20.2661314,19.0689705 L25.4762693,19.0689705 C27.8433502,19.0922209 29.8608118,17.3569218 30.1917739,15.012977 C30.2941866,13.7067373 29.8407061,12.4179169 28.942904,11.4636098 C28.045102,10.5093027 26.7863227,9.97809879 25.4762693,10.0006924 L19.7385225,10.0006924 C14.9070406,10.018856 10.9999659,13.9406745 11,18.7721905 L11,24.5099373 C11.0448447,25.8097609 11.6358916,27.0303704 12.6277963,27.8716061 C13.6197011,28.7128418 14.9204361,29.0966548 16.2101379,28.9286619 Z" id="Path" fill="#21C4FC"></path>
                </g>
                <g id="Group-4-Copy" transform="translate(91.000000, 208.000000)">
                    <path d="M14.8990684,9.23705556e-14 C12.3494028,-1.35161277e-15 10.2824905,2.06691233 10.2824905,4.61657791 L10.2824905,9.89266694 L5.00640143,9.89266694 C3.26996459,9.7455168 1.59863894,10.5886948 0.685130973,12.072733 C-0.228376991,13.5567711 -0.228376991,15.428743 0.685130973,16.9127812 C1.59863894,18.3968193 3.26996459,19.2399973 5.00640143,19.0928472 L14.8990684,19.0928472 C17.430522,19.0928472 19.4826707,17.0406985 19.4826707,14.5092448 L19.4826707,4.61657791 C19.4827354,2.07973477 17.4358468,0.0181203073 14.8990684,9.23705556e-14 Z" id="Path" fill="#47ECBB"></path>
                    <path d="M16.2101379,28.9286619 C18.5540827,28.5976998 20.2893818,26.5802382 20.2661314,24.2131573 L20.2661314,19.0689705 L25.4762693,19.0689705 C27.8433502,19.0922209 29.8608118,17.3569218 30.1917739,15.012977 C30.2941866,13.7067373 29.8407061,12.4179169 28.942904,11.4636098 C28.045102,10.5093027 26.7863227,9.97809879 25.4762693,10.0006924 L19.7385225,10.0006924 C14.9070406,10.018856 10.9999659,13.9406745 11,18.7721905 L11,24.5099373 C11.0448447,25.8097609 11.6358916,27.0303704 12.6277963,27.8716061 C13.6197011,28.7128418 14.9204361,29.0966548 16.2101379,28.9286619 Z" id="Path" fill="#21C4FC"></path>
                </g>
                <g id="Group" opacity="0.31" transform="translate(1321.000000, 545.000000)" fill="#21C4FC">
                    <path d="M5.33,1.56 C4.91358057,1.55104161 4.51156218,1.71251992 4.21704105,2.00704105 C3.92251992,2.30156218 3.76104161,2.70358057 3.77,3.12 L3.77,4.875 L1.9825,4.875 C1.12818897,4.89226406 0.439764059,5.58068897 0.4225,6.435 C0.4225,7.29656421 1.12093579,7.995 1.9825,7.995 L5.2325,7.995 C5.64331256,7.995093 6.0368458,7.82970678 6.32426046,7.53617691 C6.61167512,7.24264704 6.7687407,6.84571958 6.76,6.435 L6.76,3.185 C6.78670052,2.77968193 6.65086329,2.38042098 6.3825185,2.07548372 C6.11417371,1.77054646 5.73542349,1.58504894 5.33,1.56 Z" id="Path"></path>
                    <path d="M5.46,11.2775 C6.24968868,11.163561 6.83317741,10.4828242 6.825,9.685 L6.825,7.9625 L8.5475,7.9625 C9.34532418,7.97067741 10.026061,7.38718868 10.14,6.5975 C10.1955642,6.1567747 10.0606048,5.7132632 9.76896741,5.37819041 C9.47732997,5.04311761 9.05667669,4.84826566 8.6125,4.8425 L6.6625,4.8425 C5.02911785,4.8425 3.705,6.16661785 3.705,7.8 L3.705,9.75 C3.71076566,10.1941767 3.90561761,10.61483 4.24069041,10.9064674 C4.5757632,11.1981048 5.0192747,11.3330642 5.46,11.2775 Z" id="Path"></path>
                </g>
                <g id="Group" opacity="0.31" transform="translate(1346.000000, 587.000000)" fill="#21C4FC">
                    <path d="M7.1825,0 C6.32093579,0 5.6225,0.69843579 5.6225,1.56 L5.6225,3.3475 L3.835,3.3475 C3.22999888,3.25948651 2.62934935,3.53298932 2.29853288,4.04712276 C1.96771641,4.5612562 1.96771641,5.2212438 2.29853288,5.73537724 C2.62934935,6.24951068 3.22999888,6.52301349 3.835,6.435 L7.085,6.435 C7.93403012,6.43518427 8.62731189,5.75634587 8.645,4.9075 L8.645,1.6575 C8.68276323,0.801532526 8.03650828,0.0691102572 7.1825,0 Z" id="Path"></path>
                    <path d="M7.3125,9.75 C8.08997494,9.63782254 8.6695199,8.97548545 8.6775,8.19 L8.6775,6.5 L10.4325,6.5 C11.3299627,6.5 12.0575,5.77246272 12.0575,4.875 C12.0575,3.97753728 11.3299627,3.25 10.4325,3.25 L8.4825,3.25 C6.84911785,3.25 5.525,4.57411785 5.525,6.2075 L5.525,8.1575 C5.51039554,8.61946631 5.70139559,9.06412577 6.04649961,9.37158207 C6.39160362,9.67903838 6.85527825,9.81763454 7.3125,9.75 Z" id="Path"></path>
                </g>
                <g id="Group" opacity="0.31" transform="translate(1292.000000, 713.000000)" fill="#21C4FC">
                    <path d="M7.1825,2.535 C6.32093579,2.535 5.6225,3.23343579 5.6225,4.095 L5.6225,5.8825 L3.835,5.8825 C3.22999888,5.79448651 2.62934935,6.06798932 2.29853288,6.58212276 C1.96771641,7.0962562 1.96771641,7.7562438 2.29853288,8.27037724 C2.62934935,8.78451068 3.22999888,9.05801349 3.835,8.97 L7.085,8.97 C7.93403012,8.97018427 8.62731189,8.29134587 8.645,7.4425 L8.645,4.1925 C8.68276323,3.33653253 8.03650828,2.60411026 7.1825,2.535 Z" id="Path"></path>
                    <path d="M7.3125,12.2525 C8.08997494,12.1403225 8.6695199,11.4779854 8.6775,10.6925 L8.6775,8.9375 L10.4325,8.9375 C11.3299627,8.9375 12.0575,8.20996272 12.0575,7.3125 C12.0575,6.41503728 11.3299627,5.6875 10.4325,5.6875 L8.4825,5.6875 C6.84911785,5.6875 5.525,7.01161785 5.525,8.645 L5.525,10.595 C5.49009439,11.0680112 5.6722768,11.531212 6.02006396,11.8537055 C6.36785113,12.1761991 6.84346465,12.3229545 7.3125,12.2525 Z" id="Path"></path>
                </g>
                <g id="Group" opacity="0.31" transform="translate(1334.000000, 706.000000)" fill="#21C4FC">
                    <path d="M4.4,2.405 C3.71884881,2.405 3.16666667,2.94337759 3.16666667,3.6075 L3.16666667,4.9725 L1.76666667,4.9725 C1.28393455,4.89432883 0.799459558,5.10181281 0.531917376,5.50130066 C0.264375194,5.90078851 0.264375194,6.41671149 0.531917376,6.81619934 C0.799459558,7.21568719 1.28393455,7.42317117 1.76666667,7.345 L4.4,7.345 C4.72412025,7.34512194 5.03450729,7.21740316 5.26053417,6.99090539 C5.48656105,6.76440762 5.60900337,6.45839532 5.6,6.1425 L5.6,3.6075 C5.60024414,2.95586534 5.06809914,2.42261171 4.4,2.405 Z" id="Path"></path>
                    <path d="M4.5,9.75 C5.11537259,9.66819581 5.57236004,9.15301387 5.56666667,8.5475 L5.56666667,7.215 L6.93333333,7.215 C7.55669115,7.20928095 8.08813791,6.7729352 8.2,6.175 C8.23801412,5.83422432 8.12505812,5.49382847 7.88951554,5.239347 C7.65397296,4.98486553 7.31823532,4.84049034 6.96666667,4.8425 L5.43333333,4.8425 C4.16307841,4.8425 3.13333333,5.84650145 3.13333333,7.085 L3.13333333,8.58 C3.12994487,8.92062519 3.2789806,9.24577698 3.54151549,9.47053246 C3.80405037,9.69528793 4.15401286,9.7973273 4.5,9.75 Z" id="Path"></path>
                </g>
                <g id="Group" opacity="0.31" transform="translate(1262.000000, 670.000000)" fill="#21C4FC">
                    <path d="M5.26666667,1.16666667 C4.94267147,1.1576633 4.6288127,1.28010562 4.39650729,1.50613249 C4.16420189,1.73215937 4.03320826,2.04254642 4.03333333,2.36666667 L4.03333333,3.76666667 L2.63333333,3.76666667 C1.95218214,3.76666667 1.4,4.31884881 1.4,5 C1.4,5.68115119 1.95218214,6.23333333 2.63333333,6.23333333 L5.26666667,6.23333333 C5.93476581,6.21527005 6.46691081,5.66834324 6.46666667,5 L6.46666667,2.36666667 C6.46666667,2.04840688 6.34023846,1.74318218 6.1151948,1.51813853 C5.89015115,1.29309488 5.58492645,1.16666667 5.26666667,1.16666667 Z" id="Path"></path>
                    <path d="M5.36666667,8.8 C5.97474882,8.70282736 6.42484338,8.18240553 6.43333333,7.56666667 L6.43333333,6.2 L7.8,6.2 C8.43230614,6.20370474 8.96498559,5.72861225 9.03333333,5.1 C9.08187415,4.75401286 8.97721839,4.40405037 8.74669996,4.14151549 C8.51618152,3.8789806 8.1826925,3.72994487 7.83333333,3.73333333 L6.3,3.73333333 C5.0243718,3.75155845 3.99986981,4.79090828 4,6.06666667 L4,7.6 C4.00731124,7.94574111 4.15944103,8.27252995 4.41930289,8.50070134 C4.67916475,8.72887273 5.02288347,8.83746307 5.36666667,8.8 Z" id="Path"></path>
                </g>
                <g id="Group" opacity="0.31" transform="translate(1187.000000, 607.000000)" fill="#21C4FC">
                    <path d="M6.5,1.17 C5.64568897,1.18726406 4.95726406,1.87568897 4.94,2.73 L4.94,4.5175 L3.25,4.5175 C2.35253728,4.5175 1.625,5.24503728 1.625,6.1425 C1.625,7.03996272 2.35253728,7.7675 3.25,7.7675 L6.5,7.7675 C7.35431103,7.75023594 8.04273594,7.06181103 8.06,6.2075 L8.06,2.9575 C8.1154805,2.50812753 7.97705016,2.05638368 7.67932892,1.71524476 C7.38160768,1.37410584 6.95274687,1.17582858 6.5,1.17 Z" id="Path"></path>
                    <path d="M6.76,10.92 C7.54968868,10.806061 8.13317741,10.1253242 8.125,9.3275 L8.125,7.5725 L9.75,7.5725 C10.5478242,7.58067741 11.228561,6.99718868 11.3425,6.2075 C11.3887047,5.76641161 11.2449815,5.32650646 10.9472679,4.99778099 C10.6495542,4.66905552 10.2259952,4.4825866 9.7825,4.485 L7.865,4.485 C6.23161785,4.485 4.9075,5.80911785 4.9075,7.4425 L4.9075,9.36 C4.89915261,9.82979035 5.10299742,10.2783192 5.46240204,10.5809757 C5.82180666,10.8836322 6.29848289,11.0081737 6.76,10.92 Z" id="Path"></path>
                </g>
                <g id="Group" opacity="0.31" transform="translate(10.000000, 237.000000)" fill="#21C4FC">
                    <path d="M5.33,1.56 C4.91358057,1.55104161 4.51156218,1.71251992 4.21704105,2.00704105 C3.92251992,2.30156218 3.76104161,2.70358057 3.77,3.12 L3.77,4.875 L1.9825,4.875 C1.12818897,4.89226406 0.439764059,5.58068897 0.4225,6.435 C0.4225,7.29656421 1.12093579,7.995 1.9825,7.995 L5.2325,7.995 C5.64331256,7.995093 6.0368458,7.82970678 6.32426046,7.53617691 C6.61167512,7.24264704 6.7687407,6.84571958 6.76,6.435 L6.76,3.185 C6.78670052,2.77968193 6.65086329,2.38042098 6.3825185,2.07548372 C6.11417371,1.77054646 5.73542349,1.58504894 5.33,1.56 Z" id="Path"></path>
                    <path d="M5.46,11.2775 C6.24968868,11.163561 6.83317741,10.4828242 6.825,9.685 L6.825,7.9625 L8.5475,7.9625 C9.34532418,7.97067741 10.026061,7.38718868 10.14,6.5975 C10.1955642,6.1567747 10.0606048,5.7132632 9.76896741,5.37819041 C9.47732997,5.04311761 9.05667669,4.84826566 8.6125,4.8425 L6.6625,4.8425 C5.02911785,4.8425 3.705,6.16661785 3.705,7.8 L3.705,9.75 C3.71076566,10.1941767 3.90561761,10.61483 4.24069041,10.9064674 C4.5757632,11.1981048 5.0192747,11.3330642 5.46,11.2775 Z" id="Path"></path>
                </g>
                <g id="Group" opacity="0.31" transform="translate(141.000000, 154.000000)" fill="#21C4FC">
                    <path d="M7.1825,0 C6.32093579,0 5.6225,0.69843579 5.6225,1.56 L5.6225,3.3475 L3.835,3.3475 C3.22999888,3.25948651 2.62934935,3.53298932 2.29853288,4.04712276 C1.96771641,4.5612562 1.96771641,5.2212438 2.29853288,5.73537724 C2.62934935,6.24951068 3.22999888,6.52301349 3.835,6.435 L7.085,6.435 C7.93403012,6.43518427 8.62731189,5.75634587 8.645,4.9075 L8.645,1.6575 C8.68276323,0.801532526 8.03650828,0.0691102572 7.1825,0 Z" id="Path"></path>
                    <path d="M7.3125,9.75 C8.08997494,9.63782254 8.6695199,8.97548545 8.6775,8.19 L8.6775,6.5 L10.4325,6.5 C11.3299627,6.5 12.0575,5.77246272 12.0575,4.875 C12.0575,3.97753728 11.3299627,3.25 10.4325,3.25 L8.4825,3.25 C6.84911785,3.25 5.525,4.57411785 5.525,6.2075 L5.525,8.1575 C5.51039554,8.61946631 5.70139559,9.06412577 6.04649961,9.37158207 C6.39160362,9.67903838 6.85527825,9.81763454 7.3125,9.75 Z" id="Path"></path>
                </g>
                <g id="Group" opacity="0.31" transform="translate(83.000000, 294.000000)" fill="#21C4FC">
                    <path d="M7.1825,2.535 C6.32093579,2.535 5.6225,3.23343579 5.6225,4.095 L5.6225,5.8825 L3.835,5.8825 C3.22999888,5.79448651 2.62934935,6.06798932 2.29853288,6.58212276 C1.96771641,7.0962562 1.96771641,7.7562438 2.29853288,8.27037724 C2.62934935,8.78451068 3.22999888,9.05801349 3.835,8.97 L7.085,8.97 C7.93403012,8.97018427 8.62731189,8.29134587 8.645,7.4425 L8.645,4.1925 C8.68276323,3.33653253 8.03650828,2.60411026 7.1825,2.535 Z" id="Path"></path>
                    <path d="M7.3125,12.2525 C8.08997494,12.1403225 8.6695199,11.4779854 8.6775,10.6925 L8.6775,8.9375 L10.4325,8.9375 C11.3299627,8.9375 12.0575,8.20996272 12.0575,7.3125 C12.0575,6.41503728 11.3299627,5.6875 10.4325,5.6875 L8.4825,5.6875 C6.84911785,5.6875 5.525,7.01161785 5.525,8.645 L5.525,10.595 C5.49009439,11.0680112 5.6722768,11.531212 6.02006396,11.8537055 C6.36785113,12.1761991 6.84346465,12.3229545 7.3125,12.2525 Z" id="Path"></path>
                </g>
                <g id="Group" opacity="0.31" transform="translate(148.000000, 205.000000)" fill="#21C4FC">
                    <path d="M4.4,2.405 C3.71884881,2.405 3.16666667,2.94337759 3.16666667,3.6075 L3.16666667,4.9725 L1.76666667,4.9725 C1.28393455,4.89432883 0.799459558,5.10181281 0.531917376,5.50130066 C0.264375194,5.90078851 0.264375194,6.41671149 0.531917376,6.81619934 C0.799459558,7.21568719 1.28393455,7.42317117 1.76666667,7.345 L4.4,7.345 C4.72412025,7.34512194 5.03450729,7.21740316 5.26053417,6.99090539 C5.48656105,6.76440762 5.60900337,6.45839532 5.6,6.1425 L5.6,3.6075 C5.60024414,2.95586534 5.06809914,2.42261171 4.4,2.405 Z" id="Path"></path>
                    <path d="M4.5,9.75 C5.11537259,9.66819581 5.57236004,9.15301387 5.56666667,8.5475 L5.56666667,7.215 L6.93333333,7.215 C7.55669115,7.20928095 8.08813791,6.7729352 8.2,6.175 C8.23801412,5.83422432 8.12505812,5.49382847 7.88951554,5.239347 C7.65397296,4.98486553 7.31823532,4.84049034 6.96666667,4.8425 L5.43333333,4.8425 C4.16307841,4.8425 3.13333333,5.84650145 3.13333333,7.085 L3.13333333,8.58 C3.12994487,8.92062519 3.2789806,9.24577698 3.54151549,9.47053246 C3.80405037,9.69528793 4.15401286,9.7973273 4.5,9.75 Z" id="Path"></path>
                </g>
                <g id="Group" opacity="0.31" transform="translate(73.000000, 253.000000)" fill="#21C4FC">
                    <path d="M5.26666667,1.16666667 C4.94267147,1.1576633 4.6288127,1.28010562 4.39650729,1.50613249 C4.16420189,1.73215937 4.03320826,2.04254642 4.03333333,2.36666667 L4.03333333,3.76666667 L2.63333333,3.76666667 C1.95218214,3.76666667 1.4,4.31884881 1.4,5 C1.4,5.68115119 1.95218214,6.23333333 2.63333333,6.23333333 L5.26666667,6.23333333 C5.93476581,6.21527005 6.46691081,5.66834324 6.46666667,5 L6.46666667,2.36666667 C6.46666667,2.04840688 6.34023846,1.74318218 6.1151948,1.51813853 C5.89015115,1.29309488 5.58492645,1.16666667 5.26666667,1.16666667 Z" id="Path"></path>
                    <path d="M5.36666667,8.8 C5.97474882,8.70282736 6.42484338,8.18240553 6.43333333,7.56666667 L6.43333333,6.2 L7.8,6.2 C8.43230614,6.20370474 8.96498559,5.72861225 9.03333333,5.1 C9.08187415,4.75401286 8.97721839,4.40405037 8.74669996,4.14151549 C8.51618152,3.8789806 8.1826925,3.72994487 7.83333333,3.73333333 L6.3,3.73333333 C5.0243718,3.75155845 3.99986981,4.79090828 4,6.06666667 L4,7.6 C4.00731124,7.94574111 4.15944103,8.27252995 4.41930289,8.50070134 C4.67916475,8.72887273 5.02288347,8.83746307 5.36666667,8.8 Z" id="Path"></path>
                </g>
                <g id="Group" opacity="0.31" transform="translate(0.000000, 205.000000)" fill="#21C4FC">
                    <path d="M6.5,1.17 C5.64568897,1.18726406 4.95726406,1.87568897 4.94,2.73 L4.94,4.5175 L3.25,4.5175 C2.35253728,4.5175 1.625,5.24503728 1.625,6.1425 C1.625,7.03996272 2.35253728,7.7675 3.25,7.7675 L6.5,7.7675 C7.35431103,7.75023594 8.04273594,7.06181103 8.06,6.2075 L8.06,2.9575 C8.1154805,2.50812753 7.97705016,2.05638368 7.67932892,1.71524476 C7.38160768,1.37410584 6.95274687,1.17582858 6.5,1.17 Z" id="Path"></path>
                    <path d="M6.76,10.92 C7.54968868,10.806061 8.13317741,10.1253242 8.125,9.3275 L8.125,7.5725 L9.75,7.5725 C10.5478242,7.58067741 11.228561,6.99718868 11.3425,6.2075 C11.3887047,5.76641161 11.2449815,5.32650646 10.9472679,4.99778099 C10.6495542,4.66905552 10.2259952,4.4825866 9.7825,4.485 L7.865,4.485 C6.23161785,4.485 4.9075,5.80911785 4.9075,7.4425 L4.9075,9.36 C4.89915261,9.82979035 5.10299742,10.2783192 5.46240204,10.5809757 C5.82180666,10.8836322 6.29848289,11.0081737 6.76,10.92 Z" id="Path"></path>
                </g>
            </g>
        </g>
    </g>
</svg>