<?xml version="1.0" encoding="UTF-8"?>
<svg width="1600px" height="1702px" viewBox="0 0 1600 1702" version="1.1" xmlns="http://www.w3.org/2000/svg" xmlns:xlink="http://www.w3.org/1999/xlink">
    <!-- Generator: Sketch 52.6 (67491) - http://www.bohemiancoding.com/sketch -->
    <title>Path</title>
    <desc>Created with Sketch.</desc>
    <g id="Page-1" stroke="none" stroke-width="1" fill="none" fill-rule="evenodd">
        <g id="Workflow-software" transform="translate(0.000000, -658.000000)" fill="#FAFAFA">
            <path d="M1600,658 C1474.04823,658 1417.41606,879.764578 1132.43191,879.764578 C847.447762,879.764578 749.940042,758.869526 453.68346,758.869526 C256.179072,758.869526 104.951252,786.59398 0,842.042889 L4.26325641e-12,2291.17062 C71.3785974,2340.48891 163.639109,2363.1042 276.781534,2359.01646 C561.815055,2348.71846 634.128468,2206.56426 800,2202.81232 C965.871532,2199.06038 1007.63418,2260.04634 1152.30115,2260.04634 C1296.96812,2260.04634 1337.0246,2190.45947 1439.52661,2202.81232 C1507.86128,2211.04756 1561.35241,2248.11012 1600,2314 C1600,1637.9659 1600,1085.9659 1600,658 Z" id="Path"></path>
        </g>
    </g>
</svg>