<?xml version="1.0" encoding="UTF-8"?>
<svg width="756px" height="611px" viewBox="0 0 756 611" version="1.1" xmlns="http://www.w3.org/2000/svg" xmlns:xlink="http://www.w3.org/1999/xlink">
    <!-- Generator: Sketch 52.6 (67491) - http://www.bohemiancoding.com/sketch -->
    <title>Artboard 2</title>
    <desc>Created with Sketch.</desc>
    <g id="Page-1" stroke="none" stroke-width="1" fill="none" fill-rule="evenodd">
        <g id="Workflow-software" transform="translate(-844.000000, -108.000000)">
            <g id="Artboard-2" transform="translate(844.000000, 108.000000)">
                <g>
                    <path d="M687.4125,72.4148148 C614.957955,61.1 539.446733,46.617037 485.151108,44.3088148 C391.41304,40.4165185 223.522273,78.5021852 154.101761,126.114926 C135.988125,138.561222 91.2927273,196.855148 81.3302273,360.286333 C80.673608,370.877 84.3189773,420.096444 142.146761,451.981593 C164.222756,464.156333 254.315455,481.400111 355.525398,390.610037 C355.525398,390.610037 246.345455,484.771926 156.592386,459.381481 C87.3303693,439.761593 42.4311932,371.669037 74.3338352,281.987815 C89.0058807,240.801889 121.202869,119.054481 194.993295,91.220037 C268.783722,63.3855926 317.667898,42.6115926 447.248324,40.4165185 C491.015398,39.6697407 599.289659,48.8573704 686.778523,65.4901481 C716.937727,71.2380741 744.606307,77.8459259 766.320028,85.2458148 C851.069205,114.143852 730.432386,79.2037037 687.4125,72.4148148 Z" id="Path" fill="#39E5C4"></path>
                    <path d="M333.585256,401.562778 C284.429375,439.716333 206.948295,521.726111 87.3077273,463.432185 C59.3900852,449.854407 -25.9025,393.778185 92.2889773,309.890148 C210.480455,226.002111 184.804375,139.059074 262.78358,69.3145556 C357.517898,-15.3881481 507.181818,-14.482963 602.799176,29.4185185 C626.007273,40.0318148 661.917557,50.1698889 691.352216,59.3801481 C783.369489,88.1876667 781.331705,91.1747778 691.352216,67.5041852 C645.117159,55.3294444 605.787926,39.8734074 559.417017,27.924963 C508.744119,14.845037 340.785426,16.0217778 273.764972,102.240667 C206.744517,188.459556 179.030653,279.566444 139.158011,305.5 C99.2853693,331.433556 -13.3588068,431.95437 138.659886,469.361148 C235.862188,493.280667 270.278097,404.074667 399.881165,373.773593 C531.657869,342.952037 414.349432,358.317556 414.349432,358.317556 C414.349432,358.317556 353.66875,385.993593 333.585256,401.562778 Z" id="Path" fill="#21C4FC"></path>
                    <rect id="Rectangle" fill="#EEEEEE" x="0" y="95.6328148" width="612.761676" height="302.942852"></rect>
                    <rect id="Rectangle" fill="#FFFFFF" x="7.04167614" y="102.308556" width="598.678324" height="289.59137"></rect>
                    <g id="Group" opacity="0.31" transform="translate(43.019886, 454.855556)" fill="#21C4FC">
                        <path d="M9.32852273,0.520481481 C8.60191243,0.520481481 7.90506219,0.808968021 7.39127112,1.32247735 C6.87748005,1.83598669 6.58883523,2.5324548 6.58883523,3.25866667 L6.58883523,6.40418519 L3.44159091,6.40418519 C1.92850328,6.40418519 0.701903409,7.63011245 0.701903409,9.14237037 C0.701903409,10.6546283 1.92850328,11.8805556 3.44159091,11.8805556 L9.32852273,11.8805556 C10.0711007,11.8809612 10.7820358,11.5800824 11.2985116,11.0468256 C11.8149874,10.5135688 12.0927584,9.79361706 12.0682102,9.05185185 L12.0682102,3.16814815 C12.0193373,1.6913534 10.8069355,0.51967389 9.32852273,0.520481481 Z" id="Path"></path>
                        <path d="M9.57758523,17.6737407 C10.9762563,17.4803298 12.0136079,16.2788245 12.0002841,14.8676667 L12.0002841,11.8126667 L15.0569602,11.8126667 C16.4688923,11.8259832 17.6710568,10.7892004 17.8645739,9.3912963 C17.9548926,8.60986955 17.7074054,7.82704244 17.1842463,7.23935129 C16.6610871,6.65166014 15.9119403,6.31491779 15.1248864,6.31366667 L11.7285795,6.31366667 C8.84511049,6.32606206 6.51066923,8.65922322 6.49826705,11.5411111 L6.49826705,14.9355556 C6.49951886,15.7221779 6.83644596,16.4709139 7.42445955,16.9937862 C8.01247314,17.5166585 8.79572975,17.76401 9.57758523,17.6737407 Z" id="Path"></path>
                    </g>
                    <g id="Group" opacity="0.31" transform="translate(156.230114, 434.488889)" fill="#21C4FC">
                        <path d="M6.2265625,0.203666667 C5.49385215,0.215773408 4.9027952,0.806506249 4.89068182,1.53881481 L4.89068182,3.055 L3.39630682,3.055 C2.88173914,2.98761669 2.37469029,3.22418231 2.09594049,3.66169099 C1.8171907,4.09919967 1.8171907,4.658467 2.09594049,5.09597568 C2.37469029,5.53348436 2.88173914,5.77004998 3.39630682,5.70266667 L6.2265625,5.70266667 C6.57881376,5.702719 6.91631884,5.56133412 7.1632602,5.3102729 C7.41020155,5.05921168 7.54587444,4.71952429 7.53980114,4.36751852 L7.53980114,1.53881481 C7.53990586,0.810180628 6.95549174,0.216016391 6.2265625,0.203666667 Z" id="Path"></path>
                        <path d="M6.33977273,8.48611111 C7.01858181,8.39486566 7.52327091,7.8128514 7.51715909,7.12833333 L7.51715909,5.65740741 L9.05681818,5.65740741 C9.73423654,5.66506145 10.3137649,5.17273241 10.4153409,4.5032963 C10.4603989,4.12656843 10.3429617,3.74847233 10.0923702,3.46347292 C9.84177879,3.17847352 9.48170182,3.01348937 9.10210227,3.00974074 L7.44923295,3.00974074 C6.78267309,3.00974074 6.14341378,3.27438542 5.67208478,3.74545596 C5.20075578,4.21652651 4.93596591,4.85543528 4.93596591,5.52162963 L4.93596591,7.17359259 C4.93509782,7.53796036 5.08581838,7.88629151 5.35205249,8.13521265 C5.61828659,8.38413379 5.97607211,8.51124103 6.33977273,8.48611111 Z" id="Path"></path>
                    </g>
                    <g id="Group" opacity="0.31" transform="translate(104.153409, 61.100000)" fill="#21C4FC">
                        <path d="M9.05681818,1.26725926 C7.80633254,1.26725926 6.79261364,2.28042229 6.79261364,3.53022222 L6.79261364,6.17788889 L4.09821023,6.17788889 C2.84772459,6.17788889 1.83400568,7.19105192 1.83400568,8.44085185 C1.83400568,9.69065179 2.84772459,10.7038148 4.09821023,10.7038148 L9.05681818,10.7038148 C10.3073038,10.7038148 11.3210227,9.69065179 11.3210227,8.44085185 L11.3210227,3.57548148 C11.3331914,2.9675034 11.1000248,2.38021399 10.674078,1.9459865 C10.2481312,1.51175901 9.66525152,1.26713763 9.05681818,1.26725926 Z" id="Path"></path>
                        <path d="M9.26059659,15.704963 C10.4129294,15.577524 11.2827718,14.6007089 11.2757386,13.442 L11.2757386,10.7717037 L13.8795739,10.7717037 C15.0467216,10.7775495 16.0270768,9.89571367 16.1437784,8.73503704 C16.2434668,8.07861408 16.0496975,7.41155311 15.6137944,6.91053937 C15.1778912,6.40952564 14.5438368,6.12511134 13.8795739,6.13262963 L11.0493182,6.13262963 C8.64484116,6.20403105 6.71583875,8.14191355 6.65676136,10.5454074 L6.65676136,13.3967407 C6.63565478,14.068463 6.91436698,14.7148107 7.41742398,15.1607557 C7.92048098,15.6067007 8.59583256,15.8061021 9.26059659,15.704963 Z" id="Path"></path>
                    </g>
                    <g id="Group" opacity="0.31" transform="translate(450.576705, 49.785185)" fill="#21C4FC">
                        <path d="M6.92846591,1.26725926 C5.94943583,1.27964624 5.16230792,2.07642838 5.16238636,3.055 L5.16238636,5.06903704 L3.12460227,5.06903704 C2.22022652,5.17121714 1.5368089,5.93582593 1.5368089,6.84546296 C1.5368089,7.75509999 2.22022652,8.51970879 3.12460227,8.62188889 L6.92846591,8.62188889 C7.40080884,8.62192769 7.85348378,8.43285797 8.18534657,8.09692484 C8.51720936,7.76099171 8.70060113,7.30619327 8.69454545,6.83414815 L8.69454545,3.055 C8.6946239,2.07642838 7.90749599,1.27964624 6.92846591,1.26725926 Z" id="Path"></path>
                        <path d="M7.08696023,12.3331481 C7.98552496,12.218576 8.65654416,11.450729 8.64926136,10.5454074 L8.64926136,8.554 L10.6191193,8.554 C11.5223438,8.56420538 12.2950483,7.90776667 12.430483,7.01518519 C12.4883632,6.51079455 12.3289392,6.00559648 11.9919951,5.62566289 C11.655051,5.24572931 11.1723695,5.02689784 10.6644034,5.02377778 L8.40019886,5.02377778 C7.50544733,5.02377778 6.6473425,5.37902153 6.01465763,6.01135947 C5.38197275,6.64369741 5.02653409,7.5013317 5.02653409,8.39559259 L5.02653409,10.6585556 C5.045443,11.1665267 5.28254908,11.6416912 5.67714915,11.9623988 C6.07174923,12.2831065 6.58553194,12.41822 7.08696023,12.3331481 Z" id="Path"></path>
                    </g>
                    <g id="Group" opacity="0.31" transform="translate(267.176136, 459.381481)" fill="#21C4FC">
                        <path d="M7.40394886,1.42566667 C6.42857006,1.42566667 5.63786932,2.21593383 5.63786932,3.19077778 L5.63786932,5.22744444 L3.62272727,5.22744444 C2.64734847,5.22744444 1.85664773,6.01771161 1.85664773,6.99255556 C1.85664773,7.9673995 2.64734847,8.75766667 3.62272727,8.75766667 L7.40394886,8.75766667 C8.38305738,8.75774507 9.18027668,7.97104878 9.19267045,6.99255556 L9.19267045,3.19077778 C9.18027668,2.21228456 8.38305738,1.42558826 7.40394886,1.42566667 Z" id="Path"></path>
                        <path d="M7.58508523,12.4915556 C8.47815643,12.3561952 9.1349553,11.5839144 9.12474432,10.6811852 L9.12474432,8.71240741 L11.1172443,8.71240741 C12.0268976,8.73011892 12.8011586,8.05423643 12.9059659,7.15096296 C12.9714969,6.65106251 12.8171726,6.14729856 12.482844,5.76975781 C12.1485154,5.39221707 11.6669596,5.17791298 11.1625284,5.18218519 L8.89832386,5.18218519 C7.04390683,5.18214344 5.53710484,6.67801195 5.52465909,8.53137037 L5.52465909,10.7943333 C5.5371744,11.3063106 5.77155722,11.7876151 6.16697734,12.1133321 C6.56239746,12.4390491 7.07986698,12.5770633 7.58508523,12.4915556 Z" id="Path"></path>
                    </g>
                    <g id="Group" opacity="0.31" transform="translate(543.409091, 67.888889)" fill="#21C4FC">
                        <path d="M3.60008523,0.135777778 C3.00858435,0.135649471 2.52558997,0.608322136 2.51326705,1.19937037 L2.51326705,2.444 L1.26795455,2.444 C0.642711725,2.444 0.135852273,2.95058151 0.135852273,3.57548148 C0.135852273,4.20038145 0.642711725,4.70696296 1.26795455,4.70696296 L3.53215909,4.70696296 C4.12733907,4.69494206 4.60694978,4.21559435 4.61897727,3.62074074 L4.61897727,1.35777778 C4.65716127,1.05847983 4.56906782,0.756793608 4.37580464,0.525004965 C4.18254146,0.293216323 3.90152381,0.152212103 3.60008523,0.135777778 Z" id="Path"></path>
                        <path d="M3.69065341,6.90203704 C4.24481167,6.82375562 4.65857583,6.35251548 4.66426136,5.79318519 L4.66426136,4.52592593 L5.86428977,4.52592593 C6.42392694,4.52024351 6.89542563,4.10670624 6.97375,3.55285185 C7.00593979,3.24572364 6.90581098,2.93941931 6.69840034,2.71052898 C6.49098971,2.48163866 6.19590533,2.35180104 5.88693182,2.35348148 L4.52840909,2.35348148 C3.39046716,2.35348148 2.46798295,3.27545984 2.46798295,4.41277778 L2.46798295,5.74792593 C2.44495961,6.07275963 2.56896949,6.39078036 2.80584954,6.61437773 C3.0427296,6.83797511 3.36748623,6.943557 3.69065341,6.90203704 Z" id="Path"></path>
                    </g>
                    <g id="Group" opacity="0.31" transform="translate(199.250000, 67.888889)" fill="#21C4FC">
                        <path d="M5.43409091,0.950444444 C5.07979332,0.950444444 4.74000685,1.09111143 4.48948062,1.34150028 C4.2389544,1.59188913 4.09821023,1.93148929 4.09821023,2.28559259 L4.09821023,3.80177778 L2.58119318,3.80177778 C1.85591151,3.80177778 1.26795455,4.38941233 1.26795455,5.1142963 C1.26784982,5.84293048 1.85226394,6.43709472 2.58119318,6.44944444 L5.43409091,6.44944444 C6.16302015,6.43709472 6.74743427,5.84293048 6.74732955,5.1142963 L6.74732955,2.26296296 C6.73522267,1.54315066 6.15429814,0.96254468 5.43409091,0.950444444 Z" id="Path"></path>
                        <path d="M5.54730114,9.23288889 C6.21710454,9.13136863 6.70970369,8.552158 6.70204545,7.87511111 L6.70204545,6.40418519 L8.19642045,6.40418519 C8.87649751,6.40898413 9.45162897,5.90236657 9.53230114,5.22744444 C9.57788203,4.85282466 9.45992024,4.47672182 9.20852775,4.19514336 C8.95713527,3.91356489 8.596639,3.75375876 8.2190625,3.75651852 L6.58883523,3.75651852 C5.19708614,3.75646307 4.06535247,4.87747693 4.05292614,6.26840741 L4.05292614,7.92037037 C4.06359773,8.29736074 4.23067412,8.65293033 4.51412479,8.90188676 C4.79757547,9.15084318 5.17185968,9.27075386 5.54730114,9.23288889 Z" id="Path"></path>
                    </g>
                    <path d="M502.970398,53.157 C499.611748,53.1694098 496.892104,55.8875623 496.879687,59.2443704 L496.879687,66.2142963 L489.905937,66.2142963 C486.542131,66.2142963 483.815227,68.9397048 483.815227,72.3016667 C483.815227,75.6636285 486.542131,78.389037 489.905937,78.389037 L502.970398,78.389037 C506.285554,78.3775831 508.987457,75.7273553 509.061108,72.4148148 L509.061108,59.2443704 C509.048691,55.8875623 506.329048,53.1694098 502.970398,53.157 Z" id="Path" fill="#47ECBB"></path>
                    <path d="M503.536449,91.1974074 C506.628276,90.7749615 508.92016,88.1155042 508.879972,84.9968889 L508.879972,78.208 L515.672585,78.208 C518.796747,78.2365831 521.454743,75.9387743 521.876506,72.8447778 C522.069238,71.1220601 521.520751,69.3986045 520.367672,68.1037198 C519.214592,66.8088351 517.565463,66.0644136 515.83108,66.0558889 L508.268636,66.0558889 C501.876461,66.0806995 496.700733,71.2535887 496.675909,77.6422593 L496.675909,85.2005556 C496.687839,86.9418426 497.445317,88.5946589 498.756787,89.741025 C500.068257,90.8873911 501.808144,91.4175417 503.536449,91.1974074 Z" id="Path" fill="#21C4FC"></path>
                    <g id="Group" opacity="0.31" transform="translate(298.875000, 36.207407)" fill="#21C4FC">
                        <path d="M5.61522727,1.87825926 C4.63984847,1.87825926 3.84914773,2.66852642 3.84914773,3.64337037 L3.84914773,5.65740741 L1.83400568,5.65740741 C0.85122395,5.66961059 0.057493967,6.46290533 0.0452840909,7.44514815 C0.0576778665,8.42364137 0.854897164,9.21033766 1.83400568,9.21025926 L5.61522727,9.21025926 C6.08753138,9.21631162 6.54257935,9.03302041 6.87869679,8.7013396 C7.21481423,8.36965879 7.40398768,7.91723207 7.40394886,7.44514815 L7.40394886,3.64337037 C7.40398768,3.17128645 7.21481423,2.71885973 6.87869679,2.38717892 C6.54257935,2.05549811 6.08753138,1.8722069 5.61522727,1.87825926 Z" id="Path"></path>
                        <path d="M5.79636364,12.9441481 C6.68943484,12.8087878 7.34623371,12.036507 7.33602273,11.1337778 L7.33602273,9.05185185 L9.32852273,9.05185185 C9.9594822,9.05185189 10.5425128,8.71542362 10.8579926,8.16929633 C11.1734723,7.62316903 11.1734723,6.95031245 10.8579926,6.40418515 C10.5425128,5.85805786 9.9594822,5.52162959 9.32852273,5.52162963 L7.06431818,5.52162963 C6.16121808,5.55091471 5.30761608,5.94105004 4.69473892,6.60463622 C4.08186176,7.2682224 3.76093858,8.14979162 3.80386364,9.05185185 L3.80386364,11.3148148 C3.84353157,11.7984107 4.07817394,12.2451187 4.4539182,12.5523772 C4.82966246,12.8596358 5.31422883,13.0010486 5.79636364,12.9441481 Z" id="Path"></path>
                    </g>
                    <g id="Group" opacity="0.31" transform="translate(221.892045, 470.696296)" fill="#21C4FC">
                        <path d="M4.86803977,1.90088889 C4.13911053,1.91323861 3.55469641,2.50740285 3.55480114,3.23603704 L3.55480114,4.75222222 L2.03778409,4.75222222 C1.37276695,4.83930709 0.875451401,5.40572229 0.875451401,6.07605556 C0.875451401,6.74638882 1.37276695,7.31280402 2.03778409,7.39988889 L4.86803977,7.39988889 C5.22420054,7.40608101 5.56759862,7.26740332 5.81948041,7.01565965 C6.0713622,6.76391598 6.21011597,6.4207062 6.20392045,6.06474074 L6.20392045,3.23603704 C6.20392045,2.49865508 5.6058263,1.90088889 4.86803977,1.90088889 Z" id="Path"></path>
                        <path d="M5.00389205,10.1833333 C5.67369545,10.0818131 6.1662946,9.50260245 6.15863636,8.82555556 L6.15863636,7.35462963 L7.65301136,7.35462963 C8.325485,7.36083314 8.89773394,6.86644852 8.98889205,6.20051852 C9.04161184,5.82228877 8.92689707,5.43986536 8.67467269,5.1530088 C8.42244832,4.86615224 8.05772773,4.70331044 7.67565341,4.70696296 L6.02278409,4.70696296 C5.35622423,4.70696296 4.71696492,4.97160764 4.24563592,5.44267818 C3.77430692,5.91374873 3.50951705,6.5526575 3.50951705,7.21885185 L3.50951705,8.87081481 C3.50586251,9.25267962 3.66879366,9.61720022 3.95580761,9.86928628 C4.24282155,10.1213724 4.62545478,10.2360242 5.00389205,10.1833333 Z" id="Path"></path>
                    </g>
                    <g id="Group" opacity="0.31" transform="translate(244.534091, 29.418519)" fill="#21C4FC">
                        <path d="M5.52465909,1.56144444 C4.79562514,1.56133978 4.20113491,2.14543343 4.18877841,2.87396296 L4.18877841,4.39014815 L2.67176136,4.39014815 C1.94283213,4.40249787 1.358418,4.99666211 1.35852273,5.7252963 C1.35852273,6.45018026 1.94647969,7.03781481 2.67176136,7.03781481 L5.52465909,7.03781481 C6.24994076,7.03781481 6.83789773,6.45018026 6.83789773,5.7252963 L6.83789773,2.87396296 C6.83789773,2.52586141 6.69953905,2.19201719 6.45325904,1.94587222 C6.20697902,1.69972725 5.87295163,1.56144444 5.52465909,1.56144444 Z" id="Path"></path>
                        <path d="M5.63786932,9.82125926 C6.31316174,9.74063133 6.82005726,9.16581524 6.81525568,8.48611111 L6.81525568,6.99255556 L8.28698864,6.99255556 C8.80155631,7.05993887 9.30860517,6.82337325 9.58735496,6.38586457 C9.86610476,5.94835589 9.86610476,5.38908856 9.58735496,4.95157988 C9.30860517,4.5140712 8.80155631,4.27750558 8.28698864,4.34488889 L6.79261364,4.34488889 C6.11993262,4.32044841 5.46512787,4.56430694 4.97247148,5.02273551 C4.47981509,5.48116408 4.18973222,6.11654611 4.16613636,6.78888889 L4.16613636,8.41822222 C4.1359269,8.81103539 4.2838635,9.19663553 4.56910116,9.46855918 C4.85433883,9.74048284 5.24670544,9.86996624 5.63786932,9.82125926 Z" id="Path"></path>
                    </g>
                    <rect id="Rectangle" fill="#3E4EB8" x="14.468267" y="119.914407" width="585.161023" height="27.3365926"></rect>
                    <rect id="Rectangle" fill="#FFFFFF" x="30.6573295" y="133.718481" width="57.3523011" height="2.62503704"></rect>
                    <rect id="Rectangle" fill="#FFFFFF" x="112.259261" y="133.718481" width="57.3523011" height="2.62503704"></rect>
                    <rect id="Rectangle" fill="#FFFFFF" x="198.389602" y="133.718481" width="57.3523011" height="2.62503704"></rect>
                    <rect id="Rectangle" fill="#FFFFFF" x="276.368807" y="133.718481" width="57.3523011" height="2.62503704"></rect>
                    <rect id="Rectangle" fill="#596D7D" x="24.2043466" y="163.069111" width="10.8455398" height="10.2285926"></rect>
                    <polygon id="Path" fill="#596D7D" points="29.6157955 157.66063 24.2043466 163.069111 35.0272443 163.069111"></polygon>
                    <polygon id="Path" fill="#FDBF5D" points="444.757699 384.137963 445.753949 373.162593 440.772699 387.622926"></polygon>
                    <rect id="Rectangle" fill="#596D7D" x="347.849744" y="225.934222" width="75.4885795" height="3.75651852"></rect>
                    <rect id="Rectangle" fill="#47ECBA" x="347.849744" y="246.617704" width="75.4885795" height="3.75651852"></rect>
                    <rect id="Rectangle" fill="#596D7D" x="347.849744" y="269.202074" width="75.4885795" height="3.75651852"></rect>
                    <rect id="Rectangle" fill="#47ECBA" x="347.849744" y="291.763815" width="75.4885795" height="3.75651852"></rect>
                    <rect id="Rectangle" fill="#47ECBA" x="347.849744" y="314.348185" width="75.4885795" height="3.75651852"></rect>
                    <rect id="Rectangle" fill="#596D7D" x="347.849744" y="336.909926" width="75.4885795" height="3.75651852"></rect>
                    <rect id="Rectangle" fill="#47ECBA" x="347.849744" y="359.494296" width="75.4885795" height="3.75651852"></rect>
                    <rect id="Rectangle" fill="#96A1AB" x="514.29142" y="225.934222" width="17.7740057" height="3.75651852"></rect>
                    <rect id="Rectangle" fill="#96A1AB" x="514.29142" y="246.617704" width="17.7740057" height="3.75651852"></rect>
                    <rect id="Rectangle" fill="#96A1AB" x="514.29142" y="269.202074" width="17.7740057" height="3.75651852"></rect>
                    <rect id="Rectangle" fill="#96A1AB" x="514.29142" y="291.763815" width="17.7740057" height="3.75651852"></rect>
                    <rect id="Rectangle" fill="#96A1AB" x="514.29142" y="314.348185" width="17.7740057" height="3.75651852"></rect>
                    <rect id="Rectangle" fill="#96A1AB" x="514.29142" y="336.909926" width="17.7740057" height="3.75651852"></rect>
                    <rect id="Rectangle" fill="#96A1AB" x="514.29142" y="359.494296" width="17.7740057" height="3.75651852"></rect>
                    <ellipse id="Oval" fill="#47ECBA" cx="88.1228409" cy="227.450407" rx="6.15863636" ry="6.15525926"></ellipse>
                    <ellipse id="Oval" fill="#47ECBA" cx="88.1228409" cy="247.794444" rx="6.15863636" ry="6.15525926"></ellipse>
                    <ellipse id="Oval" fill="#47ECBA" cx="88.1228409" cy="271.035074" rx="6.15863636" ry="6.15525926"></ellipse>
                    <ellipse id="Oval" fill="#47ECBA" cx="88.1228409" cy="294.253074" rx="6.15863636" ry="6.15525926"></ellipse>
                    <ellipse id="Oval" fill="#47ECBA" cx="88.1228409" cy="316.113296" rx="6.15863636" ry="6.15525926"></ellipse>
                    <ellipse id="Oval" fill="#47ECBA" cx="88.1228409" cy="339.331296" rx="6.15863636" ry="6.15525926"></ellipse>
                    <ellipse id="Oval" fill="#22C3FC" cx="88.1228409" cy="361.191519" rx="6.15863636" ry="6.15525926"></ellipse>
                    <path d="M504.057216,212.03963 C503.339633,212.333357 502.568033,212.472169 501.793011,212.446963 C500.646777,212.51414 499.526767,212.08672 498.717033,211.273101 C497.907298,210.459483 497.485623,209.337824 497.558949,208.192593 C497.477972,206.969221 497.929004,205.770409 498.796424,204.903464 C499.663845,204.036519 500.863316,203.585734 502.087358,203.666667 C502.786325,203.647836 503.481206,203.779019 504.125142,204.05137 L503.853438,204.956556 C503.314214,204.708569 502.726135,204.58483 502.132642,204.594481 C501.171738,204.517873 500.227647,204.879297 499.563838,205.577892 C498.900029,206.276486 498.587583,207.237445 498.713693,208.192593 C498.618564,209.106664 498.931103,210.016211 499.568073,210.678994 C500.205042,211.341777 501.101771,211.690503 502.019432,211.632296 C502.635052,211.644469 503.245787,211.520843 503.808153,211.270222 L504.057216,212.03963 Z" id="Path" fill="#0E2E51"></path>
                    <path d="M508.721477,212.311185 L508.721477,211.541778 C508.279721,212.131139 507.578664,212.468812 506.842188,212.446963 C506.352783,212.485257 505.869903,212.315564 505.512176,211.97957 C505.154448,211.643576 504.955025,211.172421 504.962898,210.681852 C504.962898,209.188296 506.276136,208.418889 508.653551,208.418889 C508.705082,208.031337 508.574749,207.641709 508.30037,207.363057 C508.02599,207.084405 507.638283,206.947927 507.249744,206.993222 C506.688559,206.986269 506.137604,207.143599 505.664801,207.445815 L505.415739,206.699037 C506.025946,206.339184 506.722383,206.151484 507.430881,206.155926 C509.31017,206.155926 509.695085,207.445815 509.695085,208.667815 L509.695085,210.930778 C509.644816,211.419799 509.644816,211.912682 509.695085,212.401704 L508.721477,212.311185 Z M508.540341,209.165667 C507.31767,209.165667 505.936506,209.369333 505.936506,210.568704 C505.916097,210.856556 506.021644,211.139099 506.225809,211.343152 C506.429973,211.547205 506.712672,211.652694 507.000682,211.632296 C507.670605,211.641456 508.271791,211.222678 508.495057,210.591333 C508.50611,210.478455 508.50611,210.364767 508.495057,210.251889 L508.540341,209.165667 Z" id="Shape" fill="#0E2E51" fill-rule="nonzero"></path>
                    <path d="M511.438523,208.192593 C511.438523,207.468444 511.438523,206.857444 511.438523,206.269074 L512.412131,206.269074 L512.412131,207.491074 C512.619692,206.715702 513.307846,206.16548 514.110284,206.133296 L514.427273,206.133296 L514.427273,207.174259 L514.042358,207.174259 C513.25608,207.205529 512.615787,207.816382 512.547983,208.599926 C512.535796,208.773206 512.535796,208.947127 512.547983,209.120407 L512.547983,212.401704 L511.438523,212.401704 L511.438523,208.192593 Z" id="Path" fill="#0E2E51"></path>
                    <path d="M516.080142,209.437222 C516.031418,210.014945 516.239954,210.584762 516.650139,210.994723 C517.060325,211.404683 517.630454,211.613104 518.208494,211.564407 C518.790803,211.582715 519.370161,211.474627 519.906648,211.247593 L520.087784,212.062259 C519.444262,212.335975 518.74908,212.467215 518.05,212.446963 C517.217217,212.503284 516.401527,212.192274 515.817883,211.595891 C515.234239,210.999507 514.941192,210.177579 515.015966,209.346704 C514.899897,208.500002 515.149449,207.643906 515.702363,206.991999 C516.255276,206.340092 517.059411,205.953848 517.914148,205.92963 C518.647015,205.944029 519.339865,206.266494 519.822555,206.817837 C520.305245,207.36918 520.53306,208.098327 520.450057,208.826222 C520.466592,208.999322 520.466592,209.173603 520.450057,209.346704 L516.080142,209.437222 Z M519.363239,208.645185 C519.435495,208.191717 519.307317,207.729225 519.011914,207.377541 C518.716511,207.025857 518.282955,206.81959 517.82358,206.812185 C516.865176,206.893054 516.122551,207.684102 516.102784,208.645185 L519.363239,208.645185 Z" id="Shape" fill="#0E2E51" fill-rule="nonzero"></path>
                    <polygon id="Path" fill="#0E2E51" points="525.680369 204.685 523.03125 204.685 523.03125 203.666667 529.371023 203.666667 529.371023 204.594481 526.744545 204.594481 526.744545 212.220667 525.635085 212.220667"></polygon>
                    <path d="M530.050284,209.437222 C530.002445,210.010698 530.208046,210.576385 530.613003,210.985471 C531.017959,211.394557 531.581725,211.606084 532.155994,211.564407 C532.738638,211.587191 533.318965,211.478923 533.854148,211.247593 L534.057926,212.062259 C533.413586,212.333272 532.718997,212.4644 532.020142,212.446963 C531.187359,212.503284 530.371669,212.192274 529.788025,211.595891 C529.204381,210.999507 528.911334,210.177579 528.986108,209.346704 C528.862914,208.502458 529.106801,207.645853 529.656265,206.992912 C530.205728,206.339971 531.008323,205.953016 531.861648,205.92963 C532.604544,205.953709 533.301731,206.293953 533.777571,206.864649 C534.253412,207.435345 534.46254,208.182082 534.352273,208.916741 C534.352273,209.143037 534.352273,209.324074 534.352273,209.437222 L530.050284,209.437222 Z M533.333381,208.645185 C533.333381,207.921037 533.039034,206.812185 531.77108,206.812185 C530.811591,206.883411 530.070283,207.683585 530.072926,208.645185 L533.333381,208.645185 Z" id="Shape" fill="#0E2E51" fill-rule="nonzero"></path>
                    <path d="M539.19767,212.311185 L539.19767,211.541778 C538.755914,212.131139 538.054857,212.468812 537.318381,212.446963 C536.828976,212.485257 536.346097,212.315564 535.988369,211.97957 C535.630641,211.643576 535.431218,211.172421 535.439091,210.681852 C535.439091,209.188296 536.75233,208.418889 539.129744,208.418889 C539.181275,208.031337 539.050943,207.641709 538.776563,207.363057 C538.502183,207.084405 538.114477,206.947927 537.725937,206.993222 C537.158098,206.989583 536.600801,207.146482 536.118352,207.445815 L535.86929,206.699037 C536.48037,206.341264 537.176225,206.153721 537.884432,206.155926 C539.786364,206.155926 540.148636,207.445815 540.148636,208.667815 L540.148636,210.930778 C540.110527,211.420347 540.110527,211.912135 540.148636,212.401704 L539.19767,212.311185 Z M539.039176,209.165667 C537.816506,209.165667 536.435341,209.369333 536.435341,210.568704 C536.414932,210.856556 536.520479,211.139099 536.724644,211.343152 C536.928809,211.547205 537.211507,211.652694 537.499517,211.632296 C538.163331,211.638698 538.756508,211.219141 538.97125,210.591333 C538.992667,210.479198 538.992667,210.364025 538.97125,210.251889 L539.039176,209.165667 Z" id="Shape" fill="#0E2E51" fill-rule="nonzero"></path>
                    <path d="M541.937358,207.830519 C541.937358,207.196889 541.937358,206.676407 541.937358,206.155926 L542.933608,206.155926 L542.933608,207.15163 C543.335623,206.455668 544.07678,206.024999 544.880824,206.020148 C545.66923,206.017365 546.371196,206.518495 546.624261,207.264778 C546.788907,206.947214 547.020683,206.669235 547.303523,206.450111 C547.693479,206.155033 548.173225,206.003197 548.662045,206.020148 C549.477159,206.020148 550.677187,206.563259 550.677187,208.690444 L550.677187,212.311185 L549.590369,212.311185 L549.590369,208.826222 C549.590369,207.649481 549.16017,206.947963 548.254489,206.947963 C547.647332,206.961022 547.117422,207.362803 546.94125,207.943667 C546.915774,208.131387 546.915774,208.321687 546.94125,208.509407 L546.94125,212.311185 L545.854432,212.311185 L545.854432,208.622556 C545.854432,207.649481 545.424233,206.947963 544.563835,206.947963 C543.912896,206.982611 543.356875,207.429006 543.18267,208.056815 C543.148404,208.236232 543.148404,208.420509 543.18267,208.599926 L543.18267,212.311185 L542.095852,212.311185 L541.937358,207.830519 Z" id="Path" fill="#0E2E51"></path>
                    <path d="M369.065341,209.618259 L368.159659,212.311185 L367.027557,212.311185 L369.993665,203.666667 L371.329545,203.666667 L374.273011,212.220667 L373.072983,212.220667 L372.167301,209.527741 L369.065341,209.618259 Z M371.872955,208.758333 L371.035199,206.291704 C370.83142,205.725963 370.71821,205.228111 370.582358,204.730259 C370.446506,205.228111 370.310653,205.748593 370.152159,206.269074 L369.314403,208.758333 L371.872955,208.758333 Z" id="Shape" fill="#0E2E51" fill-rule="nonzero"></path>
                    <path d="M379.707102,212.084889 C379.153074,212.336571 378.549448,212.460324 377.941023,212.446963 C377.100424,212.487872 376.282509,212.167204 375.693939,211.56598 C375.105369,210.964757 374.802444,210.14049 374.861705,209.301444 C374.822708,208.425825 375.153679,207.574131 375.773789,206.954362 C376.393898,206.334592 377.246059,206.003803 378.122159,206.042778 C378.659601,206.035522 379.192349,206.143556 379.68446,206.359593 L379.435398,207.219519 C379.031009,207.008133 378.578136,206.906682 378.122159,206.925333 C377.510138,206.884867 376.910403,207.110259 376.476692,207.543732 C376.042982,207.977204 375.817466,208.576611 375.857955,209.188296 C375.812989,209.781317 376.021167,210.365667 376.431005,210.79684 C376.840844,211.228012 377.414078,211.465749 378.008949,211.451259 C378.477912,211.454114 378.941747,211.353672 379.367472,211.157074 L379.707102,212.084889 Z" id="Path" fill="#0E2E51"></path>
                    <path d="M382.514716,204.390815 L382.514716,206.155926 L384.122301,206.155926 L384.122301,207.015852 L382.514716,207.015852 L382.514716,210.319778 C382.514716,211.089185 382.741136,211.519148 383.352472,211.519148 C383.570182,211.551036 383.791381,211.551036 384.009091,211.519148 L384.009091,212.356444 C383.690085,212.471994 383.351976,212.525755 383.012841,212.514852 C382.563487,212.53379 382.127241,212.361033 381.812813,212.03963 C381.470548,211.578058 381.31675,211.003656 381.382614,210.432926 L381.382614,207.015852 L380.386364,207.015852 L380.386364,206.155926 L381.33733,206.155926 L381.33733,204.685 L382.514716,204.390815 Z" id="Path" fill="#0E2E51"></path>
                    <path d="M386.635568,204.436074 C386.635568,204.823512 386.321315,205.137593 385.933665,205.137593 C385.546014,205.137593 385.231761,204.823512 385.231761,204.436074 C385.225382,204.248138 385.297281,204.065975 385.430322,203.933007 C385.563362,203.800039 385.745625,203.728179 385.933665,203.734556 C386.123672,203.720938 386.31023,203.790462 386.444931,203.925089 C386.579631,204.059715 386.649194,204.246171 386.635568,204.436074 Z M385.390256,212.311185 L385.390256,206.155926 L386.499716,206.155926 L386.499716,212.311185 L385.390256,212.311185 Z" id="Shape" fill="#0E2E51" fill-rule="nonzero"></path>
                    <path d="M393.971591,209.188296 C394.042181,210.036641 393.750022,210.875186 393.167481,211.496222 C392.584941,212.117257 391.76651,212.462693 390.914915,212.446963 C390.089472,212.455758 389.298269,212.117721 388.734256,211.515289 C388.170243,210.912858 387.885261,210.101403 387.948807,209.278815 C387.851665,208.423608 388.125509,207.567754 388.701124,206.927571 C389.276739,206.287387 390.099044,205.924136 390.960199,205.92963 C391.813067,205.897321 392.637407,206.239459 393.216486,206.866088 C393.795566,207.492718 394.071445,208.341142 393.971591,209.188296 Z M389.080909,209.188296 C388.988602,210.327493 389.822878,211.332093 390.960199,211.451259 C392.024375,211.451259 392.816847,210.455556 392.816847,209.075148 C392.816847,208.034185 392.29608,206.812185 390.982841,206.812185 C389.669602,206.812185 389.035625,208.192593 389.035625,209.256185 L389.080909,209.188296 Z" id="Shape" fill="#0E2E51" fill-rule="nonzero"></path>
                    <path d="M395.330114,207.830519 C395.330114,207.196889 395.330114,206.676407 395.330114,206.155926 L396.235795,206.155926 L396.235795,207.174259 C396.656306,206.327412 397.559233,205.831075 398.5,205.92963 C399.337756,205.92963 400.764205,206.450111 400.764205,208.554667 L400.764205,212.220667 L399.632102,212.220667 L399.632102,208.758333 C399.632102,207.785259 399.26983,206.947963 398.205653,206.947963 C397.510106,206.968869 396.906981,207.434665 396.711278,208.102074 C396.684503,208.274536 396.684503,208.450094 396.711278,208.622556 L396.711278,212.311185 L395.579176,212.311185 L395.330114,207.830519 Z" id="Path" fill="#0E2E51"></path>
                    <path d="M171.649347,203.847704 C172.353019,203.734675 173.065037,203.681681 173.777699,203.689296 C174.636104,203.626976 175.488216,203.876042 176.177756,204.390815 C176.669629,204.853572 176.941313,205.50361 176.924943,206.178556 C176.964135,206.853312 176.727108,207.514989 176.268324,208.011556 C175.560688,208.675603 174.610815,209.019334 173.641847,208.962 C173.348738,209.000151 173.051916,209.000151 172.758807,208.962 L172.758807,212.401704 L171.649347,212.401704 L171.649347,203.847704 Z M172.758807,207.988926 C173.060057,208.016794 173.363239,208.016794 173.664489,207.988926 C175.000369,207.988926 175.928693,207.355296 175.928693,206.178556 C175.928693,205.001815 175.136222,204.481333 173.913551,204.481333 C173.567411,204.443397 173.218158,204.443397 172.872017,204.481333 L172.758807,207.988926 Z" id="Shape" fill="#0E2E51" fill-rule="nonzero"></path>
                    <path d="M178.170256,208.192593 C178.170256,207.468444 178.170256,206.857444 178.170256,206.269074 L179.143864,206.269074 L179.143864,207.491074 C179.351425,206.715702 180.039579,206.16548 180.842017,206.133296 L181.159006,206.133296 L181.159006,207.174259 L180.774091,207.174259 C179.987813,207.205529 179.34752,207.816382 179.279716,208.599926 C179.267529,208.773206 179.267529,208.947127 179.279716,209.120407 L179.279716,212.401704 L178.170256,212.401704 L178.170256,208.192593 Z" id="Path" fill="#0E2E51"></path>
                    <path d="M182.811875,209.437222 C182.763151,210.014945 182.971687,210.584762 183.381872,210.994723 C183.792058,211.404683 184.362187,211.613104 184.940227,211.564407 C185.522536,211.582715 186.101894,211.474627 186.638381,211.247593 L186.819517,212.062259 C186.175995,212.335975 185.480813,212.467215 184.781733,212.446963 C183.94895,212.503284 183.13326,212.192274 182.549616,211.595891 C181.965972,210.999507 181.672925,210.177579 181.747699,209.346704 C181.63163,208.500002 181.881182,207.643906 182.434096,206.991999 C182.987009,206.340092 183.791144,205.953848 184.645881,205.92963 C185.378748,205.944029 186.071598,206.266494 186.554288,206.817837 C187.036978,207.36918 187.264793,208.098327 187.18179,208.826222 C187.198325,208.999322 187.198325,209.173603 187.18179,209.346704 L182.811875,209.437222 Z M186.094972,208.645185 C186.167228,208.191717 186.03905,207.729225 185.743647,207.377541 C185.448244,207.025857 185.014688,206.81959 184.555313,206.812185 C183.591969,206.88278 182.843711,207.679829 182.834517,208.645185 L186.094972,208.645185 Z" id="Shape" fill="#0E2E51" fill-rule="nonzero"></path>
                    <path d="M193.883835,203.281963 L193.883835,210.727111 C193.883835,211.270222 193.883835,211.881222 193.883835,212.311185 L192.887585,212.311185 L192.887585,211.247593 C192.480452,212.013204 191.671427,212.479017 190.804517,212.446963 C190.030985,212.408805 189.308286,212.05044 188.809949,211.457916 C188.311612,210.865392 188.08265,210.092229 188.17804,209.324074 C188.049119,208.5107 188.267212,207.680557 188.779313,207.035406 C189.291413,206.390255 190.050631,205.989169 190.872443,205.92963 C191.618959,205.881841 192.331663,206.246684 192.729091,206.880074 L192.729091,203.281963 L193.883835,203.281963 Z M192.774375,208.667815 C192.796378,208.510171 192.796378,208.350237 192.774375,208.192593 C192.613066,207.435589 191.94117,206.896476 191.16679,206.902704 C190.012045,206.902704 189.332784,207.921037 189.332784,209.165667 C189.332784,210.410296 189.921477,211.42863 191.144148,211.42863 C191.934655,211.423675 192.61415,210.867172 192.774375,210.093481 C192.799752,209.936089 192.799752,209.775651 192.774375,209.618259 L192.774375,208.667815 Z" id="Shape" fill="#0E2E51" fill-rule="nonzero"></path>
                    <path d="M196.985795,204.436074 C196.925116,204.769642 196.634435,205.012105 196.295213,205.012105 C195.955991,205.012105 195.665311,204.769642 195.604631,204.436074 C195.577639,204.236921 195.640321,204.036051 195.775801,203.887542 C195.91128,203.739032 196.105633,203.658149 196.306534,203.666667 C196.506093,203.656747 196.699314,203.738181 196.83151,203.88792 C196.963706,204.03766 197.020491,204.239412 196.985795,204.436074 Z M195.740483,212.311185 L195.740483,206.155926 L196.849943,206.155926 L196.849943,212.311185 L195.740483,212.311185 Z" id="Shape" fill="#0E2E51" fill-rule="nonzero"></path>
                    <path d="M203.099148,212.084889 C202.546112,212.339608 201.941778,212.463506 201.333068,212.446963 C200.494224,212.488613 199.678035,212.167347 199.092883,211.565187 C198.507731,210.963028 198.210251,210.138256 198.276392,209.301444 C198.237837,208.429919 198.565785,207.582005 199.180832,206.962996 C199.79588,206.343987 200.641953,206.010318 201.514205,206.042778 C202.044578,206.032989 202.570493,206.141206 203.053864,206.359593 L202.804801,207.219519 C202.408635,207.007954 201.962977,206.906368 201.514205,206.925333 C200.902183,206.884867 200.302448,207.110259 199.868738,207.543732 C199.435028,207.977204 199.209512,208.576611 199.25,209.188296 C199.198211,209.779056 199.400947,210.363853 199.807337,210.795945 C200.213727,211.228038 200.785198,211.466414 201.378352,211.451259 C201.854568,211.453772 202.325705,211.353421 202.759517,211.157074 L203.099148,212.084889 Z" id="Path" fill="#0E2E51"></path>
                    <path d="M206.042614,204.390815 L206.042614,206.155926 L207.627557,206.155926 L207.627557,207.015852 L206.042614,207.015852 L206.042614,210.319778 C206.042614,211.089185 206.246392,211.519148 206.880369,211.519148 C207.091214,211.539309 207.303502,211.539309 207.514347,211.519148 L207.514347,212.356444 C207.194807,212.469917 206.857093,212.523614 206.518097,212.514852 C206.067751,212.539766 205.629123,212.366065 205.318068,212.03963 C204.967781,211.581304 204.805804,211.0066 204.865227,210.432926 L204.865227,207.015852 L203.778409,207.015852 L203.778409,206.155926 L204.729375,206.155926 L204.729375,204.685 L206.042614,204.390815 Z" id="Path" fill="#0E2E51"></path>
                    <path d="M209.32571,209.437222 C209.277871,210.010698 209.483473,210.576385 209.888429,210.985471 C210.293385,211.394557 210.857151,211.606084 211.43142,211.564407 C212.021204,211.584562 212.608332,211.476466 213.152216,211.247593 L213.333352,212.062259 C212.68983,212.335975 211.994648,212.467215 211.295568,212.446963 C210.470419,212.489536 209.66733,212.172477 209.094044,211.577801 C208.520757,210.983125 208.233587,210.169248 208.306818,209.346704 C208.183974,208.506251 208.424925,207.653272 208.969403,207.00112 C209.513882,206.348968 210.310396,205.959317 211.159716,205.92963 C211.892583,205.944029 212.585433,206.266494 213.068123,206.817837 C213.550813,207.36918 213.778628,208.098327 213.695625,208.826222 C213.712161,208.999322 213.712161,209.173603 213.695625,209.346704 L209.32571,209.437222 Z M212.608807,208.645185 C212.681063,208.191717 212.552885,207.729225 212.257482,207.377541 C211.962079,207.025857 211.528523,206.81959 211.069148,206.812185 C210.105804,206.88278 209.357546,207.679829 209.348352,208.645185 L212.608807,208.645185 Z" id="Shape" fill="#0E2E51" fill-rule="nonzero"></path>
                    <path d="M220.39767,203.281963 L220.39767,210.727111 C220.39767,211.270222 220.39767,211.881222 220.39767,212.311185 L219.40142,212.311185 L219.40142,211.247593 C218.994287,212.013204 218.185262,212.479017 217.318352,212.446963 C216.543285,212.408248 215.818818,212.050635 215.316968,211.459033 C214.815118,210.867432 214.580649,210.094613 214.669233,209.324074 C214.547375,208.511834 214.768135,207.685468 215.27887,207.042038 C215.789605,206.398608 216.544536,205.995785 217.363636,205.92963 C218.110152,205.881841 218.822856,206.246684 219.220284,206.880074 L219.220284,203.281963 L220.39767,203.281963 Z M219.265568,208.667815 C219.287867,208.510191 219.287867,208.350216 219.265568,208.192593 C219.104259,207.435589 218.432363,206.896476 217.657983,206.902704 C216.503239,206.902704 215.801335,207.921037 215.801335,209.165667 C215.801335,210.410296 216.41267,211.42863 217.635341,211.42863 C218.425848,211.423675 219.105343,210.867172 219.265568,210.093481 C219.290189,209.93603 219.290189,209.775711 219.265568,209.618259 L219.265568,208.667815 Z" id="Shape" fill="#0E2E51" fill-rule="nonzero"></path>
                    <path d="M225.92233,212.311185 L223.658125,203.757185 L224.835511,203.757185 L225.944972,208.192593 C226.194034,209.256185 226.420455,210.319778 226.578949,211.157074 C226.714801,210.297148 226.986506,209.278815 227.280852,208.169963 L228.412955,203.870333 L229.567699,203.870333 L230.609233,208.215222 C230.858295,209.233556 231.084716,210.229259 231.220568,211.134444 C231.401705,210.20663 231.628125,209.256185 231.89983,208.169963 L233.031932,203.870333 L234.164034,203.870333 L231.741335,212.424333 L230.586591,212.424333 L229.499773,207.898407 C229.254622,206.975319 229.065592,206.038248 228.933722,205.092333 C228.76277,206.03825 228.543612,206.974827 228.277102,207.898407 L227.054432,212.424333 L225.92233,212.311185 Z" id="Path" fill="#0E2E51"></path>
                    <path d="M238.239602,212.311185 L238.239602,211.541778 C237.797846,212.131139 237.096789,212.468812 236.360312,212.446963 C235.870908,212.485257 235.388028,212.315564 235.030301,211.97957 C234.672573,211.643576 234.47315,211.172421 234.481023,210.681852 C234.481023,209.188296 235.794261,208.418889 238.171676,208.418889 L238.171676,208.192593 C238.215602,207.808697 238.081886,207.425746 237.808512,207.152521 C237.535137,206.879296 237.151976,206.745654 236.767869,206.789556 C236.206684,206.782603 235.655729,206.939932 235.182926,207.242148 L234.911222,206.49537 C235.529355,206.134713 236.233269,205.947106 236.949006,205.952259 C238.828295,205.952259 239.21321,207.242148 239.21321,208.464148 L239.21321,210.727111 C239.164778,211.216225 239.164778,211.708923 239.21321,212.198037 L238.239602,212.311185 Z M238.058466,209.165667 C236.835795,209.165667 235.454631,209.369333 235.454631,210.568704 C235.434222,210.856556 235.539769,211.139099 235.743934,211.343152 C235.948098,211.547205 236.230797,211.652694 236.518807,211.632296 C237.18873,211.641456 237.789916,211.222678 238.013182,210.591333 C238.024235,210.478455 238.024235,210.364767 238.013182,210.251889 L238.058466,209.165667 Z" id="Shape" fill="#0E2E51" fill-rule="nonzero"></path>
                    <path d="M242.269886,204.436074 C242.277499,204.62645 242.201953,204.810735 242.06288,204.941045 C241.923806,205.071355 241.734935,205.134825 241.545341,205.114963 C241.3672,205.115069 241.196661,205.04283 241.072849,204.914819 C240.949037,204.786807 240.882579,204.614012 240.888722,204.436074 C240.882342,204.248138 240.954241,204.065975 241.087282,203.933007 C241.220323,203.800039 241.402585,203.728179 241.590625,203.734556 C241.776807,203.727682 241.957146,203.800182 242.08671,203.933991 C242.216273,204.0678 242.282862,204.250319 242.269886,204.436074 Z M241.024574,212.311185 L241.024574,206.155926 L242.134034,206.155926 L242.134034,212.311185 L241.024574,212.311185 Z" id="Shape" fill="#0E2E51" fill-rule="nonzero"></path>
                    <path d="M245.281278,204.390815 L245.281278,206.155926 L246.798295,206.155926 L246.798295,207.015852 L245.19071,207.015852 L245.19071,210.319778 C245.19071,211.089185 245.394489,211.519148 246.028466,211.519148 C246.23931,211.539309 246.451599,211.539309 246.662443,211.519148 L246.662443,212.356444 C246.342904,212.469917 246.00519,212.523614 245.666193,212.514852 C245.215848,212.539766 244.77722,212.366065 244.466165,212.03963 C244.1239,211.578058 243.970102,211.003656 244.035966,210.432926 L244.035966,207.015852 L243.062358,207.015852 L243.062358,206.155926 L244.035966,206.155926 L244.035966,204.685 L245.281278,204.390815 Z" id="Path" fill="#0E2E51"></path>
                    <polygon id="Path" fill="#0E2E51" points="251.983324 204.685 249.379489 204.685 249.379489 203.666667 255.719261 203.666667 255.719261 204.594481 253.092784 204.594481 253.092784 212.220667 251.983324 212.220667"></polygon>
                    <path d="M257.734403,204.436074 C257.734403,204.823512 257.420151,205.137593 257.0325,205.137593 C256.644849,205.137593 256.330597,204.823512 256.330597,204.436074 C256.324217,204.248138 256.396116,204.065975 256.529157,203.933007 C256.662198,203.800039 256.84446,203.728179 257.0325,203.734556 C257.222507,203.720938 257.409066,203.790462 257.543766,203.925089 C257.678466,204.059715 257.748029,204.246171 257.734403,204.436074 Z M256.466449,212.311185 L256.466449,206.155926 L257.598551,206.155926 L257.598551,212.311185 L256.466449,212.311185 Z" id="Shape" fill="#0E2E51" fill-rule="nonzero"></path>
                    <path d="M259.455199,207.830519 C259.455199,207.196889 259.455199,206.676407 259.455199,206.155926 L260.383523,206.155926 L260.383523,207.15163 C260.755688,206.437589 261.502836,205.998331 262.308097,206.020148 C263.096502,206.017365 263.798469,206.518495 264.051534,207.264778 C264.223155,206.951904 264.45383,206.675246 264.730795,206.450111 C265.131756,206.1597 265.616916,206.008667 266.11196,206.020148 C266.927074,206.020148 268.127102,206.563259 268.127102,208.690444 L268.127102,212.311185 L267.176136,212.311185 L267.176136,208.826222 C267.176136,207.649481 266.745938,206.947963 265.840256,206.947963 C265.231731,206.971663 264.700663,207.367497 264.504375,207.943667 C264.478899,208.131387 264.478899,208.321687 264.504375,208.509407 L264.504375,212.311185 L263.417557,212.311185 L263.417557,208.622556 C263.417557,207.649481 262.987358,206.947963 262.12696,206.947963 C261.476021,206.982611 260.92,207.429006 260.745795,208.056815 C260.711529,208.236232 260.711529,208.420509 260.745795,208.599926 L260.745795,212.311185 L259.658977,212.311185 L259.455199,207.830519 Z" id="Path" fill="#0E2E51"></path>
                    <path d="M270.685653,209.437222 C270.637814,210.010698 270.843416,210.576385 271.248372,210.985471 C271.653328,211.394557 272.217094,211.606084 272.791364,211.564407 C273.373839,211.584913 273.953669,211.476737 274.489517,211.247593 L274.693295,212.062259 C274.041561,212.3351 273.339205,212.466237 272.632869,212.446963 C271.803894,212.496373 270.994522,212.182319 270.41607,211.586796 C269.837617,210.991273 269.547505,210.173397 269.621477,209.346704 C269.498283,208.502458 269.74217,207.645853 270.291634,206.992912 C270.841098,206.339971 271.643692,205.953016 272.497017,205.92963 C273.229884,205.944029 273.922735,206.266494 274.405424,206.817837 C274.888114,207.36918 275.11593,208.098327 275.032926,208.826222 C275.032926,209.052519 275.032926,209.233556 275.032926,209.346704 L270.685653,209.437222 Z M273.96875,208.645185 C273.96875,207.921037 273.674403,206.812185 272.406449,206.812185 C271.443105,206.88278 270.694847,207.679829 270.685653,208.645185 L273.96875,208.645185 Z" id="Shape" fill="#0E2E51" fill-rule="nonzero"></path>
                    <path d="M51.805,203.870333 C52.46876,203.741327 53.1440032,203.680664 53.820142,203.689296 C54.6224759,203.629283 55.4212665,203.844838 56.0843466,204.300296 C56.5632525,204.653702 56.834862,205.222073 56.808892,205.816481 C56.7850405,206.690584 56.1995773,207.44944 55.3598011,207.694741 C56.371683,207.922464 57.0993553,208.808246 57.1258807,209.844556 C57.1431173,210.495311 56.8791177,211.121966 56.4013352,211.564407 C55.5419195,212.180177 54.4874059,212.461763 53.4352273,212.356444 C52.8621416,212.390728 52.2875175,212.390728 51.7144318,212.356444 L51.805,203.870333 Z M52.9144602,207.377926 L53.9107102,207.377926 C55.0880966,207.377926 55.767358,206.766926 55.767358,205.92963 C55.767358,205.092333 55.0201705,204.526593 53.8880682,204.526593 C53.5647112,204.487492 53.2378172,204.487492 52.9144602,204.526593 L52.9144602,207.377926 Z M52.9144602,211.473889 C53.2233205,211.50069 53.5339238,211.50069 53.8427841,211.473889 C54.9975284,211.473889 56.1069886,211.066556 56.1069886,209.821926 C56.1069886,208.577296 55.1107386,208.169963 53.8427841,208.169963 L52.9371023,208.169963 L52.9144602,211.473889 Z" id="Shape" fill="#0E2E51" fill-rule="nonzero"></path>
                    <path d="M62.0618466,212.311185 L62.0618466,211.541778 C61.6200903,212.131139 60.9190336,212.468812 60.1825568,212.446963 C59.6911052,212.484861 59.2061689,212.315763 58.844966,211.980544 C58.4837631,211.645326 58.2791643,211.174492 58.280625,210.681852 C58.280625,209.188296 59.6165057,208.418889 61.9939205,208.418889 C62.0454513,208.031337 61.9151187,207.641709 61.640739,207.363057 C61.3663593,207.084405 60.9786527,206.947927 60.5901136,206.993222 C60.0219388,206.987077 59.4639539,207.144169 58.9825284,207.445815 L58.7334659,206.699037 C59.3445465,206.341264 60.0404014,206.153721 60.748608,206.155926 C62.6505398,206.155926 63.0128125,207.445815 63.0128125,208.667815 L63.0128125,210.930778 C62.9747031,211.420347 62.9747031,211.912135 63.0128125,212.401704 L62.0618466,212.311185 Z M61.9033523,209.165667 C60.6806818,209.165667 59.299517,209.369333 59.299517,210.568704 C59.2720167,210.85431 59.3720361,211.137489 59.5728405,211.342546 C59.7736449,211.547603 60.0547624,211.653634 60.3410511,211.632296 C61.0131463,211.648604 61.6181175,211.227188 61.8354261,210.591333 C61.856843,210.479198 61.856843,210.364025 61.8354261,210.251889 L61.9033523,209.165667 Z" id="Shape" fill="#0E2E51" fill-rule="nonzero"></path>
                    <path d="M70.1903409,203.281963 L70.1903409,210.727111 C70.1903409,211.270222 70.1903409,211.903852 70.1903409,212.311185 L69.1940909,212.311185 L69.1940909,211.247593 C68.7833813,212.020795 67.963311,212.48789 67.0883807,212.446963 C66.3148486,212.408805 65.5921494,212.05044 65.0938126,211.457916 C64.5954758,210.865392 64.3665138,210.092229 64.4619034,209.324074 C64.3331103,208.517938 64.5452615,207.694561 65.0476173,207.050868 C65.5499731,206.407175 66.2973584,206.001052 67.1110227,205.92963 C67.8554777,205.891605 68.5635189,206.254061 68.9676705,206.880074 L68.9676705,203.281963 L70.1903409,203.281963 Z M69.0808807,208.667815 C69.0920636,208.509605 69.0920636,208.350803 69.0808807,208.192593 C68.9024029,207.436883 68.2275566,206.902922 67.4506534,206.902704 C66.2959091,206.902704 65.6166477,207.921037 65.6166477,209.165667 C65.6166477,210.410296 66.227983,211.42863 67.4280114,211.42863 C68.2239554,211.425728 68.9110835,210.870682 69.0808807,210.093481 C69.0942178,209.935354 69.0942178,209.776386 69.0808807,209.618259 L69.0808807,208.667815 Z" id="Shape" fill="#0E2E51" fill-rule="nonzero"></path>
                    <path d="M77.2546591,206.155926 C77.2546591,206.608519 77.2546591,207.10637 77.2546591,207.853148 L77.2546591,211.42863 C77.3859152,212.44812 77.0631311,213.473845 76.3716193,214.234704 C75.7394563,214.760514 74.9275644,215.020177 74.1074148,214.958852 C73.3878777,214.985322 72.6749619,214.813063 72.0469886,214.461 L72.3186932,213.601074 C72.8631409,213.935082 73.4912848,214.107727 74.1300568,214.098926 C75.2848011,214.098926 76.1225568,213.487926 76.1225568,211.835963 L76.1225568,211.134444 C75.694029,211.802687 74.9465356,212.197697 74.1526989,212.175407 C73.4003298,212.141869 72.694952,211.800265 72.2023653,211.23089 C71.7097785,210.661515 71.4734264,209.914585 71.5488636,209.165667 C71.4672084,208.370137 71.7131145,207.575665 72.2299608,206.965182 C72.746807,206.354699 73.4900489,205.980819 74.2885511,205.92963 C75.0803131,205.889239 75.8263767,206.301543 76.213125,206.993222 L76.213125,206.065407 L77.2546591,206.155926 Z M76.0999148,208.599926 C76.1359465,208.428301 76.1359465,208.25107 76.0999148,208.079444 C75.9123673,207.374459 75.2673575,206.888631 74.5376136,206.902704 C73.4734375,206.902704 72.72625,207.807889 72.72625,209.165667 C72.72625,210.523444 73.3149432,211.42863 74.5376136,211.42863 C75.243779,211.430385 75.8684085,210.971351 76.0772727,210.297148 C76.1102371,210.094814 76.1102371,209.888482 76.0772727,209.686148 L76.0999148,208.599926 Z" id="Shape" fill="#0E2E51" fill-rule="nonzero"></path>
                    <path d="M79.7,209.437222 C79.6440391,210.012687 79.8469874,210.583227 80.2538509,210.99424 C80.6607144,211.405253 81.2293641,211.61418 81.8057102,211.564407 C82.3881857,211.584913 82.9680151,211.476737 83.5038636,211.247593 L83.707642,212.062259 C83.0551278,212.332486 82.3533342,212.463518 81.6472159,212.446963 C80.8144328,212.503284 79.9987426,212.192274 79.4150989,211.595891 C78.8314552,210.999507 78.5384079,210.177579 78.6131818,209.346704 C78.4971133,208.500002 78.7466654,207.643906 79.2995786,206.991999 C79.8524917,206.340092 80.6566268,205.953848 81.5113636,205.92963 C82.244231,205.944029 82.9370812,206.266494 83.419771,206.817837 C83.9024607,207.36918 84.1302762,208.098327 84.0472727,208.826222 C84.0472727,209.052519 84.0472727,209.233556 84.0472727,209.346704 L79.7,209.437222 Z M82.9604545,208.645185 C83.0327112,208.191717 82.9045325,207.729225 82.6091296,207.377541 C82.3137266,207.025857 81.8801705,206.81959 81.4207955,206.812185 C80.4623916,206.893054 79.7197667,207.684102 79.7,208.645185 L82.9604545,208.645185 Z" id="Shape" fill="#0E2E51" fill-rule="nonzero"></path>
                    <path d="M88.168125,212.311185 L88.168125,203.666667 L89.3907955,203.666667 L92.130483,208.192593 C92.706033,209.084576 93.2204315,210.014522 93.670142,210.976037 C93.5648196,209.802371 93.5194766,208.624099 93.5342898,207.445815 L93.5342898,203.666667 L94.5758239,203.666667 L94.5758239,212.220667 L93.4663636,212.220667 L90.7493182,207.875778 C90.1501384,206.962407 89.6130661,206.009816 89.141733,205.024444 C89.141733,206.110667 89.141733,207.129 89.141733,208.554667 L89.141733,212.220667 L88.168125,212.311185 Z" id="Path" fill="#0E2E51"></path>
                    <path d="M101.640142,210.636593 C101.640142,211.270222 101.640142,211.835963 101.640142,212.311185 L100.643892,212.311185 L100.643892,211.315481 C100.225996,212.039995 99.4423736,212.475102 98.606108,212.446963 C97.6325,212.446963 96.4777557,211.926481 96.4777557,209.754037 L96.4777557,206.155926 L97.609858,206.155926 L97.609858,209.573 C97.609858,210.727111 97.9494886,211.519148 98.9683807,211.519148 C99.6221481,211.515565 100.206632,211.111144 100.440114,210.500815 C100.476176,210.313957 100.476176,210.121932 100.440114,209.935074 L100.440114,206.155926 L101.549574,206.155926 L101.640142,210.636593 Z" id="Path" fill="#0E2E51"></path>
                    <path d="M103.49679,207.830519 C103.49679,207.196889 103.49679,206.676407 103.49679,206.155926 L104.470398,206.155926 L104.470398,207.15163 C104.82455,206.398791 105.585301,205.921371 106.417614,205.92963 C107.206019,205.926847 107.907986,206.427976 108.161051,207.174259 C108.325697,206.856695 108.557473,206.578716 108.840313,206.359593 C109.230269,206.064514 109.710015,205.912678 110.198835,205.92963 C111.013949,205.92963 112.213977,206.472741 112.213977,208.599926 L112.213977,212.220667 L111.127159,212.220667 L111.127159,208.826222 C111.127159,207.649481 110.69696,206.947963 109.791278,206.947963 C109.184122,206.961022 108.654211,207.362803 108.47804,207.943667 C108.452563,208.131387 108.452563,208.321687 108.47804,208.509407 L108.47804,212.311185 L107.391222,212.311185 L107.391222,208.622556 C107.391222,207.649481 106.938381,206.947963 106.100625,206.947963 C105.447023,206.975589 104.887378,207.424894 104.71946,208.056815 C104.685193,208.236232 104.685193,208.420509 104.71946,208.599926 L104.71946,212.311185 L103.61,212.311185 L103.49679,207.830519 Z" id="Path" fill="#0E2E51"></path>
                    <path d="M114.070625,212.311185 C114.070625,211.903852 114.070625,211.270222 114.070625,210.727111 L114.070625,203.281963 L115.180085,203.281963 L115.180085,207.15163 C115.605594,206.412247 116.410929,205.974805 117.263153,206.020148 C118.802813,206.020148 119.866989,207.287407 119.866989,209.165667 C119.968917,209.973539 119.728607,210.787245 119.204084,211.410312 C118.67956,212.033379 117.918498,212.409175 117.104659,212.446963 C116.255587,212.479127 115.459968,212.033475 115.044233,211.292852 L115.044233,212.311185 L114.070625,212.311185 Z M115.225369,209.844556 C115.214235,209.980105 115.214235,210.116339 115.225369,210.251889 C115.413599,211.023608 116.106128,211.566104 116.900881,211.564407 C118.078267,211.564407 118.78017,210.613963 118.78017,209.301444 C118.78017,207.988926 118.123551,207.038481 116.946165,207.038481 C116.125982,207.056064 115.420019,207.622381 115.225369,208.418889 C115.211865,208.569451 115.211865,208.720919 115.225369,208.871481 L115.225369,209.844556 Z" id="Shape" fill="#0E2E51" fill-rule="nonzero"></path>
                    <path d="M121.972699,209.437222 C121.92486,210.010698 122.130461,210.576385 122.535417,210.985471 C122.940373,211.394557 123.50414,211.606084 124.078409,211.564407 C124.660885,211.584913 125.240714,211.476737 125.776563,211.247593 L125.980341,212.062259 C125.328606,212.3351 124.62625,212.466237 123.919915,212.446963 C123.090939,212.496373 122.281568,212.182319 121.703115,211.586796 C121.124663,210.991273 120.83455,210.173397 120.908523,209.346704 C120.785329,208.502458 121.029216,207.645853 121.578679,206.992912 C122.128143,206.339971 122.930738,205.953016 123.784063,205.92963 C124.51693,205.944029 125.20978,206.266494 125.69247,206.817837 C126.17516,207.36918 126.402975,208.098327 126.319972,208.826222 C126.319972,209.052519 126.319972,209.233556 126.319972,209.346704 L121.972699,209.437222 Z M125.255795,208.645185 C125.255795,207.921037 124.961449,206.812185 123.693494,206.812185 C122.73509,206.893054 121.992466,207.684102 121.972699,208.645185 L125.255795,208.645185 Z" id="Shape" fill="#0E2E51" fill-rule="nonzero"></path>
                    <path d="M127.723778,208.192593 C127.723778,207.468444 127.723778,206.857444 127.723778,206.269074 L128.720028,206.269074 L128.720028,207.491074 C128.927589,206.715702 129.615744,206.16548 130.418182,206.133296 L130.73517,206.133296 L130.73517,207.174259 L130.350256,207.174259 C129.559715,207.195387 128.913747,207.811655 128.855881,208.599926 C128.843388,208.773195 128.843388,208.947138 128.855881,209.120407 L128.855881,212.401704 L127.769063,212.401704 L127.723778,208.192593 Z" id="Path" fill="#0E2E51"></path>
                    <rect id="Rectangle" fill="#96A1AB" x="212.020114" y="225.934222" width="17.7740057" height="3.75651852"></rect>
                    <rect id="Rectangle" fill="#96A1AB" x="212.020114" y="246.617704" width="17.7740057" height="3.75651852"></rect>
                    <rect id="Rectangle" fill="#96A1AB" x="212.020114" y="269.202074" width="17.7740057" height="3.75651852"></rect>
                    <rect id="Rectangle" fill="#96A1AB" x="212.020114" y="291.763815" width="17.7740057" height="3.75651852"></rect>
                    <rect id="Rectangle" fill="#96A1AB" x="212.020114" y="314.348185" width="17.7740057" height="3.75651852"></rect>
                    <rect id="Rectangle" fill="#96A1AB" x="212.020114" y="336.909926" width="17.7740057" height="3.75651852"></rect>
                    <rect id="Rectangle" fill="#96A1AB" x="212.020114" y="359.494296" width="17.7740057" height="3.75651852"></rect>
                    <path d="M46.801108,158.565815 C47.7996132,158.438752 48.8061659,158.385804 49.8125,158.407407 C51.0386255,158.315497 52.2556881,158.677999 53.2314489,159.425741 C53.9412939,160.048521 54.3460304,160.94836 54.3409091,161.89237 C54.3955878,162.860416 54.05204,163.808742 53.3899432,164.517407 C52.3874447,165.452072 51.0451519,165.934705 49.6766477,165.852556 C49.2510078,165.865041 48.8253873,165.82706 48.4086932,165.739407 L48.4086932,170.627407 L46.82375,170.627407 L46.801108,158.565815 Z M48.3860511,164.449519 C48.8087412,164.549336 49.2424268,164.594962 49.6766477,164.585296 C51.5785795,164.585296 52.7559659,163.657481 52.7559659,161.982889 C52.7559659,160.308296 51.6012216,159.584148 49.8577841,159.584148 C49.3633292,159.563047 48.8682861,159.608718 48.3860511,159.719926 L48.3860511,164.449519 Z" id="Shape" fill="#0E2E51" fill-rule="nonzero"></path>
                    <path d="M60.77125,170.627407 L60.6353977,169.518556 C59.9987306,170.361264 58.9973839,170.849048 57.9409943,170.831074 C57.2434707,170.875168 56.5590779,170.626973 56.0521487,170.146083 C55.5452194,169.665194 55.2615426,168.995048 55.269233,168.296556 C55.269233,166.192 57.1485227,165.037889 60.5448295,165.060519 L60.5448295,164.879481 C60.6176493,164.328335 60.4330666,163.774309 60.0441924,163.376815 C59.6553181,162.97932 59.1052751,162.782437 58.5523295,162.842815 C57.7511772,162.846584 56.9669949,163.073872 56.288125,163.499074 L55.9258523,162.435481 C56.7967736,161.923027 57.7907882,161.657059 58.801392,161.666074 C61.4957955,161.666074 62.1297727,163.499074 62.1297727,165.241556 L62.1297727,168.522852 C62.1201513,169.227677 62.1731912,169.931963 62.288267,170.627407 L60.77125,170.627407 Z M60.5221875,166.101481 C58.801392,166.101481 56.8315341,166.373037 56.8315341,168.070259 C56.7905135,168.481556 56.9330379,168.890004 57.2210736,169.186605 C57.5091092,169.483207 57.9133457,169.637779 58.3259091,169.609074 C59.2651258,169.60273 60.1029074,169.017505 60.4316193,168.138148 C60.4639665,167.973772 60.4639665,167.804672 60.4316193,167.640296 L60.5221875,166.101481 Z" id="Shape" fill="#0E2E51" fill-rule="nonzero"></path>
                    <path d="M66.4770455,159.357852 L66.4770455,161.869741 L68.74125,161.869741 L68.74125,163.069111 L66.4770455,163.069111 L66.4770455,167.798704 C66.4770455,168.884926 66.7940341,169.495926 67.6770739,169.495926 C67.9905225,169.506756 68.3037399,169.46858 68.6053977,169.382778 L68.6053977,170.582148 C68.1571693,170.75011 67.6799261,170.827042 67.2015909,170.808444 C66.5574391,170.837362 65.9315069,170.590419 65.4807955,170.129556 C64.999199,169.479073 64.780883,168.670938 64.8694602,167.866593 L64.8694602,163.069111 L63.5109375,163.069111 L63.5109375,161.869741 L64.8694602,161.869741 L64.8694602,159.765185 L66.4770455,159.357852 Z" id="Path" fill="#0E2E51"></path>
                    <path d="M72.4545455,159.403111 C72.3805274,159.88963 71.9619978,160.249134 71.4696165,160.249134 C70.9772352,160.249134 70.5587056,159.88963 70.4846875,159.403111 C70.4784239,159.137164 70.581373,158.88025 70.769581,158.692145 C70.9577891,158.50404 71.2148448,158.401147 71.4809375,158.407407 C71.7451023,158.400816 72.0001002,158.504376 72.1847912,158.693259 C72.3694822,158.882141 72.467211,159.139312 72.4545455,159.403111 Z M70.6658239,170.717926 L70.6658239,161.869741 L72.2734091,161.869741 L72.2734091,170.627407 L70.6658239,170.717926 Z" id="Shape" fill="#0E2E51" fill-rule="nonzero"></path>
                    <path d="M75.692358,166.531444 C75.6155101,167.352797 75.9071507,168.165906 76.4885984,168.751405 C77.0700462,169.336903 77.8813943,169.634466 78.70375,169.563815 C79.5350562,169.59643 80.3630567,169.441748 81.1264489,169.111222 L81.3981534,170.265333 C80.472347,170.64544 79.477968,170.830339 78.4773295,170.808444 C77.274405,170.883085 76.100114,170.421764 75.2700052,169.548445 C74.4398965,168.675125 74.0391093,167.479378 74.1753409,166.282519 C74.0347977,165.10006 74.3992234,163.91314 75.1791964,163.013002 C75.9591693,162.112865 77.0825009,161.582819 78.2735511,161.552926 C79.3174119,161.572053 80.3049914,162.029498 80.9943222,162.813182 C81.6836531,163.596865 82.0110432,164.634378 81.8962784,165.671519 C81.8962784,166.010963 81.8962784,166.259889 81.8962784,166.418296 L75.692358,166.531444 Z M80.3566193,165.399963 C80.4563077,164.74354 80.2625384,164.076479 79.8266353,163.575465 C79.3907321,163.074452 78.7566777,162.790037 78.0924148,162.797556 C76.7306452,162.90345 75.6773752,164.034848 75.6697159,165.399963 L80.3566193,165.399963 Z" id="Shape" fill="#0E2E51" fill-rule="nonzero"></path>
                    <path d="M83.7755682,164.245852 C83.7755682,163.340667 83.7755682,162.593889 83.7755682,161.982889 L85.179375,161.982889 L85.179375,163.431185 C85.7648241,162.262472 87.0002011,161.564598 88.3039773,161.666074 C89.5266477,161.666074 91.4059375,162.390222 91.4059375,165.399963 L91.4059375,170.627407 L89.7983523,170.627407 L89.7983523,165.581 C89.7983523,164.155333 89.2775852,162.978593 87.7832102,162.978593 C86.7435531,162.937236 85.809517,163.609373 85.5190057,164.607926 C85.4817761,164.855461 85.4817761,165.107168 85.5190057,165.354704 L85.5190057,170.627407 L83.7755682,170.627407 L83.7755682,164.245852 Z" id="Path" fill="#0E2E51"></path>
                    <path d="M95.7758523,159.357852 L95.7758523,161.869741 L98.0400568,161.869741 L98.0400568,163.069111 L95.7758523,163.069111 L95.7758523,167.798704 C95.7758523,168.884926 96.0701989,169.495926 96.9532386,169.495926 C97.2666873,169.506756 97.5799047,169.46858 97.8815625,169.382778 L97.8815625,170.582148 C97.433334,170.75011 96.9560909,170.827042 96.4777557,170.808444 C95.8336038,170.837362 95.2076717,170.590419 94.7569602,170.129556 C94.2753638,169.479073 94.0570478,168.670938 94.145625,167.866593 L94.145625,163.069111 L92.8323864,163.069111 L92.8323864,161.869741 L94.1909091,161.869741 L94.1909091,159.765185 L95.7758523,159.357852 Z" id="Path" fill="#0E2E51"></path>
                    <path d="M105.760994,170.627407 L101.889205,158.407407 L103.587358,158.407407 L105.48929,164.404259 C106.010057,166.056222 106.462898,167.549778 106.802528,168.930185 C107.164801,167.527148 107.662926,165.988333 108.206335,164.404259 L110.176193,158.407407 L111.851705,158.407407 L107.504432,170.627407 L105.760994,170.627407 Z" id="Path" fill="#0E2E51"></path>
                    <path d="M114.614034,159.403111 C114.540016,159.88963 114.121486,160.249134 113.629105,160.249134 C113.136724,160.249134 112.718194,159.88963 112.644176,159.403111 C112.637913,159.137164 112.740862,158.88025 112.92907,158.692145 C113.117278,158.50404 113.374333,158.401147 113.640426,158.407407 C113.904591,158.400816 114.159589,158.504376 114.34428,158.693259 C114.528971,158.882141 114.6267,159.139312 114.614034,159.403111 Z M112.847955,170.717926 L112.847955,161.869741 L114.432898,161.869741 L114.432898,170.627407 L112.847955,170.717926 Z" id="Shape" fill="#0E2E51" fill-rule="nonzero"></path>
                    <path d="M117.965057,166.531444 C117.896328,167.350795 118.190614,168.159047 118.770151,168.742621 C119.349688,169.326196 120.156157,169.626367 120.976449,169.563815 C121.807925,169.598788 122.636449,169.444009 123.399148,169.111222 L123.670852,170.265333 C122.745798,170.647982 121.75088,170.832981 120.750028,170.808444 C119.547104,170.883085 118.372813,170.421764 117.542704,169.548445 C116.712595,168.675125 116.311808,167.479378 116.44804,166.282519 C116.314638,165.1015 116.681616,163.918553 117.460115,163.020117 C118.238613,162.121681 119.357646,161.589677 120.54625,161.552926 C121.592527,161.565036 122.584486,162.020451 123.275343,162.805869 C123.9662,163.591288 124.291014,164.632882 124.168977,165.671519 C124.186265,165.920145 124.186265,166.16967 124.168977,166.418296 L117.965057,166.531444 Z M122.629318,165.399963 C122.729007,164.74354 122.535237,164.076479 122.099334,163.575465 C121.663431,163.074452 121.029377,162.790037 120.365114,162.797556 C119.004316,162.912902 117.949608,164.035354 117.919773,165.399963 L122.629318,165.399963 Z" id="Shape" fill="#0E2E51" fill-rule="nonzero"></path>
                    <path d="M126.795455,161.869741 L127.950199,166.395667 C128.199261,167.368741 128.425682,168.273926 128.606818,169.179111 C128.810597,168.273926 129.082301,167.346111 129.376648,166.395667 L130.803097,161.869741 L132.161619,161.869741 L133.520142,166.237259 C133.837131,167.300852 134.086193,168.206037 134.289972,169.111222 C134.467176,168.149734 134.693897,167.198025 134.969233,166.259889 L136.214545,161.869741 L137.799489,161.869741 L135.059801,170.627407 L133.588068,170.627407 L132.252187,166.440926 C131.937429,165.497599 131.672901,164.538267 131.459716,163.566963 C131.233295,164.607926 130.961591,165.513111 130.667244,166.463556 L129.240795,170.627407 L127.791705,170.627407 L125.165227,161.869741 L126.795455,161.869741 Z" id="Path" fill="#0E2E51"></path>
                    <polygon id="Path" fill="#F5874D" points="496.1325 605.976222 507.000682 593.710963 513.929148 578.707519 521.423665 598.893148 521.718011 600.907185 511.506449 600.861926 499.777869 606.677741"></polygon>
                    <path d="M462.961903,337.611444 L461.920369,324.825704 C461.920369,324.825704 454.878693,327.247074 453.316392,325.504593 C448.108722,319.711407 454.471136,299.616296 460.946761,295.248778 C465.112898,292.442704 477.815085,293.936259 480.826477,297.941704 C483.837869,301.947148 477.769801,307.559296 475.482955,316.973222 C473.21875,326.726593 474.645199,340.417519 474.645199,340.417519 L462.961903,337.611444 Z" id="Path" fill="#F16C57"></path>
                    <path d="M455.965511,300.498852 C453.818433,299.140653 451.925696,297.417446 450.372926,295.407185 C454.278258,293.741693 458.314762,292.401975 462.441136,291.401741 C469.573381,290.292889 482.569915,291.401741 484.562415,297.353333 C488.094574,307.717704 474.464062,320.593963 474.464062,320.593963 C474.464062,320.593963 466.788409,309.279148 464.524205,306.631481 C462.077144,304.073763 459.174729,301.994072 455.965511,300.498852 Z" id="Path" fill="#071930"></path>
                    <polygon id="Path" fill="#361828" points="480.645341 358.543852 489.679517 398.711444 493.800369 381.445037"></polygon>
                    <path d="M405.47375,375.312407 L404.59071,377.213296 C409.322898,379.476259 401.669886,381.739222 392.726278,369.813407 C391.548892,368.229333 391.75267,355.62463 391.75267,355.62463 L405.47375,375.312407 Z" id="Path" fill="#F5874D"></path>
                    <path d="M512.525341,443.767037 C512.525341,443.767037 517.348097,451.958963 517.416023,455.081852 C517.483949,458.204741 508.359205,465.966704 508.359205,465.966704 L508.744119,443.065519 L512.525341,443.767037 Z" id="Path" fill="#F5874D"></path>
                    <path d="M475.165966,440.440481 L485.875653,514.552519 L508.155426,590.81437 L518.16321,591.787444 C518.16321,591.787444 507.045966,551.054111 502.313778,538.245741 C499.664659,531.094778 492.056932,522.631296 490.313494,516.724963 C486.260568,503.147185 490.313494,459.675667 490.313494,459.675667 L471.11304,434.239963 L457.867443,418.172926 L475.165966,440.440481 Z" id="Path" fill="#F5874D"></path>
                    <path d="M501.294886,598.621593 C490.471989,603.441704 491.513523,610.321111 493.189034,610.140074 C502.381705,609.167 520.15571,602.604407 523.03125,600.861926 C527.084176,598.417926 517.868864,591.063296 517.868864,591.063296 L502.970398,603.419074 C502.970398,603.419074 504.917614,597.014889 501.294886,598.621593 Z" id="Path" fill="#E6E8EB"></path>
                    <path d="M457.188182,339.444444 C444.55392,339.218148 431.942301,384.364259 428.523352,383.210148 C424.674205,381.965519 404.296364,371.895333 404.296364,371.895333 L397.50375,379.521519 C397.50375,379.521519 421.051477,396.606889 434.387642,399.028259 C444.418068,400.861259 466.290284,364.925407 466.290284,364.925407 C466.290284,364.925407 464.161932,339.580222 457.188182,339.444444 Z" id="Path" fill="#FECE6E"></path>
                    <path d="M450.803125,594.389852 C450.803125,594.389852 459.859943,590.588074 461.761875,588.053556 C464.184574,584.772259 465.497813,572.212815 465.497813,572.212815 L472.426278,581.423074 L476.479205,595.272407 L465.520455,599.798333 L450.803125,594.389852 Z" id="Path" fill="#F5874D"></path>
                    <path d="M456.690057,591.085926 C442.267074,593.710963 440.387784,598.983667 441.678381,600.137778 C443.942585,602.016037 472.969688,600.680889 475.482955,599.36837 C479.30946,597.354333 475.030114,589.252926 475.030114,589.252926 L453.112614,595.589222 C453.112614,595.589222 460.833551,590.316519 456.690057,591.085926 Z" id="Path" fill="#E6E8EB"></path>
                    <path d="M459.792017,584.387556 L476.479205,584.387556 C476.479205,584.387556 471.271534,553.113407 469.188466,541.640185 C467.105398,530.166963 465.02233,511.42963 465.02233,511.42963 L469.188466,447.84037 C469.188466,447.84037 452.433352,433.312148 448.335142,440.55363 C441.814233,452.026852 446.252074,503.079296 446.252074,511.42963 C446.252074,519.779963 459.792017,584.387556 459.792017,584.387556 Z" id="Path" fill="#9592FA"></path>
                    <path d="M503.604375,589.59237 L517.189602,584.387556 C517.189602,584.387556 508.381847,548.587481 505.732727,540.599222 C502.087358,529.669111 495.294744,512.470593 495.294744,512.470593 L493.211676,444.717481 L465.24875,439.444778 C465.24875,439.444778 475.482955,513.511556 478.607557,519.757333 C481.732159,526.003111 503.604375,589.59237 503.604375,589.59237 Z" id="Path" fill="#9592FA"></path>
                    <path d="M462.26,347.251667 L461.920369,324.825704 C461.920369,324.825704 454.878693,327.247074 453.316392,325.504593 C448.108722,319.711407 454.471136,299.616296 460.946761,295.248778 C465.112898,292.442704 477.815085,293.936259 480.826477,297.941704 C483.837869,301.947148 477.769801,307.559296 475.482955,316.973222 C473.21875,326.726593 481.686875,349.356222 481.686875,349.356222 L462.26,347.251667 Z" id="Path" fill="#F5874D"></path>
                    <path d="M461.354318,337.362519 C440.976477,343.087815 443.919943,373.366259 443.761449,389.116481 C443.535028,412.560778 441.768949,444.423296 441.768949,444.423296 C440.750057,445.532148 485.626591,460.264037 495.611733,446.414704 C497.377812,443.993333 495.24946,344.58137 495.24946,344.58137 L478.041506,337.792481 C478.041506,337.792481 468.441278,345.916519 464.705341,345.169741 C459.633523,344.264556 462.622273,337.000444 461.354318,337.362519 Z" id="Path" fill="#FECE6E"></path>
                    <polygon id="Path" fill="#FDBF5D" points="480.645341 358.543852 496.607983 410.048889 497.151392 380.517222"></polygon>
                    <path d="M479.694375,348.654704 C476.162216,356.756111 491.807869,382.599148 496.743835,401.766444 C500.660909,416.905667 505.800653,446.075259 505.800653,446.075259 L515.265028,447.953519 C515.265028,447.953519 514.314063,413.081259 511.551733,396.539 C508.947898,381.015074 500.411847,348.473667 489.294602,341.300074 C485.422812,338.878704 481.483097,344.536111 479.694375,348.654704 Z" id="Path" fill="#FECE6E"></path>
                    <path d="M453.52017,310.501148 C453.52017,310.501148 447.859659,313.714556 448.810625,314.483963 C449.761591,315.25337 454.17679,317.833148 454.17679,317.833148 L453.52017,310.501148 Z" id="Path" fill="#F5874D"></path>
                    <path d="M455.965511,300.498852 C453.818433,299.140653 451.925696,297.417446 450.372926,295.407185 C454.278258,293.741693 458.314762,292.401975 462.441136,291.401741 C469.573381,290.292889 480.554773,292.714259 484.562415,297.353333 C489.090824,302.490259 490.04179,325.889296 497.332528,338.403481 C500.955256,344.604 493.91358,351.551296 485.875653,352.999593 C473.309318,355.262556 466.788409,309.166 464.524205,306.631481 C462.077144,304.073763 459.174729,301.994072 455.965511,300.498852 Z" id="Path" fill="#03162B"></path>
                    <ellipse id="Oval" fill="#001223" cx="454.674915" cy="310.342741" rx="1" ry="1"></ellipse>
                    <path d="M453.29375,309.777 C453.675545,309.434136 454.189109,309.27684 454.697557,309.347037 C455.497131,309.720362 456.255906,310.175377 456.961761,310.704815 L453.29375,309.777 Z" id="Path" fill="#001223"></path>
                    <path d="M453.225824,308.781296 C454.168814,308.75888 455.10924,308.888786 456.010795,309.166 C456.666177,309.450119 457.360887,309.633239 458.071222,309.709111 C457.521198,309.379743 456.991891,309.016989 456.486278,308.622889 C455.942869,308.125037 453.746591,308.079778 453.746591,308.079778 L453.225824,308.781296 Z" id="Path" fill="#516174"></path>
                    <polygon id="Path" fill="#FFFFFF" points="450.508778 319.009889 454.606989 319.57563 451.369176 320.933407"></polygon>
                </g>
            </g>
        </g>
    </g>
</svg>