<?xml version="1.0" encoding="UTF-8"?>
<svg viewBox="0 0 219 201" version="1.1" xmlns="http://www.w3.org/2000/svg" xmlns:xlink="http://www.w3.org/1999/xlink">
    <defs>
        <linearGradient x1="0%" y1="49.5535714%" x2="100%" y2="49.5535714%" id="linearGradient-1">
            <stop stop-color="#FBB767" offset="14%"></stop>
            <stop stop-color="#FCD3A2" offset="100%"></stop>
        </linearGradient>
        <linearGradient x1="0%" y1="50%" x2="100%" y2="50%" id="linearGradient-2">
            <stop stop-color="#FBB767" offset="14%"></stop>
            <stop stop-color="#FCD3A2" offset="100%"></stop>
        </linearGradient>
    </defs>
    <g id="Page-1" stroke="none" stroke-width="1" fill="none" fill-rule="evenodd">
        <g id="home_1" transform="translate(-832.000000, -1973.000000)">
            <g id="unlock" transform="translate(219.000000, 1753.000000)">
                <g id="2" transform="translate(601.000000, 180.000000)">
                    <g id="2341" transform="translate(12.000000, 40.000000)">
                        <rect id="Rectangle" fill="#B4BAC3" x="34.3415361" y="0" width="88.8306325" height="164.42831" rx="7"></rect>
                        <rect id="Rectangle" fill="#E6E8EB" x="34.3415361" y="3.10130282" width="89.717756" height="166.285141" rx="7"></rect>
                        <rect id="Rectangle" fill="#FFFFFF" x="36.1552108" y="6.51866197" width="86.0706928" height="160.694894" rx="7"></rect>
                        <rect id="Rectangle" fill="#E6E8EB" x="42.9762048" y="25.4425352" width="72.4484187" height="122.234789"></rect>
                        <rect id="Rectangle" fill="#E6E8EB" x="65.2725753" y="14.8941549" width="21.0543976" height="1.24447183" rx="0.31"></rect>
                        <rect id="Rectangle" fill="#E6E8EB" x="88.7912048" y="14.8941549" width="4.33704819" height="1.24447183" rx="0.31"></rect>
                        <ellipse id="Oval" fill="#42566E" cx="52.2614307" cy="1.85683099" rx="1" ry="1"></ellipse>
                        <ellipse id="Oval" fill="#42566E" cx="106.435105" cy="2.17288732" rx="1" ry="1"></ellipse>
                        <rect id="Rectangle" fill="#F4F4F4" x="54.8045181" y="98.0959859" width="49.7380572" height="32.1192254" rx="1"></rect>
                        <rect id="Rectangle" fill="url(#linearGradient-1)" x="57.1701807" y="103.429437" width="4.90875" height="4.42478873" rx="1.12"></rect>
                        <rect id="Rectangle" fill="#FDBF5D" x="63.7546084" y="103.429437" width="4.90875" height="4.42478873" rx="1.12"></rect>
                        <rect id="Rectangle" fill="#FFFFFF" x="57.0321837" y="103.429437" width="4.90875" height="4.42478873" rx="1.12"></rect>
                        <rect id="Rectangle" fill="#FFFFFF" x="70.4770331" y="103.429437" width="4.90875" height="4.42478873" rx="1.12"></rect>
                        <rect id="Rectangle" fill="#FCD3A2" opacity="0.2" x="63.6166114" y="109.888838" width="4.90875" height="4.42478873" rx="1.12"></rect>
                        <rect id="Rectangle" fill="#FCD3A2" opacity="0.2" x="70.6150301" y="109.888838" width="4.90875" height="4.42478873" rx="1.12"></rect>
                        <rect id="Rectangle" fill="#FFFFFF" x="51.4728765" y="96.278662" width="55.4353614" height="2.40992958" rx="0.61"></rect>
                        <rect id="Rectangle" fill="url(#linearGradient-2)" x="57.1701807" y="109.296232" width="4.90875" height="4.42478873" rx="1.12"></rect>
                        <rect id="Rectangle" fill="#FFFFFF" x="63.7546084" y="109.296232" width="4.90875" height="4.42478873" rx="1.12"></rect>
                        <rect id="Rectangle" fill="#FFFFFF" x="57.0321837" y="109.296232" width="4.90875" height="4.42478873" rx="1.12"></rect>
                        <rect id="Rectangle" fill="#FFFFFF" x="70.4770331" y="109.296232" width="4.90875" height="4.42478873" rx="1.12"></rect>
                        <rect id="Rectangle" fill="url(#linearGradient-1)" x="77.6528765" y="103.429437" width="4.90875" height="4.42478873" rx="1.12"></rect>
                        <rect id="Rectangle" fill="#FFFFFF" x="84.2373042" y="103.429437" width="4.90875" height="4.42478873" rx="1.12"></rect>
                        <rect id="Rectangle" fill="#F56148" x="77.5148795" y="103.429437" width="4.90875" height="4.42478873" rx="1.12"></rect>
                        <rect id="Rectangle" fill="#FFFFFF" x="90.9597289" y="103.429437" width="4.90875" height="4.42478873" rx="1.12"></rect>
                        <rect id="Rectangle" fill="url(#linearGradient-2)" x="77.6528765" y="109.296232" width="4.90875" height="4.42478873" rx="1.12"></rect>
                        <rect id="Rectangle" fill="#FFFFFF" x="84.2373042" y="109.296232" width="4.90875" height="4.42478873" rx="1.12"></rect>
                        <rect id="Rectangle" fill="#FFFFFF" x="77.5148795" y="109.296232" width="4.90875" height="4.42478873" rx="1.12"></rect>
                        <rect id="Rectangle" fill="#FFFFFF" x="90.9597289" y="109.296232" width="4.90875" height="4.42478873" rx="1.12"></rect>
                        <rect id="Rectangle" fill="#FFFFFF" x="97.9975753" y="103.429437" width="4.90875" height="4.42478873" rx="1.12"></rect>
                        <rect id="Rectangle" fill="#FFFFFF" x="97.9975753" y="109.296232" width="4.90875" height="4.42478873" rx="1.12"></rect>
                        <rect id="Rectangle" fill="url(#linearGradient-2)" x="57.1701807" y="115.163028" width="4.90875" height="4.42478873" rx="1.12"></rect>
                        <rect id="Rectangle" fill="#FFFFFF" x="63.7546084" y="115.163028" width="4.90875" height="4.42478873" rx="1.12"></rect>
                        <rect id="Rectangle" fill="#FDBF5D" x="57.0321837" y="115.163028" width="4.90875" height="4.42478873" rx="1.12"></rect>
                        <rect id="Rectangle" fill="#FFFFFF" x="70.4770331" y="115.163028" width="4.90875" height="4.42478873" rx="1.12"></rect>
                        <rect id="Rectangle" fill="#FFFFFF" x="84.2373042" y="115.163028" width="4.90875" height="4.42478873" rx="1.12"></rect>
                        <rect id="Rectangle" fill="#FFFFFF" x="77.5148795" y="115.163028" width="4.90875" height="4.42478873" rx="1.12"></rect>
                        <rect id="Rectangle" fill="#FFFFFF" x="90.9597289" y="115.163028" width="4.90875" height="4.42478873" rx="1.12"></rect>
                        <rect id="Rectangle" fill="#FFFFFF" x="97.9975753" y="115.163028" width="4.90875" height="4.42478873" rx="1.12"></rect>
                        <rect id="Rectangle" fill="url(#linearGradient-2)" x="57.1701807" y="121.029824" width="4.90875" height="4.42478873" rx="1.12"></rect>
                        <rect id="Rectangle" fill="#FFFFFF" x="63.7546084" y="121.029824" width="4.90875" height="4.42478873" rx="1.12"></rect>
                        <rect id="Rectangle" fill="#FFFFFF" x="57.0321837" y="121.029824" width="4.90875" height="4.42478873" rx="1.12"></rect>
                        <rect id="Rectangle" fill="#6366AD" x="70.4770331" y="121.029824" width="4.90875" height="4.42478873" rx="1.12"></rect>
                        <rect id="Rectangle" fill="#FFFFFF" x="84.2373042" y="121.029824" width="4.90875" height="4.42478873" rx="1.12"></rect>
                        <rect id="Rectangle" fill="#FFFFFF" x="77.5148795" y="121.029824" width="4.90875" height="4.42478873" rx="1.12"></rect>
                        <rect id="Rectangle" fill="#FFFFFF" x="90.9597289" y="121.029824" width="4.90875" height="4.42478873" rx="1.12"></rect>
                        <rect id="Rectangle" fill="#FFFFFF" x="97.9975753" y="121.029824" width="4.90875" height="4.42478873" rx="1.12"></rect>
                        <ellipse id="Oval" fill="#9592FA" cx="100.028102" cy="129.128768" rx="6.44643072" ry="6.45940141"></ellipse>
                        <ellipse id="Oval" fill="#FFFFFF" cx="100.166099" cy="126.758345" rx="1.47853916" ry="1.48151408"></ellipse>
                        <path d="M100.166099,128.615176 C98.5298494,128.615176 97.9581476,131.025106 97.9384337,132.151056 L102.393765,132.151056 C102.374051,131.025106 101.782636,128.615176 100.166099,128.615176 Z" id="Path" fill="#FFFFFF"></path>
                        <ellipse id="Oval" fill="#FFFFFF" cx="79.1905572" cy="57.4432394" rx="20.3644127" ry="20.4053873"></ellipse>
                        <path d="M79.2299849,49.541831 C77.7134167,49.5526857 76.4897203,50.7876654 76.489759,52.3073239 L76.489759,55.4678873 L73.3355422,55.4678873 C71.8112695,55.4678873 70.5756024,56.7060407 70.5756024,58.2333803 C70.5756024,59.7607199 71.8112695,60.9988732 73.3355422,60.9988732 L79.2496988,60.9988732 C80.7739714,60.9988732 82.0096386,59.7607199 82.0096386,58.2333803 L82.0096386,52.3073239 C82.0096573,51.5704342 81.7161742,50.86401 81.1943135,50.3448079 C80.6724528,49.8256058 79.9653762,49.5365675 79.2299849,49.541831 Z" id="Path" fill="#47ECBB"></path>
                        <path d="M79.4862651,66.8064085 C80.8875511,66.6081505 81.9249691,65.3996199 81.9110693,63.9816549 L81.9110693,60.9001056 L84.9864307,60.9001056 C86.3907408,60.9141232 87.5880679,59.8833639 87.7857982,58.4901761 C87.9132395,57.6936039 87.6846199,56.8811796 87.160653,56.2686548 C86.636686,55.6561301 85.8703971,55.3054924 85.0652861,55.3098592 L81.6350753,55.3098592 C78.7434467,55.3206908 76.4019997,57.6668491 76.3911898,60.5642958 L76.3911898,63.9816549 C76.3679566,64.7874221 76.6967462,65.563241 77.2915022,66.1060514 C77.8862582,66.6488618 78.6877745,66.9046287 79.4862651,66.8064085 Z" id="Path" fill="#21C4FC"></path>
                        <ellipse id="Oval" fill="#F4F4F4" cx="160.884774" cy="189.772077" rx="58.0178765" ry="8.07919014"></ellipse>
                        <path d="M189.667003,169.583979 L197.138554,187.184366 C196.416364,187.314602 195.673799,187.274017 194.97003,187.065845 C190.41613,185.090493 184.225979,167.608627 184.225979,167.608627 L189.667003,169.583979 Z" id="Path" fill="#FDBF5D"></path>
                        <path d="M163.861566,175.055704 C163.861566,175.055704 162.521024,192.359789 161.890181,196.448768 C160.766491,203.441514 159.386521,199.609331 158.420542,200.103169 L157.927696,166.522183 L163.861566,175.055704 Z" id="Path" fill="#FDBF5D"></path>
                        <path d="M119.170256,165.613521 C116.68631,167.095035 116.844021,177.623662 112.230979,188.488099 C112.014127,189.00169 110.259593,187.500423 110.259593,187.500423 L114.202364,161.129472 L119.170256,165.613521 Z" id="Path" fill="#E87C1A"></path>
                        <path d="M158.400828,177.544648 L109.254187,170.591408 C109.254187,170.591408 101.861491,141.415458 105.764834,132.783169 C106.908238,130.274472 110.732726,125.316338 116.68631,126.857113 C123.034172,128.397887 132.082831,130.254718 137.996988,128.931232 C140.807466,128.06546 143.071407,125.964193 144.147711,123.222465 C146.887937,114.629683 136.991581,120.377958 140.638645,112.140739 C141.74262,109.612289 147.341355,106.748028 150.061867,107.162852 C156.528012,108.170282 166.444081,112.318521 172.397666,112.634577 C178.35125,112.950634 186.611355,104.733169 192.643795,104.259085 C196.922836,103.876942 200.939561,106.372322 202.500723,110.382676 L202.185301,123.81507 L190.67241,147.697077 L158.400828,177.544648 Z" id="Path" fill="#B4BAC3"></path>
                        <polygon id="Path" fill="#F4F4F4" points="159.701943 155.558979 111.757846 150.383556 158.223404 140.032711 192.900075 141.514225"></polygon>
                        <path d="M161.279051,178.255775 L160.391928,199.905634" id="Path" stroke="#FECE6E"></path>
                        <path d="M113.827801,171.638345 L110.732726,187.500423" id="Path" stroke="#FECE6E"></path>
                        <polygon id="Path" fill="#FDDCA5" points="130.052304 100.466408 128.65262 105.602324 136.41988 111.567887 137.977274 108.170282"></polygon>
                        <path d="M132.240542,109.869085 C132.240542,109.869085 144.364563,125.079296 147.380783,125.671901 C149.864729,126.225 159.347093,108.881408 159.347093,108.881408 L157.927696,101.098521 L145.88253,113.661761 L136.025602,106.076408 L132.240542,109.869085 Z" id="Path" fill="#39E5C4"></path>
                        <polygon id="Path" fill="#FDDCA5" points="118.874548 175.3125 110.49616 186.986831 117.947997 188.389331 124.000151 175.3125"></polygon>
                        <path d="M112.487259,182.779331 C114.162937,182.779331 113.709518,185.209014 115.345768,185.663345 C117.084878,185.765596 118.82905,185.585492 120.510798,185.13 C120.510798,185.13 122.600467,190.522711 121.200783,191.056056 C117.435437,192.221514 104.424292,190.937535 104.424292,190.937535 C104.424292,190.937535 97.4061596,191.569648 97.4455873,189.416514 C97.4455873,186.5325 107.460226,186.394225 107.460226,186.394225 C107.460226,186.394225 111.146717,182.739824 112.487259,182.779331 Z" id="Path" fill="#6366AD"></path>
                        <polygon id="Path" fill="#FDDCA5" points="140.678072 178.236021 143.024021 186.176937 148.149623 185.485563 145.823389 172.882817"></polygon>
                        <polygon id="Path" fill="#FAB92A" points="116.449744 180.468169 120.05738 183.628732 127.6275 171.025986"></polygon>
                        <polygon id="Path" fill="#FAB92A" points="141.525768 180.942254 147.459639 181.65338 144.660271 173.23838 140.224654 175.134718"></polygon>
                        <polygon id="Path" fill="#47ECBB" points="158.045979 126.185493 127.844352 138.709225 114.300934 180.448415 121.33878 181.475599 138.509548 153.307077 166.365226 130.09669"></polygon>
                        <polygon id="Path" fill="#39E5C4" points="128.889187 149.73169 121.831627 180.389155 139.298102 150.956408"></polygon>
                        <polygon id="Path" fill="#56FCC5" points="140.678072 178.236021 130.170587 142.877218 162.442169 128.239859 176.774142 131.657218 173.619925 146.452606 146.414804 153.20831 148.839608 179.875563"></polygon>
                        <path d="M168.494322,86.461162 L165.458389,66.3915845 C165.458389,66.3915845 150.357575,64.7322887 151.520693,73.838662 C151.796687,75.9917958 152.269819,77.6115845 152.506386,79.7647183 C152.413161,80.9144376 152.208486,82.0523366 151.895256,83.1623239 L153.768072,83.1623239 L155.463464,87.3895775 L159.879367,86.915493 L162.974443,95.6465493 L168.494322,86.461162 Z" id="Path" fill="#FDDCA5"></path>
                        <path d="M150.318148,73.8584155 C150.318148,73.8584155 150.436431,68.4261972 152.289533,67.4977817 C154.142636,66.5693662 166.976355,58.6086972 171.03741,71.9225704 C173.265075,79.1918662 167.567771,83.241338 167.567771,89.5624648 C167.567771,90.3130986 168.711175,88.1007042 168.711175,88.1007042 L166.404654,80.1992958 C166.404654,80.1992958 166.404654,76.5844014 165.576672,76.1300704 C164.74869,75.6757394 163.841852,78.1054225 163.841852,78.1054225 C163.841852,78.1054225 161.870467,73.2658099 157.769985,74.3522535 C155.2951,74.9666993 152.690717,74.7941052 150.318148,73.8584155 Z" id="Path" fill="#0E2E51"></path>
                        <path d="M136.873298,137.642535 L151.796687,124.269401 L155.246611,100.565176 L160.194789,89.8587676 L161.12134,92.0119014 L169.223735,84.643838 L171.510542,87.6266197 C171.510542,87.6266197 180.736627,91.9131338 182.116596,95.5280282 C185.310241,104.002289 176.754428,132.388099 176.754428,132.388099 L172.989081,151.410739 L136.873298,137.642535 Z" id="Path" fill="#47ECBB"></path>
                        <path d="M147.991913,103.745493 L151.244699,106.530739 L160.569352,107.478908 L161.338193,104.693662 C160.279188,103.479139 159.13978,102.337438 157.927696,101.276303 C155.574271,99.9252661 153.138047,98.7244963 150.633569,97.681162 L152.959804,100.742958 C152.959804,100.742958 150.397003,98.9058803 149.549307,99.2811972 C148.701611,99.6565141 147.991913,103.745493 147.991913,103.745493 Z" id="Path" fill="#FDDCA5"></path>
                        <polygon id="Path" fill="#39E5C4" points="144.24628 178.611338 148.839608 179.875563 146.316235 152.53669"></polygon>
                        <polygon id="Path" fill="#39E5C4" points="163.270151 114.491408 177.247274 128.496655 180.677485 126.442289 184.068268 111.567887 182.13631 95.5872887 177.247274 118.343345"></polygon>
                        <polygon id="Path" fill="#FAB92A" points="155.44375 87.3895775 162.205602 84.7030986 159.879367 86.9352465"></polygon>
                        <polygon id="Path" fill="#FAB92A" points="151.895256 83.1623239 154.67491 82.9252817 153.984925 83.4783803"></polygon>
                        <path d="M161.653614,99.0639085 L156.764578,109.809824 C156.764578,109.809824 172.83137,122.649613 176.340437,124.052113 C179.849503,125.454613 180.519774,121.484155 180.519774,121.484155 L182.629157,115.874155 C182.629157,115.874155 185.546807,98.9058803 182.629157,94.4020775 C181.446325,92.5847535 174.743614,90.9057042 174.743614,90.9057042 L171.510542,110.264155 L161.653614,99.0639085 Z" id="Path" fill="#56FCC5"></path>
                        <polygon id="Path" fill="#39E5C4" points="171.530256 110.264155 173.757922 111.350599 174.783042 90.9057042"></polygon>
                        <path d="M141.644051,183.826268 C139.889518,184.932465 138.134985,192.47831 138.134985,192.47831 C138.134985,192.47831 132.575678,197.219155 133.699367,198.779683 C134.823057,200.340211 140.658358,197.7525 142.314322,196.211725 C144.059794,194.36182 145.6613,192.380674 147.104789,190.285669 C147.104789,190.285669 152.486672,185.110246 152.309247,183.510211 C152.131822,181.910176 147.361069,180.389155 147.361069,180.389155 C146.944729,181.451267 146.329062,182.423564 145.547395,183.253415 C144.265994,184.320106 143.024021,182.957113 141.644051,183.826268 Z" id="Path" fill="#6366AD"></path>
                        <path d="M158.400828,177.544648 C158.400828,177.544648 147.853916,144.85257 154.93119,137.761056 C159.563946,133.059718 174.645045,140.467289 181.229473,139.736408 C194.634895,138.254894 198.203102,128.437394 199.937922,122.35331 C202.343012,113.99757 202.02759,115.814894 202.402154,109.770317 C202.402154,108.545599 207.133479,152.556444 193.156355,168.596303 C187.281627,175.371761 158.400828,177.544648 158.400828,177.544648 Z" id="Path" fill="#E6E8EB"></path>
                        <path d="M196.86256,136.417817 C194.228634,139.494335 190.68714,141.65256 186.749352,142.580915 C177.266988,144.042676 161.712756,136.872148 158.20369,139.953697 C153.630075,143.904401 158.637395,164.606092 158.637395,164.606092" id="Path" stroke="#FFFFFF"></path>
                        <polygon id="Path" fill="#B4BAC3" points="124.059292 94.9749296 132.615105 105.503556 140.97378 106.965317 131.76741 95.7650704"></polygon>
                        <ellipse id="Oval" fill="#001223" cx="153.728645" cy="77.9078873" rx="1" ry="1"></ellipse>
                        <path d="M152.624669,77.7498592 C152.833182,77.4303953 153.172742,77.2204579 153.55122,77.177007 C154.226327,77.2796862 154.887665,77.4586068 155.522605,77.7103521 L152.624669,77.7498592 Z" id="Path" fill="#001223"></path>
                        <path d="M152.388102,77.0387324 C153.066067,76.8408682 153.77282,76.7606974 154.477771,76.8016901 C155.007387,76.8770663 155.544977,76.8770663 156.074593,76.8016901 C155.611543,76.6650436 155.157275,76.5001225 154.714337,76.3078521 C154.017169,76.2006045 153.305306,76.2409797 152.624669,76.4263732 L152.388102,77.0387324 Z" id="Path" fill="#516174"></path>
                        <polygon id="Path" fill="#FFFFFF" points="153.610361 84.4660563 156.685723 84.0907394 154.596054 85.6907746"></polygon>
                        <g id="Group" opacity="0.31" transform="translate(137.996988, 33.580986)" fill="#21C4FC">
                            <path d="M3.94277108,0.35556338 C3.42456296,0.366056486 3.00697806,0.784481595 2.99650602,1.30373239 L2.99650602,2.39017606 L1.97138554,2.39017606 C1.72219479,2.39011953 1.48348533,2.49064139 1.3091453,2.66904903 C1.13480527,2.84745667 1.0395324,3.08870945 1.04483434,3.33834507 C1.04472256,3.85438613 1.45649247,4.27576324 1.97138554,4.28651408 L3.94277108,4.28651408 C4.46537885,4.28651408 4.88903614,3.86200436 4.88903614,3.33834507 L4.88903614,1.36299296 C4.90538394,1.10142231 4.81295318,0.844737893 4.63369139,0.653889011 C4.4544296,0.46304013 4.20432737,0.355050967 3.94277108,0.35556338 Z" id="Path"></path>
                            <path d="M4.12019578,6.2618662 C4.59179666,6.19368466 4.94333714,5.79111575 4.94817771,5.31369718 L4.94817771,4.24700704 L5.91415663,4.24700704 C6.45853971,4.24700704 6.8998494,3.80480941 6.8998494,3.25933099 C6.8998494,2.71385256 6.45853971,2.27165493 5.91415663,2.27165493 L4.75103916,2.27165493 C3.76026194,2.27165493 2.95707831,3.07645462 2.95707831,4.06922535 L2.95707831,5.25443662 C2.92962106,5.55862163 3.0500811,5.85743442 3.28068297,6.05716931 C3.51128484,6.2569042 3.82378882,6.33310148 4.12019578,6.2618662 Z" id="Path"></path>
                        </g>
                        <g id="Group" opacity="0.31" transform="translate(0.000000, 55.309859)" fill="#21C4FC">
                            <path d="M2.97679217,1.61978873 C2.71423666,1.59723442 2.45451749,1.68776923 2.26262326,1.86873896 C2.07072902,2.0497087 1.96481567,2.30399101 1.97138554,2.56795775 L1.97138554,3.63464789 L0.94626506,3.63464789 C0.428056933,3.64514099 0.0104720357,4.0635661 -1.08801856e-16,4.5828169 C-4.04235089e-17,5.10647619 0.423657298,5.53098592 0.94626506,5.53098592 L2.9176506,5.53098592 C3.18343661,5.55957831 3.44859588,5.47175628 3.64501868,5.29007812 C3.84144147,5.10839996 3.94998598,4.85057056 3.94277108,4.5828169 L3.94277108,2.60746479 C3.95984477,2.34411845 3.86426492,2.0859353 3.67992365,1.89745349 C3.49558239,1.70897168 3.23990096,1.60800376 2.97679217,1.61978873 Z" id="Path"></path>
                            <path d="M3.05564759,7.52609155 C3.55812665,7.48485551 3.9444535,7.06334208 3.94277108,6.55816901 L3.94277108,5.51123239 L4.92846386,5.51123239 C5.41985155,5.52630488 5.84415568,5.16917227 5.91415663,4.68158451 C5.94786076,4.41371138 5.8659971,4.14414481 5.68909561,3.94048734 C5.51219413,3.73682988 5.25703419,3.61839874 4.98760542,3.61489437 L3.8047741,3.61489437 C2.81399688,3.61489437 2.01081325,4.41969406 2.01081325,5.41246479 L2.01081325,6.57792254 C2.00934933,6.84747922 2.12245768,7.10491866 2.32185603,7.2858692 C2.52125438,7.46681974 2.78809212,7.55417478 3.05564759,7.52609155 Z" id="Path"></path>
                        </g>
                        <g id="Group" opacity="0.31" transform="translate(185.310241, 47.408451)" fill="#21C4FC">
                            <path d="M2.75993976,0.730880282 C2.36146435,0.741256324 2.04088232,1.06248339 2.03052711,1.46176056 L2.03052711,2.29140845 L1.20254518,2.29140845 C0.799701731,2.2914085 0.473132617,2.61863473 0.473132617,3.02228873 C0.473132617,3.42594273 0.799701731,3.75316897 1.20254518,3.75316901 L2.75993976,3.75316901 C3.15506405,3.74246461 3.46978294,3.4183527 3.46963855,3.02228873 L3.46963855,1.46176056 C3.46978294,1.0656966 3.15506405,0.741584688 2.75993976,0.730880282 Z" id="Path"></path>
                            <path d="M2.81908133,5.27419014 C3.19066193,5.22365933 3.4634659,4.8990528 3.4499247,4.52355634 L3.4499247,3.71366197 L4.25819277,3.71366197 C4.62981494,3.71832869 4.94866667,3.44928172 5.00731928,3.0815493 C5.02980142,2.87442562 4.96299747,2.6675328 4.8236939,2.51285879 C4.68439034,2.35818479 4.48582984,2.27043346 4.27790663,2.27165493 L3.39078313,2.27165493 C2.62864681,2.27165493 2.01081325,2.89073162 2.01081325,3.65440141 L2.01081325,4.54330986 C2.00959424,4.75165143 2.09716936,4.95061144 2.25153277,5.0901953 C2.40589618,5.22977916 2.61237356,5.29671752 2.81908133,5.27419014 Z" id="Path"></path>
                        </g>
                        <g id="Group" opacity="0.31" transform="translate(128.140060, 0.000000)" fill="#21C4FC">
                            <path d="M4.23847892,0.612359155 C3.84321026,0.612214475 3.51974918,0.927566602 3.50906627,1.32348592 L3.50906627,2.1531338 L2.68108434,2.1531338 C2.27824085,2.1531338 1.95167169,2.48036005 1.95167169,2.88401408 C1.95167169,3.28766812 2.27824085,3.61489437 2.68108434,3.61489437 L4.23847892,3.61489437 C4.63695433,3.60451832 4.95753636,3.28329126 4.96789157,2.88401408 L4.96789157,1.32348592 C4.95720866,0.927566602 4.63374757,0.612214475 4.23847892,0.612359155 Z" id="Path"></path>
                            <path d="M4.29762048,5.13591549 C4.66506202,5.08710458 4.94163854,4.77637969 4.94817771,4.40503521 L4.94817771,3.59514085 L5.75644578,3.59514085 C6.12704459,3.58858852 6.43714553,3.31145551 6.48585843,2.94327465 C6.50801468,2.73954679 6.44379265,2.53585714 6.30884852,2.38186153 C6.17390439,2.22786593 5.98063635,2.13771296 5.77615964,2.13338028 L4.86932229,2.13338028 C4.11161955,2.1440004 3.4999512,2.75689947 3.48935241,3.51612676 L3.48935241,4.42478873 C3.49367639,4.62967686 3.58364833,4.82333377 3.7373347,4.95854942 C3.89102108,5.09376507 4.09430171,5.15811632 4.29762048,5.13591549 Z" id="Path"></path>
                        </g>
                    </g>
                </g>
            </g>
        </g>
    </g>
</svg>