<?xml version="1.0" encoding="UTF-8"?>
<svg viewBox="0 0 61 49" version="1.1" xmlns="http://www.w3.org/2000/svg" xmlns:xlink="http://www.w3.org/1999/xlink">
    <g id="Page-1" stroke="none" stroke-width="1" fill="none" fill-rule="evenodd">
        <g id="home_1" transform="translate(-369.000000, -989.000000)">
            <g id="ach" transform="translate(0.000000, 662.000000)">
                <g id="1" transform="translate(231.000000, 289.000000)">
                    <g id="1noun_improvement_2040768" transform="translate(138.000000, 38.000000)">
                        <g id="2noun_upgrade_411200" transform="translate(44.866667, 35.511111) scale(-1, 1) translate(-44.866667, -35.511111) translate(28.866667, 22.711111)" fill="#00C3FF" opacity="0.145042783">
                            <circle id="Oval" cx="12.8" cy="7.11111111" r="7.11111111"></circle>
                            <path d="M19.3560851,19.9004873 C19.356118,18.2110136 20.0254803,16.5878338 21.2225236,15.3744401 C21.1012849,15.2820079 20.9784509,15.1927089 20.8540216,15.10341 C20.5271159,14.8748757 20.0837638,14.8942557 19.7788255,15.1504094 C15.9733248,18.3641012 10.3462275,18.3594377 6.5462552,15.1394429 C6.24131689,14.8832892 5.79796479,14.8639092 5.47105902,15.0924434 C2.39233416,17.2624969 0.403799743,20.6204798 0.00574428239,24.321569 C-0.0273257093,24.6503914 0.0834612555,24.9775223 0.310480633,25.2213921 C0.53750001,25.4652618 0.859357407,25.6028881 1.19579822,25.599954 L22.7555556,25.6 C20.7264019,24.3466353 19.3560851,22.347592 19.3560851,19.9004873 Z" id="Path"></path>
                            <path d="M31.8690901,19.0969611 L29.0172651,21.0731681 C28.9821946,21.101147 28.9678536,21.14743 28.9810464,21.1900573 L30.0833532,24.4878918 C30.1282452,24.613648 30.0841036,24.7536453 29.9749136,24.8318135 C29.8657236,24.9099817 29.7175623,24.9076524 29.610936,24.8260912 L26.724467,22.7205268 C26.6911978,22.6963613 26.6459309,22.6963613 26.6126616,22.7205268 L23.7246179,24.7855696 C23.6184622,24.8698756 23.468475,24.8735878 23.3581942,24.7946387 C23.2479135,24.7156897 23.2045274,24.5735431 23.2522008,24.4473702 L24.3545075,21.200967 C24.3674729,21.1616003 24.3527372,21.1184821 24.3182889,21.0949874 L21.4648891,19.0969611 C21.355194,19.0150605 21.3081012,18.874557 21.3465888,18.7440065 C21.3850764,18.613456 21.5011242,18.5200634 21.6381087,18.5093979 L25.184387,18.5093979 C25.2253299,18.5093979 25.2615485,18.5249831 25.2741463,18.4860201 L26.376453,15.1367544 C26.4186565,15.0131754 26.5368839,14.9308941 26.6686629,14.9333885 C26.8004419,14.935883 26.9154038,15.0225783 26.952802,15.147664 L28.0551088,18.4813445 C28.0677065,18.5203076 28.1039252,18.5093979 28.144868,18.5093979 L31.6879969,18.5093979 C31.8263599,18.5171573 31.9451578,18.6094798 31.9855924,18.7406711 C32.0260269,18.8718624 31.9795201,19.0140907 31.8690901,19.0969611 Z" id="Path"></path>
                        </g>
                        <g transform="translate(9.666667, 0.666667)">
                            <path d="M2.13333333,0.711111111 L2.13333333,2.13333333 L0.711111111,2.13333333 C0.318375289,2.13333333 -4.80962667e-17,2.45170862 0,2.84444444 L0,2.84444444 C2.22506008e-16,3.23718027 0.318375289,3.55555556 0.711111111,3.55555556 L2.13333333,3.55555556 L2.13333333,4.97777778 C2.13333333,5.3705136 2.45170862,5.68888889 2.84444444,5.68888889 L2.84444444,5.68888889 C3.23718027,5.68888889 3.55555556,5.3705136 3.55555556,4.97777778 L3.55555556,3.55555556 L4.97777778,3.55555556 C5.3705136,3.55555556 5.68888889,3.23718027 5.68888889,2.84444444 L5.68888889,2.84444444 C5.68888889,2.45170862 5.3705136,2.13333333 4.97777778,2.13333333 L3.55555556,2.13333333 L3.55555556,0.711111111 C3.55555556,0.318375289 3.23718027,-7.21444001e-17 2.84444444,0 L2.84444444,0 C2.45170862,7.21444001e-17 2.13333333,0.318375289 2.13333333,0.711111111 Z" id="Path" fill="#00C3FF"></path>
                            <path d="M13.5111111,3.55555556 L13.5111111,3.55555556 C13.1183753,3.55555556 12.8,3.87393084 12.8,4.26666667 L12.8,5.68888889 L11.3777778,5.68888889 C10.985042,5.68888889 10.6666667,6.00726418 10.6666667,6.4 L10.6666667,6.4 C10.6666667,6.79273582 10.985042,7.11111111 11.3777778,7.11111111 L12.8,7.11111111 L12.8,8.53333333 C12.8,8.92606916 13.1183753,9.24444444 13.5111111,9.24444444 L13.5111111,9.24444444 C13.9038469,9.24444444 14.2222222,8.92606916 14.2222222,8.53333333 L14.2222222,7.11111111 L15.6444444,7.11111111 C16.0371803,7.11111111 16.3555556,6.79273582 16.3555556,6.4 L16.3555556,6.4 C16.3555556,6.00726418 16.0371803,5.68888889 15.6444444,5.68888889 L14.2222222,5.68888889 L14.2222222,4.26666667 C14.2222222,3.87393084 13.9038469,3.55555556 13.5111111,3.55555556 Z" id="Path" fill="#3BEDBA"></path>
                            <path d="M24.1777778,28.4444444 L23.1967858,28.4444444 C24.0938842,27.6665752 24.4134264,26.4133002 23.9982931,25.3008568 C23.5831598,24.1884134 22.5206969,23.4508648 21.3333191,23.4508648 C20.1459413,23.4508648 19.0834784,24.1884134 18.6683451,25.3008568 C18.2532118,26.4133002 18.5727541,27.6665752 19.4698524,28.4444444 L18.4888889,28.4444444 C17.3106814,28.4444444 16.3555556,29.3995703 16.3555556,30.5777778 L16.3555556,34.8444444 L17.7777778,35.5555556 L17.7777778,41.6666667 C17.7777778,42.2189514 18.225493,42.6666667 18.7777778,42.6666667 L23.8888889,42.6666667 C24.4411736,42.6666667 24.8888889,42.2189514 24.8888889,41.6666667 L24.8888889,35.5555556 L26.3111111,34.8444444 L26.3111111,30.5777778 C26.3111111,29.3995703 25.3559852,28.4444444 24.1777778,28.4444444 Z M22.0444444,31.7284693 L22.0444444,33.4222222 C22.0444444,33.814958 21.7260692,34.1333333 21.3333333,34.1333333 L21.3333333,34.1333333 C20.9405975,34.1333333 20.6222222,33.814958 20.6222222,33.4222222 L20.6222222,31.7284693 L20.229165,31.5319421 C19.8778523,31.3562869 19.7354537,30.9290951 19.9111088,30.5777824 C19.9111096,30.5777808 19.9111103,30.5777793 19.9111111,30.5777778 L19.9111111,30.5777778 C20.0867702,30.2264636 20.5139661,30.0840666 20.8652806,30.259725 L21.3333333,30.4937529 L21.8013861,30.259725 C22.1527006,30.0840666 22.5798965,30.2264636 22.7555556,30.5777778 L22.7555556,30.5777778 C22.9312132,30.9290892 22.7888177,31.3562821 22.4375063,31.5319398 C22.4375048,31.5319405 22.4375032,31.5319413 22.4375017,31.5319421 L22.0444444,31.7284693 Z" id="Shape" fill="#3BEDBA" fill-rule="nonzero"></path>
                            <path d="M3.55555556,26.3111111 L2.13504161,26.3111111 C1.58275686,26.3111111 1.13504161,25.8633959 1.13504161,25.3111111 C1.13504161,25.0771746 1.21705783,24.8506417 1.36682033,24.6709267 L6.34288983,18.6996433 C6.69645391,18.2753664 7.32701861,18.2180424 7.75129551,18.5716064 C7.79775858,18.6103257 7.84061317,18.6531802 7.87933239,18.6996433 L12.8554019,24.6709267 C13.208966,25.0952036 13.1516419,25.7257683 12.727365,26.0793324 C12.54765,26.2290949 12.3211171,26.3111111 12.0871806,26.3111111 L10.6666667,26.3111111 L10.6666667,41.6666667 C10.6666667,42.2189514 10.2189514,42.6666667 9.66666667,42.6666667 L4.55555556,42.6666667 C4.00327081,42.6666667 3.55555556,42.2189514 3.55555556,41.6666667 L3.55555556,26.3111111 Z" id="Path" fill="#00C3FF"></path>
                            <path d="M17.7777778,21.0444444 L17.7777778,17.7777778 L16.3572638,17.7777778 C15.8049791,17.7777778 15.3572638,17.3300625 15.3572638,16.7777778 C15.3572638,16.5438413 15.4392801,16.3173084 15.5890426,16.1375934 L20.5651121,10.16631 C20.9186761,9.74203308 21.5492408,9.68470902 21.9735177,10.0382731 C22.0199808,10.0769923 22.0628354,10.1198469 22.1015546,10.16631 L27.0776241,16.1375934 C27.4311882,16.5618703 27.3738641,17.192435 26.9495872,17.5459991 C26.7698722,17.6957616 26.5433393,17.7777778 26.3094028,17.7777778 L24.8888889,17.7777778 L24.8888889,21.0444444 C24.8888889,21.5967292 24.4411736,22.0444444 23.8888889,22.0444444 L18.7777778,22.0444444 C18.225493,22.0444444 17.7777778,21.5967292 17.7777778,21.0444444 Z" id="Path" fill="#00C3FF"></path>
                            <path d="M32,9.95555556 L30.5794861,9.95555556 C30.0272013,9.95555556 29.5794861,9.50784031 29.5794861,8.95555556 C29.5794861,8.72161905 29.6615023,8.49508616 29.8112648,8.31537116 L34.7873343,2.34408776 C35.1408984,1.91981086 35.7714631,1.8624868 36.19574,2.21605088 C36.242203,2.2547701 36.2850576,2.29762469 36.3237768,2.34408776 L41.2998463,8.31537116 C41.6534104,8.73964805 41.5960864,9.37021275 41.1718095,9.72377684 C40.9920945,9.87353934 40.7655616,9.95555556 40.5316251,9.95555556 L39.1111111,9.95555556 L39.1111111,41.6666667 C39.1111111,42.2189514 38.6633959,42.6666667 38.1111111,42.6666667 L33,42.6666667 C32.4477153,42.6666667 32,42.2189514 32,41.6666667 L32,9.95555556 Z" id="Path" fill="#00C3FF"></path>
                            <rect id="Rectangle" fill="#00C3FF" x="0.711111111" y="14.2222222" width="1.42222222" height="1.42222222" rx="0.711111111"></rect>
                            <rect id="Rectangle" fill="#00C3FF" x="24.1777778" y="0.711111111" width="1.42222222" height="1.42222222" rx="0.711111111"></rect>
                            <rect id="Rectangle" fill="#3BEDBA" x="41.2444444" y="40.5333333" width="1.42222222" height="1.42222222" rx="0.711111111"></rect>
                        </g>
                        <circle id="Oval" fill="#3BEDBA" opacity="0.153157552" cx="13.9333333" cy="22" r="13.5111111"></circle>
                    </g>
                </g>
            </g>
        </g>
    </g>
</svg>