<?xml version="1.0" encoding="UTF-8"?>
<svg viewBox="0 0 61 60" version="1.1" xmlns="http://www.w3.org/2000/svg" xmlns:xlink="http://www.w3.org/1999/xlink">
    <g id="Page-1" stroke="none" stroke-width="1" fill="none" fill-rule="evenodd">
        <g id="home_1" transform="translate(-769.000000, -980.000000)">
            <g id="ach" transform="translate(0.000000, 662.000000)">
                <g id="2" transform="translate(633.000000, 289.000000)">
                    <g id="1n1oun_activity_2040761" transform="translate(136.000000, 29.000000)">
                        <g transform="translate(6.822222, 5.688889)">
                            <g id="Group-2" transform="translate(2.844444, 0.000000)">
                                <path d="M24.1051332,37.688647 C15.6195708,37.6561303 8.20707297,31.9040388 6.0127894,23.6490048 L4.86626605,25.4421734 C4.61427505,25.8362887 4.09050242,25.9515032 3.69638714,25.6995122 C3.69494237,25.6985884 3.69350041,25.6976603 3.69206128,25.6967278 L3.69206128,25.6967278 C3.29639432,25.4403458 3.18199011,24.9125914 3.43597424,24.515381 L5.71543048,20.9504975 C5.90774265,20.6497414 6.26536751,20.5009814 6.6123735,20.5773992 C6.95937948,20.6538169 7.22270969,20.9393239 7.27282029,21.2934664 C8.47968643,29.7207564 15.6504994,35.9755327 24.1051332,35.9755327 C32.559767,35.9755327 39.7305799,29.7207564 40.9374461,21.2934664 L42.6219243,21.5343669 C41.2662867,30.7900171 33.3951121,37.6569283 24.1051332,37.688647 Z" id="Path" fill="#00C3FF" transform="translate(22.799415, 29.123111) scale(-1, 1) translate(-22.799415, -29.123111) "></path>
                                <path d="M35.7743763,16.3955225 C34.5675102,7.96823245 27.3966972,1.71345615 18.9420634,1.71345615 C10.4874296,1.71345615 3.31661666,7.96823245 2.10975052,16.3955225 L0.425272331,16.154622 C1.69420223,7.28612517 8.98926076,0.544309461 17.8717739,0.0312285901 C26.7542871,-0.481852281 34.7669304,5.3757442 37.0344157,14.039967 L38.1809413,12.2467826 C38.4329303,11.8526678 38.9567009,11.737452 39.3508158,11.989441 C39.3522613,11.9903652 39.3537039,11.9912939 39.3551438,11.9922268 L39.3551438,11.9922268 C39.7508108,12.2486089 39.865215,12.7763632 39.6112308,13.1735736 L37.3317746,16.7384571 C37.1752655,16.9834409 36.9058711,17.1315479 36.6166111,17.1316379 C36.1933029,17.1309523 35.8346457,16.8174849 35.7743763,16.3955225 Z" id="Path" fill="#00C3FF" transform="translate(20.085315, 8.565819) scale(-1, 1) translate(-20.085315, -8.565819) "></path>
                                <g id="Group" transform="translate(15.309804, 10.278788)" fill="#3BEDBA">
                                    <path d="M10.2674397,5.27180446 L10.2674397,3.06012551 L10.2745112,3.06012551 C11.0806645,3.06012551 11.7524588,2.43229406 11.7524588,1.61896696 L11.7524588,1.71214666 C11.7524588,0.898819556 11.0806645,0.206778076 10.2745112,0.206778076 L1.63311407,0.206778076 C0.826960817,0.206778076 0.155166441,0.898819556 0.155166441,1.71214666 L0.155166441,1.61896696 C0.155166441,2.43229406 0.826960817,3.06012551 1.63311407,3.06012551 L1.78161598,3.06012551 L1.78161598,5.27180446 C1.78161598,6.7557697 2.5382686,8.06850817 3.6838548,8.83902858 C2.5382686,9.60954899 1.78161598,10.915153 1.78161598,12.4062527 L1.78161598,14.6179317 L1.63311407,14.6179317 C0.826960817,14.6179317 0.155166441,15.2457631 0.155166441,16.0590902 L0.155166441,15.9659105 C0.155166441,16.7792376 0.826960817,17.4712791 1.63311407,17.4712791 L10.2674397,17.4712791 C11.0735929,17.4712791 11.7453873,16.7792376 11.7453873,15.9659105 L11.7453873,16.0590902 C11.7453873,15.2457631 11.0735929,14.6179317 10.2674397,14.6179317 L10.2674397,12.4062527 C10.2674397,10.9222875 9.51078707,9.60954899 8.36520087,8.83902858 C9.51078707,8.06850817 10.2674397,6.76290414 10.2674397,5.27180446 Z M4.63617307,11.0033176 C4.99139066,10.644939 5.48218237,10.4233152 6.02452783,10.4233152 C6.5668733,10.4233152 7.05766501,10.644939 7.4128826,11.0033176 C7.76866458,11.3622657 7.98841533,11.858286 7.98841533,12.4062527 L7.98841533,14.6036556 L4.06064034,14.6036556 L4.06064034,12.4062527 C4.06064034,11.858286 4.28039109,11.3622657 4.63617307,11.0033176 Z M4.06064034,3.0744016 L7.98841533,3.0744016 L7.98841533,5.27180446 C7.98841533,5.8197712 7.76866458,6.3157915 7.4128826,6.67473953 C7.05766501,7.03311816 6.5668733,7.25474201 6.02452783,7.25474201 C5.48218237,7.25474201 4.99139066,7.03311816 4.63617307,6.67473953 C4.28039109,6.3157915 4.06064034,5.8197712 4.06064034,5.27180446 L4.06064034,3.0744016 Z" id="Shape"></path>
                                </g>
                            </g>
                            <path d="M45.7869312,40.2451018 C46.7929309,39.1242108 46.737858,37.398254 45.6624934,36.3452835 C44.5871287,35.2923129 42.8795379,35.2923129 41.8041733,36.3452835 C40.7288087,37.398254 40.6737358,39.1242108 41.6797355,40.2451018 L41.4994133,40.2451018 C40.8660028,40.2450919 40.2585315,40.4995437 39.8106374,40.9524802 C39.3627433,41.4054168 39.111116,42.0197354 39.1111111,42.6602919 L39.1111111,46.7892176 L40.96,47.7240913 L40.96,52.3333333 C40.96,52.8856181 41.4077153,53.3333333 41.96,53.3333333 L45.5066667,53.3333333 C46.0589514,53.3333333 46.5066667,52.8856181 46.5066667,52.3333333 L46.5066667,47.7240913 L48.3555556,46.7892176 L48.3555556,42.6602919 C48.3555507,42.0197354 48.1039233,41.4054168 47.6560293,40.9524802 C47.2081352,40.4995437 46.6006639,40.2450919 45.9672533,40.2451018 L45.7869312,40.2451018 Z M43.7333333,44.8 L43.7333333,44.8 C43.1442296,44.8 42.6666667,44.3224371 42.6666667,43.7333333 L42.6666667,43.0222222 C42.6666667,42.4331185 43.1442296,41.9555556 43.7333333,41.9555556 L43.7333333,41.9555556 C44.3224371,41.9555556 44.8,42.4331185 44.8,43.0222222 L44.8,43.7333333 C44.8,44.3224371 44.3224371,44.8 43.7333333,44.8 Z" id="Shape" fill="#3BEDBA" fill-rule="nonzero"></path>
                            <path d="M6.67582009,40.2451018 C7.68181979,39.1242108 7.62674689,37.398254 6.55138226,36.3452835 C5.47601762,35.2923129 3.76842682,35.2923129 2.69306219,36.3452835 C1.61769756,37.398254 1.56262465,39.1242108 2.56862436,40.2451018 L2.38830222,40.2451018 C1.75489169,40.2450919 1.14742039,40.4995437 0.699526305,40.9524802 C0.251632224,41.4054168 4.90350709e-06,42.0197354 0,42.6602919 L0,46.7892176 L1.84888889,47.7240913 L1.84888889,52.3333333 C1.84888889,52.8856181 2.29660414,53.3333333 2.84888889,53.3333333 L6.39555556,53.3333333 C6.94784031,53.3333333 7.39555556,52.8856181 7.39555556,52.3333333 L7.39555556,47.7240913 L9.24444444,46.7892176 L9.24444444,42.6602919 C9.24443954,42.0197354 8.99281222,41.4054168 8.54491814,40.9524802 C8.09702406,40.4995437 7.48955275,40.2450919 6.85614222,40.2451018 L6.67582009,40.2451018 Z M4.62222222,44.8 L4.62222222,44.8 C4.03311849,44.8 3.55555556,44.3224371 3.55555556,43.7333333 L3.55555556,43.0222222 C3.55555556,42.4331185 4.03311849,41.9555556 4.62222222,41.9555556 L4.62222222,41.9555556 C5.21132596,41.9555556 5.68888889,42.4331185 5.68888889,43.0222222 L5.68888889,43.7333333 C5.68888889,44.3224371 5.21132596,44.8 4.62222222,44.8 Z" id="Shape" fill="#00C3FF" fill-rule="nonzero"></path>
                            <rect id="Rectangle" fill="#3BEDBA" x="12.8" y="43.3777778" width="1.42222222" height="1.42222222" rx="0.711111111"></rect>
                            <rect id="Rectangle" fill="#3BEDBA" x="15.6444444" y="43.3777778" width="1.42222222" height="1.42222222" rx="0.711111111"></rect>
                            <rect id="Rectangle" fill="#3BEDBA" x="18.4888889" y="43.3777778" width="1.42222222" height="1.42222222" rx="0.711111111"></rect>
                            <rect id="Rectangle" fill="#3BEDBA" x="21.3333333" y="43.3777778" width="1.42222222" height="1.42222222" rx="0.711111111"></rect>
                            <rect id="Rectangle" fill="#00C3FF" x="25.6" y="43.3777778" width="1.42222222" height="1.42222222" rx="0.711111111"></rect>
                            <rect id="Rectangle" fill="#00C3FF" x="28.4444444" y="43.3777778" width="1.42222222" height="1.42222222" rx="0.711111111"></rect>
                            <rect id="Rectangle" fill="#00C3FF" x="31.2888889" y="43.3777778" width="1.42222222" height="1.42222222" rx="0.711111111"></rect>
                            <rect id="Rectangle" fill="#00C3FF" x="34.1333333" y="43.3777778" width="1.42222222" height="1.42222222" rx="0.711111111"></rect>
                            <rect id="Rectangle" fill="#00C3FF" x="25.6" y="40.5333333" width="1.42222222" height="1.42222222" rx="0.711111111"></rect>
                            <rect id="Rectangle" fill="#3BEDBA" x="21.3333333" y="40.5333333" width="1.42222222" height="1.42222222" rx="0.711111111"></rect>
                        </g>
                        <g id="2noun_upgrade_330610" opacity="0.152297247" transform="translate(0.422222, 0.000000)" fill="#00C3FF">
                            <path d="M23.1290685,0 L1.75982043,0 C0.785634119,0 0,0.785634119 0,1.75982043 L0,23.1290685 C0,24.1032548 0.785634119,24.8888889 1.75982043,24.8888889 L5.9708193,24.8888889 C6.94500561,24.8888889 7.73063973,24.1032548 7.73063973,23.1290685 L7.73063973,16.2783389 C7.73063973,16.0897868 7.57351291,15.9012346 7.35353535,15.9012346 L2.95398429,15.9012346 C2.63973064,15.9012346 2.48260382,15.5241302 2.671156,15.3041526 L12.1301908,4.02244669 C12.2873176,3.8338945 12.5387205,3.8338945 12.6958474,4.02244669 L22.1863075,15.3041526 C22.3748597,15.5555556 22.2177329,15.9012346 21.9034792,15.9012346 L17.5039282,15.9012346 C17.315376,15.9012346 17.1268238,16.0583614 17.1268238,16.2783389 L17.1268238,23.1290685 C17.1268238,24.1032548 17.9124579,24.8888889 18.8866442,24.8888889 L23.1290685,24.8888889 C24.1032548,24.8888889 24.8888889,24.1032548 24.8888889,23.1290685 L24.8888889,1.75982043 C24.8888889,0.785634119 24.1032548,0 23.1290685,0 Z" id="Path"></path>
                        </g>
                        <circle id="Oval-Copy" fill="#3BEDBA" opacity="0.145670573" cx="47.3555556" cy="41.9555556" r="13.5111111"></circle>
                    </g>
                </g>
            </g>
        </g>
    </g>
</svg>