<?xml version="1.0" encoding="UTF-8"?>
<svg viewBox="0 0 224 192" version="1.1" xmlns="http://www.w3.org/2000/svg" xmlns:xlink="http://www.w3.org/1999/xlink">
    <g id="Page-1" stroke="none" stroke-width="1" fill="none" fill-rule="evenodd">
        <g id="home_1" transform="translate(-234.000000, -1978.000000)">
            <g id="unlock" transform="translate(219.000000, 1753.000000)">
                <g id="1" transform="translate(0.000000, 180.000000)">
                    <g id="21" transform="translate(15.101942, 45.000000)">
                        <path d="M21.3650763,67.5291429 C19.9602583,67.529107 18.8186058,68.6641544 18.8085714,70.0708571 L18.8085714,72.9965714 L15.8868516,72.9965714 C14.474933,72.9965715 13.3303469,74.1427225 13.3303469,75.5565714 C13.3303469,76.9704203 14.474933,78.1165713 15.8868516,78.1165714 L21.3650763,78.1165714 C22.7769949,78.1165714 23.9215811,76.9704204 23.9215811,75.5565714 L23.9215811,70.0708571 C23.9115467,68.6641544 22.7698943,67.529107 21.3650763,67.5291429 Z" id="Path" fill="#47ECBB"></path>
                        <path d="M21.602466,83.4925714 C22.8945291,83.3167952 23.8513946,82.2015439 23.8302774,80.896 L23.8302774,78.0251429 L26.697215,78.0251429 C27.970243,78.0019073 29.0380803,77.0565866 29.2171983,75.7942857 C29.3061118,75.0664818 29.0791078,74.3354355 28.5937263,73.7864492 C28.1083447,73.237463 27.4111828,72.9232402 26.6789542,72.9234286 L23.5928877,72.9234286 C20.9144008,72.9334554 18.7455416,75.1052798 18.7355284,77.7874286 L18.7355284,80.9508571 C18.7353403,81.6840868 19.0491341,82.3822018 19.5973708,82.868247 C20.1456076,83.3542921 20.8756558,83.5816065 21.602466,83.4925714 Z" id="Path" fill="#21C4FC"></path>
                        <path d="M75.4534147,38.7474286 C75.4534147,38.7474286 73.9925548,32.768 75.289068,32.768 C76.5855811,32.768 74.777767,30.9394286 76.5673204,32.768 C78.3568738,34.5965714 77.8455728,27.2822857 79.2699112,30.4822857 C80.6942497,33.6822857 81.5890264,31.8537143 81.7168516,33.2251429 C81.8446768,34.5965714 83.3785798,30.0251429 83.5429265,31.8537143 C83.7072732,33.6822857 84.1820527,30.4822857 85.0950902,32.768 C86.0081276,35.0537143 86.3733426,30.0251429 87.140294,32.768 C87.9072455,35.5108571 88.9663689,29.1108571 89.2037587,31.8537143 C89.4411484,34.5965714 90.3541859,32.768 91.9063495,33.6822857 C93.4585132,34.5965714 93.0567767,30.0251429 94.4811151,32.768 C95.9054535,35.5108571 96.1428433,28.6537143 96.7819695,31.8537143 C97.4210957,35.0537143 99.3567351,28.1965714 99.7402108,30.4822857 C100.123687,32.768 101.164549,27.7394286 102.570627,30.9394286 C103.976705,34.1394286 104.250616,29.568 105.273218,31.3965714 C106.29582,33.2251429 107.099293,25.9108571 107.592333,29.1108571 C108.085373,32.3108571 109.107975,27.5565714 109.893187,28.7817143 C110.678399,30.0068571 111.719262,24.9965714 111.956652,27.2822857 C112.194042,29.568 111.445351,32.3108571 113.782727,32.768 C116.120103,33.2251429 114.951415,25.9108571 116.229667,30.4822857 C117.50792,35.0537143 118.676607,27.2822857 119.060083,30.9394286 C119.443559,34.5965714 120.995723,30.4822857 120.886158,32.3108571 C120.776594,34.1394286 120.630508,38.7474286 120.630508,38.7474286 L75.4534147,38.7474286 Z" id="Path" fill="#47ECBB"></path>
                        <rect id="Rectangle" fill="#B4BAC3" x="51.8057448" y="71.6617143" width="160.566766" height="76.288"></rect>
                        <polygon id="Path" fill="#3C284A" points="172.308427 72.7222857 176.179706 68.8822857 179.119687 68.2057143 180.945761 70.7108571 171.304086 76.544"></polygon>
                        <path d="M175.960577,51.6022857 C173.495376,50.8891429 168.510191,54.528 166.994549,56.5942857 C166.255071,58.3538842 166.008847,60.2821204 166.28238,62.1714286 C166.203041,65.2408633 165.873249,68.2986663 165.2963,71.3142857 L173.623201,70.144 L188.2318,65.1702857 C188.2318,65.1702857 180.17881,52.8274286 175.960577,51.6022857 Z" id="Path" fill="#F56148"></path>
                        <polygon id="Path" fill="#FFCD8A" points="171.870169 67.072 173.239725 73.4354286 171.304086 76.544 179.612727 76.3794286 182.424882 71.7165714 180.105767 71.552 175.851012 60.6537143"></polygon>
                        <path d="M169.971051,67.968 C168.692799,67.5108571 167.396286,64.3108571 167.633675,63.0125714 C167.871065,61.7142857 167.231939,59.1177143 167.98063,57.728 C168.383222,57.051079 168.9481,56.485428 169.624097,56.0822857 L175.851012,60.6537143 L176.380574,67.3645714 C174.257937,67.6930561 172.117634,67.8945562 169.971051,67.968 Z" id="Path" fill="#FFCD8A"></path>
                        <polygon id="Path" fill="#FFAA2E" points="170.464092 68.0045714 172.052777 68.0228571 175.102322 66.9074286 173.002336 67.5108571"></polygon>
                        <polygon id="Path" fill="#FFAA2E" points="174.463196 74.7154286 178.297953 67.0537143 180.270114 71.6251429 178.4623 77.2937143"></polygon>
                        <path d="M173.002336,73.1428571 C173.734664,73.413765 174.504881,73.5680191 175.284929,73.6 C176.782311,73.2708571 180.4162,69.6685714 180.4162,69.6685714 L187.410067,75.9771429 L180.598807,99.7485714 L170.573656,113.371429 L167.158896,101.083429 L164.164133,78.3725714 L173.002336,73.1428571 Z" id="Path" fill="#B4BAC3"></path>
                        <path d="M179.777074,71.5337143 C178.078824,73.984 176.544921,79.8902857 175.704926,82.7428571 C174.408413,87.1131429 171.65104,100.571429 171.65104,100.571429 L174.974497,126.500571 L188.414408,124.836571 L199.535204,121.014857 L190.861348,92.5257143 L190.076136,74.9714286 L184.433564,72.0457143 L181.201412,70.2171429 C180.682192,70.605193 180.204827,71.0464396 179.777074,71.5337143 Z" id="Path" fill="#F4F4F4"></path>
                        <polygon id="Path" fill="#F4F4F4" points="172.308427 72.7222857 163.671093 77.0377143 157.02418 124.580571 166.994549 125.915429 170.811046 97.6457143"></polygon>
                        <polygon id="Path" fill="#B4BAC3" points="188.670058 84.0228571 188.925709 90.1485714 184.06835 117.504 199.516943 120.923429 189.802225 78.208"></polygon>
                        <path d="M190.057875,74.9714286 C190.057875,74.9714286 191.664821,76.0502857 191.88395,76.6354286 C193.819589,81.5542857 194.732627,103.259429 194.732627,103.259429 L195.335232,112.713143 L193.509157,112.365714 L188.597015,113.316571 C188.597015,113.316571 189.528313,107.830857 187.665717,94.6468571 C186.971809,89.6 190.057875,74.9714286 190.057875,74.9714286 Z" id="Path" fill="#FFFFFF"></path>
                        <polygon id="Path" fill="#FFAA2E" points="169.295404 62.1348571 168.802363 64.7131429 170.117137 64.7497143"></polygon>
                        <polygon id="Path" fill="#F4874A" points="185.949207 65.7005714 180.050985 62.5188571 182.990965 66.6148571"></polygon>
                        <rect id="Rectangle" fill="#F4F4F4" x="51.6961803" y="123.282286" width="171.176261" height="63.6708571"></rect>
                        <rect id="Rectangle" fill="#6366AD" x="51.0753148" y="133.741714" width="172.253645" height="4.44342857"></rect>
                        <polygon id="Path" fill="#E6E8EB" points="223.146352 110.665143 51.2944438 110.665143 51.2944438 107.136 212.518596 107.136"></polygon>
                        <rect id="Rectangle" fill="#9592FA" x="51.2944438" y="110.683429" width="171.851908" height="23.0582857"></rect>
                        <path d="M81.0412039,79.1771429 L111.938391,79.1771429 C112.946904,79.1771429 113.764466,79.9958222 113.764466,81.0057143 L113.764466,100.425143 C113.764466,101.435035 112.946904,102.253714 111.938391,102.253714 L81.0412039,102.253714 L81.0412039,79.1771429 Z" id="Path" fill="#21C4FC"></path>
                        <rect id="Rectangle" fill="#F4F4F4" x="79.1055645" y="79.1771429" width="33.1980416" height="23.0948571" rx="1"></rect>
                        <rect id="Rectangle" fill="#B4BAC3" x="93.6228599" y="96.7314286" width="5.58778918" height="12.16"></rect>
                        <rect id="Rectangle" fill="#FFFFFF" x="93.0019945" y="95.3965714" width="5.58778918" height="13.4948571"></rect>
                        <path d="M101.511503,109.714286 L90.5550541,109.714286 C90.5550541,109.714286 90.2080999,108.745143 90.5550541,108.544 C92.4906935,107.337143 99.6854286,107.337143 101.511503,108.544 C101.840197,108.690286 101.511503,109.714286 101.511503,109.714286 Z" id="Path" fill="#FFFFFF"></path>
                        <rect id="Rectangle" fill="#F4F4F4" x="71.6186574" y="37.7965714" width="51.5866158" height="3.65714286"></rect>
                        <rect id="Rectangle" fill="#E6E8EB" x="71.6186574" y="39.4057143" width="51.5866158" height="7.44228571"></rect>
                        <path d="M173.458854,61.8971429 L175.924055,60.9645714" id="Path" stroke="#6366AD" stroke-width="0.15"></path>
                        <path d="M166.28238,62.2445714 L167.597154,62.08" id="Path" stroke="#0E2E51" stroke-width="0.2" stroke-linecap="round" stroke-linejoin="round"></path>
                        <ellipse id="Oval" fill="#001223" cx="171.304086" cy="61.9885714" rx="1" ry="1"></ellipse>
                        <path d="M170.299745,61.9337143 C170.299745,61.9337143 170.975393,61.312 171.431911,61.3668571 C171.891626,61.5374589 172.309008,61.8056976 172.655381,62.1531429 L171.249304,61.6777143 L170.299745,61.9337143 Z" id="Path" fill="#001223"></path>
                        <path d="M168.930189,65.8285714 C168.930189,65.8285714 169.45975,66.6697143 169.916269,66.6697143 C170.57371,66.4403244 171.190212,66.1069583 171.742344,65.6822857 L168.930189,65.8285714 Z" id="Path" fill="#FFFFFF"></path>
                        <path d="M170.098877,61.4582857 C170.288685,60.9604697 170.794673,60.6579741 171.322347,60.7268571 C171.866286,60.8621673 172.380276,61.0978099 172.837989,61.4217143 C172.27852,61.284662 171.711447,61.1808618 171.139739,61.1108571 C170.765423,61.1170879 170.402063,61.2383733 170.098877,61.4582857 Z" id="Path" fill="#F56148"></path>
                        <ellipse id="Oval" stroke="#6366AD" stroke-width="0.15" cx="171.596258" cy="61.9702857" rx="1.69824965" ry="1.70057143"></ellipse>
                        <ellipse id="Oval" fill="#001223" cx="167.962369" cy="62.1348571" rx="1" ry="1"></ellipse>
                        <path d="M166.958028,62.1714286 C166.958028,62.1714286 167.633675,61.5497143 168.090194,61.6045714 C168.548026,61.7703122 168.965175,62.0321659 169.313664,62.3725714 L167.99889,61.824 L166.958028,62.1714286 Z" id="Path" fill="#001223"></path>
                        <path d="M168.838885,62.2262857 L169.69714,62.1897143" id="Path" stroke="#6366AD" stroke-width="0.15"></path>
                        <path d="M166.702377,61.7874286 C166.702377,61.7874286 167.085853,60.7817143 167.98063,60.928 C168.875406,61.0742857 168.72932,61.4034286 168.72932,61.4034286 C168.72932,61.4034286 168.72932,61.4034286 167.706718,61.2388571 C167.342337,61.3611698 167.00235,61.5468706 166.702377,61.7874286 Z" id="Path" fill="#F56148"></path>
                        <ellipse id="Oval" stroke="#6366AD" stroke-width="0.15" cx="167.597154" cy="62.08" rx="1.27825243" ry="1.55428571"></ellipse>
                        <polygon id="Path" fill="#B4BAC3" points="62.5613259 77.4948571 61.3378558 75.7394286 63.4013204 76.4342857"></polygon>
                        <g id="Group" opacity="0.31" transform="translate(89.477670, 58.514286)" fill="#21C4FC">
                            <path d="M3.10432732,0.292571429 C2.7352235,0.302176468 2.43827154,0.599534408 2.42867961,0.969142857 L2.42867961,1.82857143 L1.66172816,1.82857143 C1.29262433,1.83817647 0.99567237,2.13553441 0.986080444,2.50514286 C0.995975918,2.87164296 1.29559471,3.1635625 1.66172816,3.16342857 L3.10432732,3.16342857 C3.46739212,3.16342857 3.76171429,2.86870402 3.76171429,2.50514286 L3.76171429,1.06057143 C3.7878306,0.869051247 3.73089339,0.675490797 3.60526882,0.528728425 C3.47964425,0.381966053 3.29733018,0.296018406 3.10432732,0.292571429 Z" id="Path"></path>
                            <path d="M3.15910957,4.49828571 C3.49905248,4.44388211 3.74776759,4.14812912 3.74345354,3.80342857 L3.74345354,3.05371429 L4.49214424,3.05371429 C4.83637418,3.05803424 5.13172337,2.80897909 5.1860527,2.46857143 C5.20687769,2.2768383 5.14499786,2.08531888 5.01596234,1.94213809 C4.88692683,1.79895731 4.7030022,1.71772644 4.51040499,1.71885714 L3.65214979,1.71885714 C2.94619047,1.71885714 2.37389736,2.29193266 2.37389736,2.99885714 L2.37389736,3.82171429 C2.37124841,4.02188614 2.45726142,4.21295563 2.6088,4.34352757 C2.76033859,4.4740995 2.96184241,4.53076644 3.15910957,4.49828571 Z" id="Path"></path>
                        </g>
                        <g id="Group" opacity="0.31" transform="translate(51.130097, 38.400000)" fill="#21C4FC">
                            <path d="M2.7208516,0.365714286 C2.35174777,0.375319325 2.05479581,0.672677266 2.04520388,1.04228571 L2.04520388,1.82857143 L1.27825243,1.82857143 C1.01380093,1.78458941 0.748394641,1.90132764 0.601829022,2.12609444 C0.455263404,2.35086123 0.455263404,2.64113877 0.601829022,2.86590556 C0.748394641,3.09067236 1.01380093,3.20741059 1.27825243,3.16342857 L2.7208516,3.16342857 C3.08391639,3.16342857 3.37823856,2.86870402 3.37823856,2.50514286 L3.37823856,1.06057143 C3.38314761,0.881115215 3.31663024,0.707062584 3.19333246,0.576736997 C3.07003468,0.44641141 2.90006634,0.370498958 2.7208516,0.365714286 Z" id="Path"></path>
                            <path d="M2.77563384,4.57142857 C3.11557675,4.51702496 3.36429186,4.22127198 3.35997781,3.87657143 L3.35997781,3.12685714 L4.10866852,3.12685714 C4.45289845,3.1311771 4.74824765,2.88212195 4.80257698,2.54171429 C4.82340196,2.34998116 4.76152213,2.15846173 4.63248661,2.01528095 C4.5034511,1.87210016 4.31952648,1.79086929 4.12692926,1.792 L3.30519556,1.792 C2.59923624,1.792 2.02694313,2.36507552 2.02694313,3.072 L2.02694313,3.89485714 C2.02581397,4.08771766 2.10693394,4.27189374 2.24991924,4.40110567 C2.39290454,4.53031759 2.58416249,4.59228203 2.77563384,4.57142857 Z" id="Path"></path>
                        </g>
                        <g id="Group" opacity="0.31" transform="translate(7.304300, 98.742857)" fill="#21C4FC">
                            <path d="M4.16345076,0.347428571 C3.68343971,0.357141976 3.29663496,0.744475553 3.28693481,1.22514286 L3.28693481,2.23085714 L2.30085437,2.23085714 C1.79659771,2.23085714 1.38781692,2.6401968 1.38781692,3.14514286 C1.38781692,3.65008891 1.79659771,4.05942857 2.30085437,4.05942857 L4.12692926,4.05942857 C4.61101566,4.05942857 5.00344521,3.6664625 5.00344521,3.18171429 L5.00344521,1.35314286 C5.04004113,1.10537213 4.96918532,0.853748165 4.80871688,0.661621423 C4.64824845,0.469494681 4.41345541,0.355169303 4.16345076,0.347428571 Z" id="Path"></path>
                            <path d="M4.25475451,5.83314286 C4.6944361,5.76178984 5.01853409,5.38315858 5.02170596,4.93714286 L5.02170596,3.94971429 L5.98952566,3.94971429 C6.32945715,3.99923397 6.66694362,3.84535106 6.85281921,3.55608038 C7.03869479,3.2668097 7.03869479,2.89547601 6.85281921,2.60620533 C6.66694362,2.31693465 6.32945715,2.16305175 5.98952566,2.21257143 L4.93040222,2.21257143 C4.0126551,2.21257143 3.26867406,2.9575696 3.26867406,3.87657143 L3.26867406,4.95542857 C3.27248112,5.20659401 3.38140174,5.44462467 3.56889043,5.61150913 C3.75637912,5.77839358 4.00521545,5.85880387 4.25475451,5.83314286 Z" id="Path"></path>
                        </g>
                        <g id="Group" opacity="0.31" transform="translate(135.129542, 42.057143)" fill="#21C4FC">
                            <path d="M3.35997781,0.822857143 C2.87996675,0.832570547 2.493162,1.21990412 2.48346186,1.70057143 L2.48346186,2.70628571 L1.47912067,2.70628571 C0.974864007,2.70628571 0.566083218,3.11562537 0.566083218,3.62057143 C0.566083218,4.12551749 0.974864007,4.53485714 1.47912067,4.53485714 L3.30519556,4.53485714 C3.78520662,4.52514374 4.17201137,4.13781016 4.18171151,3.65714286 L4.18171151,1.82857143 C4.21242034,1.58483816 4.14184357,1.33916948 3.98649131,1.1490349 C3.83113905,0.958900322 3.60463946,0.840979274 3.35997781,0.822857143 Z" id="Path"></path>
                            <path d="M3.4330208,6.30857143 C3.85028571,6.24937203 4.16973683,5.90663504 4.19997226,5.48571429 L4.19997226,4.49828571 L5.1860527,4.49828571 C5.63145948,4.4951095 6.00957381,4.17056842 6.0808294,3.73028571 C6.10645538,3.48040549 6.02615488,3.23122896 5.85949827,3.04348395 C5.69284166,2.85573894 5.45513598,2.74666941 5.20431345,2.74285714 L4.12692926,2.74285714 C3.68302936,2.7428303 3.25757121,2.92065197 2.94540645,3.23667858 C2.63324169,3.55270518 2.46032309,3.98066291 2.46520111,4.42514286 L2.46520111,5.48571429 C2.47885029,5.72558017 2.59009452,5.94935806 2.77298942,6.10485849 C2.95588432,6.26035891 3.1944401,6.33398708 3.4330208,6.30857143 Z" id="Path"></path>
                        </g>
                        <g id="Group" opacity="0.31" transform="translate(54.782247, 5.485714)" fill="#21C4FC">
                            <path d="M2.75737309,0.530285714 C2.52339984,0.525245391 2.29751809,0.616099119 2.13203574,0.78180771 C1.96655339,0.947516301 1.8758237,1.17370687 1.88085714,1.408 L1.88085714,2.39542857 L0.87651595,2.39542857 C0.396504896,2.40514198 0.00970014293,2.79247555 -3.55271368e-15,3.27314286 C2.93480758e-15,3.75789107 0.392429558,4.15085714 0.87651595,4.15085714 L2.70259085,4.15085714 C2.94878579,4.17732495 3.1944002,4.09602863 3.37634469,3.92785026 C3.55828917,3.75967189 3.65883288,3.52100079 3.65214979,3.27314286 L3.65214979,1.44457143 C3.66796498,1.20079333 3.57943031,0.961794754 3.40867682,0.787318291 C3.23792334,0.612841829 3.00108816,0.519376441 2.75737309,0.530285714 Z" id="Path"></path>
                            <path d="M2.83041609,5.99771429 C3.29585746,5.95954234 3.6537082,5.56934992 3.65214979,5.10171429 L3.65214979,4.13257143 L4.61996949,4.13257143 C5.05434208,4.11924335 5.41634621,3.79530804 5.47822469,3.36457143 C5.50944449,3.11660291 5.43361499,2.86706677 5.2697529,2.67854229 C5.10589081,2.49001782 4.86953869,2.38038683 4.61996949,2.37714286 L3.52432455,2.37714286 C2.60657743,2.37714286 1.86259639,3.12214103 1.86259639,4.04114286 L1.86259639,5.12 C1.86124038,5.36952699 1.96601152,5.60783711 2.15071224,5.77534192 C2.33541295,5.94284674 2.58258211,6.02371076 2.83041609,5.99771429 Z" id="Path"></path>
                        </g>
                        <g id="Group" opacity="0.31" transform="translate(0.000000, 43.885714)" fill="#21C4FC">
                            <path d="M2.75737309,1.37142857 C2.2732867,1.37142857 1.88085714,1.76439464 1.88085714,2.24914286 L1.88085714,3.25485714 L0.87651595,3.25485714 C0.392429558,3.25485714 5.92834851e-17,3.64782321 0,4.13257143 C0.00970014293,4.61323873 0.396504896,5.00057231 0.87651595,5.01028571 L2.70259085,5.01028571 C2.94743115,5.03078978 3.18962493,4.94745016 3.37016247,4.78057228 C3.55070002,4.6136944 3.65300451,4.37860086 3.65214979,4.13257143 L3.65214979,2.304 C3.66755711,2.05865333 3.57950735,1.81808134 3.40942155,1.64081124 C3.23933575,1.46354113 3.00280491,1.36582247 2.75737309,1.37142857 Z" id="Path"></path>
                            <path d="M2.83041609,6.83885714 C3.28892435,6.80131888 3.64429115,6.42174274 3.65214979,5.96114286 L3.65214979,4.97371429 L4.56518724,4.97371429 C5.02035479,4.98766679 5.41338351,4.65707131 5.47822469,4.20571429 C5.50944449,3.95774576 5.43361499,3.70820962 5.2697529,3.51968515 C5.10589081,3.33116068 4.86953869,3.22152969 4.61996949,3.21828571 L3.52432455,3.21828571 C2.60657743,3.21828571 1.86259639,3.96328389 1.86259639,4.88228571 L1.86259639,5.97942857 C1.86638049,6.22576315 1.97337693,6.45916446 2.15745157,6.62262363 C2.34152621,6.7860828 2.5857302,6.86454917 2.83041609,6.83885714 Z" id="Path"></path>
                        </g>
                        <g id="Group" opacity="0.31" transform="translate(18.260749, 18.285714)" fill="#21C4FC">
                            <path d="M2.66606935,0.182857143 C2.29696552,0.192462182 2.00001356,0.489820123 1.99042164,0.859428571 L1.99042164,1.62742857 L1.22347018,1.62742857 C0.959018679,1.58344655 0.693612394,1.70018479 0.547046775,1.92495158 C0.400481157,2.14971837 0.400481157,2.43999591 0.547046775,2.66476271 C0.693612394,2.8895295 0.959018679,3.00626774 1.22347018,2.96228571 L2.66606935,2.96228571 C3.02913414,2.96228571 3.32345631,2.66756116 3.32345631,2.304 L3.32345631,0.859428571 C3.32359006,0.492794567 3.03206907,0.192766146 2.66606935,0.182857143 Z" id="Path"></path>
                            <path d="M2.7208516,4.38857143 C3.06079451,4.33416782 3.30950962,4.03841484 3.30519556,3.69371429 L3.30519556,2.944 L4.05388627,2.944 C4.3981162,2.94831995 4.6934654,2.69926481 4.74779473,2.35885714 C4.76861972,2.16712402 4.70673988,1.97560459 4.57770437,1.83242381 C4.44866885,1.68924302 4.26474423,1.60801215 4.07214702,1.60914286 L3.25041331,1.60914286 C2.54445399,1.60914286 1.97216089,2.18221838 1.97216089,2.88914286 L1.97216089,3.65714286 C1.95445324,3.85932926 2.02832573,4.05879573 2.17340425,4.20052926 C2.31848277,4.34226279 2.51943993,4.41128937 2.7208516,4.38857143 Z" id="Path"></path>
                        </g>
                        <g id="Group" opacity="0.31" transform="translate(133.303467, 0.000000)" fill="#21C4FC">
                            <path d="M3.28693481,2.70450329e-16 C2.80284842,2.40768061e-16 2.41041886,0.392966071 2.41041886,0.877714286 L2.41041886,1.82857143 L1.40607767,1.82857143 C0.901821011,1.82857143 0.493040222,2.23791109 0.493040222,2.74285714 C0.493040222,3.2478032 0.901821011,3.65714286 1.40607767,3.65714286 L3.23215257,3.65714286 C3.70919644,3.65724653 4.09873011,3.27530669 4.10866852,2.79771429 L4.10866852,0.969142857 C4.12885198,0.731331489 4.05345166,0.495284257 3.89918885,0.313348543 C3.74492603,0.13141283 3.52455073,0.0186258559 3.28693481,2.70450329e-16 Z" id="Path"></path>
                            <path d="M3.35997781,5.48571429 C3.80367955,5.42160797 4.1315239,5.03859998 4.12692926,4.58971429 L4.12692926,3.65714286 L5.11300971,3.65714286 C5.55434979,3.65265295 5.9264966,3.32657931 5.98952566,2.88914286 C6.04466825,2.62991301 5.97987693,2.35961333 5.81323645,2.15369074 C5.64659598,1.94776816 5.39595397,1.82827752 5.13127046,1.82857143 L4.03562552,1.82857143 C3.1178784,1.82857143 2.37389736,2.5735696 2.37389736,3.49257143 L2.37389736,4.58971429 C2.36654226,4.8459781 2.4714437,5.09265241 2.66104166,5.26493022 C2.85063962,5.43720802 3.10597956,5.51786631 3.35997781,5.48571429 Z" id="Path"></path>
                        </g>
                        <path d="M127.825243,122.258286 C127.825243,122.258286 129.998272,148.845714 128.73828,151.625143 C127.569592,154.093714 104.268877,166.4 104.268877,166.4 L100.908899,163.035429 L119.041822,147.346286 L118.694868,117.778286 L127.825243,122.258286 Z" id="Path" fill="#03162B"></path>
                        <path d="M96.8732732,165.083429 L107.409725,179.712 C108.059112,178.211254 108.507346,176.631066 108.74276,175.012571 C108.614935,173.403429 106.076691,170.788571 106.05843,169.179429 C106.528996,167.352069 107.287182,165.611413 108.304502,164.022857 L103.812358,159.305143 L96.8732732,165.083429 Z" id="Path" fill="#6366AD"></path>
                        <polygon id="Path" fill="#0E2E51" points="124.428743 120.923429 121.726153 156.342857 115.681845 181.010286 109.199279 180.333714 112.102738 156.8 109.637537 118.235429"></polygon>
                        <path d="M108.523631,190.427429 L123.515706,191.104 C122.97808,189.720872 122.226265,188.431166 121.287895,187.282286 C119.973121,186.368 117.252269,186.806857 116.357492,185.453714 C115.225326,183.808 116.576621,178.285714 116.576621,178.285714 L108.74276,177.609143 L108.523631,190.427429 Z" id="Path" fill="#6366AD"></path>
                        <polygon id="Path" fill="#21C4FC" points="125.542649 94.0068571 117.03314 94.9028571 113.216644 82.5782857 120.173989 82.5782857"></polygon>
                        <polygon id="Path" fill="#FFFFFF" points="146.816422 83.2731429 147.291201 76.8365714 139.475601 73.4354286 138.215609 93.1474286 146.195556 96.9508571"></polygon>
                        <path d="M112.321867,77.0742857 C112.321867,77.0742857 105.382782,111.268571 105.273218,120.466286 C105.273218,121.545143 109.308843,123.830857 109.308843,123.830857 L129.121756,123.830857 L126.766119,87.5154286 L120.393118,77.0742857 L112.321867,77.0742857 Z" id="Path" fill="#6366AD"></path>
                        <path d="M121.41572,81.6091429 C121.41572,81.6091429 123.13223,74.9897143 123.588749,74.2948571 C124.501786,72.9234286 127.02177,73.7462857 127.916546,72.9234286 C128.811323,72.1005714 128.153936,69.0102857 128.153936,69.0102857 L129.286103,67.6571429 C129.286103,67.6571429 128.062632,66.5234286 127.715678,66.1028571 C126.674816,64.8045714 125.688735,61.056 124.063528,60.4891429 C122.438322,59.9222857 117.343573,62.9577143 117.343573,62.9577143 L117.124444,81.792 L121.41572,81.6091429 Z" id="Path" fill="#FF9750"></path>
                        <path d="M118.694868,85.1565714 C118.694868,85.1565714 127.094813,104.996571 129.103495,104.32 C130.253922,103.936 145.099911,89.6914286 145.099911,89.6914286 C145.099911,89.6914286 147.875545,87.8628571 148.24076,86.784 C148.843365,85.0651429 147.875545,79.9451429 146.852943,81.4262857 C145.365492,83.713076 143.762552,85.9224212 142.050366,88.0457143 C139.932119,90.4594286 130.217401,94.6102857 130.217401,94.6102857 L125.542649,83.0171429 L118.694868,85.1565714 Z" id="Path" fill="#FF9750"></path>
                        <path d="M118.694868,91.2091429 L128.793062,87.7714286 C128.793062,87.7714286 125.761778,78.3542857 123.077448,77.6777143 C120.393118,77.0011429 113.782727,74.752 112.321867,77.0011429 C110.221881,80.3474286 118.694868,91.2091429 118.694868,91.2091429 Z" id="Path" fill="#6366AD"></path>
                        <path d="M126.364383,61.4034286 C125.688735,63.104 120.667029,62.9394286 120.155728,64.6948571 C119.644427,66.4502857 120.575725,69.8514286 120.776594,72.0091429 C121.013983,74.5691429 118.694868,78.6285714 116.868793,80.3108571 C115.042718,81.9931429 108.961889,81.536 108.961889,81.536 C110.004524,77.5698911 110.815458,73.5463085 111.390569,69.4857143 C111.390569,67.1817143 109.856666,62.1714286 113.216644,58.9165714 C118.694868,53.7234286 127.606114,58.2765714 126.364383,61.4034286 Z" id="Path" fill="#02252D"></path>
                        <path d="M125.889603,65.8285714 C126.090472,66.048 126.163515,66.176 126.382644,65.9565714 C126.601773,65.7371429 126.090472,64.8594286 125.889603,65.0605714 C125.784655,65.160659 125.725257,65.2994445 125.725257,65.4445714 C125.725257,65.5896984 125.784655,65.7284839 125.889603,65.8285714 Z" id="Path" fill="#001223"></path>
                        <path d="M126.364383,64.9874286 C126.364383,64.9874286 126.364383,64.512 125.871343,64.8045714 C125.378302,65.0971429 125.360042,66.0297143 125.360042,66.0297143 L126.218297,65.024 L126.364383,64.9874286 Z" id="Path" fill="#001223"></path>
                        <path d="M125.999168,64.2377143 C125.999168,64.2377143 126.145254,63.6891429 125.451345,64.2377143 C125.173214,64.3927171 125.031572,64.7137141 125.104391,65.024 C125.104391,65.024 125.104391,64.9142857 125.889603,64.4937143 C126.090472,64.3108571 125.999168,64.2377143 125.999168,64.2377143 Z" id="Path" fill="#02252D"></path>
                        <polygon id="Path" fill="#FFFFFF" points="126.656555 70.528 128.373065 71.2045714 128.373065 69.8331429"></polygon>
                        <path d="M140.370377,75.904 L145.611212,78.4091429" id="Path" stroke="#B4BAC3" stroke-width="0.25" stroke-linecap="round" stroke-linejoin="round"></path>
                    </g>
                </g>
            </g>
        </g>
    </g>
</svg>