<?xml version="1.0" encoding="UTF-8"?>
<svg viewBox="0 0 214 182" version="1.1" xmlns="http://www.w3.org/2000/svg" xmlns:xlink="http://www.w3.org/1999/xlink">
    <defs>
        <linearGradient x1="0%" y1="50%" x2="100.416667%" y2="50%" id="linearGradient-1">
            <stop stop-color="#FBB767" offset="14%"></stop>
            <stop stop-color="#FCD3A2" offset="100%"></stop>
        </linearGradient>
    </defs>
    <g id="Page-1" stroke="none" stroke-width="1" fill="none" fill-rule="evenodd">
        <g id="home_1" transform="translate(-249.000000, -2325.000000)">
            <g id="unlock" transform="translate(219.000000, 1753.000000)">
                <g id="3" transform="translate(0.000000, 521.000000)">
                    <g id="23" transform="translate(30.000000, 51.000000)">
                        <rect id="Rectangle" fill="#B4BAC3" x="139.760178" y="21.7649485" width="1.05125184" height="113.534227"></rect>
                        <path d="M140.267031,53.7181443 C141.023872,53.7181443 141.637413,54.3313758 141.637413,55.0878351 L141.637413,140.721649 L138.915422,140.721649 L138.915422,55.0878351 C138.915352,54.3386429 139.517532,53.7284072 140.267031,53.7181443 Z" id="Path" fill="#B4BAC3"></path>
                        <path d="M150.347786,26.3618557 C148.682851,26.3516148 147.335683,25.005126 147.325437,23.3410309 C147.325437,22.6052965 146.728705,22.008866 145.992599,22.008866 L134.579008,22.008866 C134.222276,22.0038436 133.878421,22.141976 133.624391,22.3923518 C133.370361,22.6427276 133.227363,22.9844438 133.227398,23.3410309 C133.227398,25.0093864 131.874247,26.3618557 130.205049,26.3618557 C128.535852,26.3618557 127.1827,25.0093864 127.1827,23.3410309 L127.1827,20.9956701 C127.1827,20.8091459 127.333984,20.6579381 127.520603,20.6579381 C127.707221,20.6579381 127.858505,20.8091459 127.858505,20.9956701 L127.858505,23.3410309 C127.858505,24.6363379 128.909089,25.6863918 130.205049,25.6863918 C131.50101,25.6863918 132.551594,24.6363379 132.551594,23.3410309 C132.55157,22.8053078 132.765769,22.2917953 133.146533,21.9147479 C133.527296,21.5377004 134.043038,21.3283953 134.579008,21.3334021 L145.992599,21.3334021 C147.101942,21.3334021 148.001241,22.2322481 148.001241,23.3410309 C147.921547,24.2324834 148.352347,25.0924883 149.114195,25.5628141 C149.876042,26.0331399 150.838302,26.0331399 151.600149,25.5628141 C152.361996,25.0924883 152.792797,24.2324834 152.713102,23.3410309 L152.713102,20.9956701 C152.713102,20.8091459 152.864386,20.6579382 153.051005,20.6579382 C153.237623,20.6579382 153.388907,20.8091459 153.388907,20.9956701 L153.388907,23.3410309 C153.378584,25.0124168 152.020047,26.3618875 150.347786,26.3618557 Z" id="Path" fill="#B4BAC3"></path>
                        <path d="M134.03461,93.814433 C131.256301,85.5024742 133.020903,74.282268 134.03461,67.5463918 C134.166016,66.6270103 134.297423,65.8014433 134.410057,65.0696907 C134.898182,61.5627392 134.190619,57.9936626 132.401415,54.937732 C132.025968,54.1684536 131.669293,53.436701 131.368935,52.6674227 C130.439794,49.767956 129.89698,46.7587532 129.754513,43.7175258 L130.223822,43.7175258 C130.38855,46.7132334 130.930979,49.6761747 131.838244,52.5360825 C132.138602,53.2865979 132.476504,53.9995876 132.851951,54.768866 C134.695678,57.9078588 135.423401,61.5777013 134.91691,65.182268 C134.804276,65.9140206 134.67287,66.7395876 134.541463,67.6589691 C133.490211,74.3197938 131.744382,85.4837113 134.541463,93.6830928 L134.03461,93.814433 Z" id="Path" fill="#E6E8EB"></path>
                        <path d="M130.092415,24.7107216 C131.001808,24.7107079 131.873682,25.0730597 132.514955,25.7175312 C133.156229,26.3620028 133.51398,27.23541 133.508984,28.1443299 L133.509035,34.8989691 L126.675795,34.8989691 L126.675847,28.1443299 C126.67085,27.23541 127.028602,26.3620028 127.669875,25.7175312 C128.311148,25.0730597 129.183023,24.7107079 130.092415,24.7107216 Z" id="Path" fill="#E6E8EB"></path>
                        <rect id="Rectangle" fill="#B4BAC3" x="128.85344" y="33.7356701" width="2.47795077" height="3.33979381"></rect>
                        <rect id="Rectangle" fill="#516174" x="128.553082" y="36.062268" width="3.05989375" height="1"></rect>
                        <rect id="Rectangle" fill="#B4BAC3" x="129.360293" y="36.7940206" width="1.46424364" height="2.17649485"></rect>
                        <path d="M129.529245,38.8204124 L130.693131,38.8204124 L130.693131,43.7738144 C130.693131,43.9280775 130.631819,44.0760223 130.522684,44.1851027 C130.413548,44.2941832 130.265529,44.3554639 130.111188,44.3554639 C129.789789,44.3554639 129.529245,44.0950506 129.529245,43.7738144 L129.529245,38.8204124 Z" id="Path" fill="#21C4FC"></path>
                        <path d="M129.303976,24.7107216 C130.76582,24.7107216 131.950878,25.8951823 131.950878,27.3562887 L131.950878,34.8614433 L125.774774,34.8614433 L125.774774,28.1443299 C125.805649,26.2242286 127.382772,24.6898248 129.303976,24.7107216 Z" id="Path" fill="#F4F4F4"></path>
                        <rect id="Rectangle" fill="#B4BAC3" x="129.135025" y="24.1290722" width="1.74582895" height="1.01319588" rx="0.27"></rect>
                        <polygon id="Path" fill="#E6E8EB" points="151.267631 74.7138144 151.267631 88.7672165 196.096013 104.603093 197.241127 83.3259794"></polygon>
                        <rect id="Rectangle" fill="#B4BAC3" x="25.380223" y="123.272165" width="4.58045445" height="22.8719588"></rect>
                        <rect id="Rectangle" fill="#B4BAC3" x="131.275074" y="106.310515" width="3.26638965" height="14.3723711"></rect>
                        <polygon id="Path" fill="#B4BAC3" points="29.3036451 125.898969 134.59778 101.056907 134.59778 106.929691 28.665385 131.771753"></polygon>
                        <ellipse id="Oval" fill="#516174" cx="26.3751578" cy="148.770928" rx="6.21364927" ry="7.18618557"></ellipse>
                        <ellipse id="Oval" fill="#0E2E51" cx="130.618041" cy="121.020619" rx="4.58045445" ry="6.86721649"></ellipse>
                        <polygon id="Path" fill="#B4BAC3" points="59.0578266 139.764742 73.11832 162.317732 78.0179045 154.793814 83.2553913 135.843299"></polygon>
                        <polygon id="Path" fill="#B4BAC3" points="168.275384 116.236082 173.512871 131.265155 179.989333 133.891959 185.940169 113.609278"></polygon>
                        <polygon id="Path" fill="#B4BAC3" points="35.5172943 129.295052 35.5172943 140.421443 197.710436 109.031134 197.710436 99.7247423"></polygon>
                        <rect id="Rectangle" fill="#B4BAC3" x="70.8280928" y="150.872371" width="4.58045445" height="22.8719588"></rect>
                        <rect id="Rectangle" fill="#B4BAC3" x="176.722943" y="133.910722" width="3.26638965" height="14.3723711"></rect>
                        <polygon id="Path" fill="#B4BAC3" points="74.7515148 153.480412 180.04565 128.638351 180.04565 134.529897 74.0944824 159.371959"></polygon>
                        <polygon id="Path" fill="#F4F4F4" points="197.241127 100.569072 150.122517 88.7672165 14.0792657 109.687835 35.0292131 132.203299"></polygon>
                        <path d="M126.206538,95.4092784 L162.380865,103.815052 L187.235462,97.2668041 C187.235462,97.2668041 182.091837,86.8158763 172.855838,86.1591753 C163.61984,85.5024742 152.581696,84.8457732 148.001241,85.5024742 C143.420787,86.1591753 126.206538,95.4092784 126.206538,95.4092784 Z" id="Path" fill="#9592FA"></path>
                        <polygon id="Path" fill="#B4BAC3" points="1.1075689 96.9103093 7.13349463 96.2723711 38.4833263 109.2 38.783684 149.934227 33.5461971 151.228866 33.5461971 110.063093"></polygon>
                        <polygon id="Path" fill="#E6E8EB" points="33.5461971 110.063093 33.5461971 151.228866 1.1075689 132.203299 1.1075689 96.9103093"></polygon>
                        <polygon id="Path" fill="#6366AD" points="35.5172943 140.421443 33.5461971 151.228866 199.66276 114.92268 199.249769 83.0445361 195.082306 84.2078351 195.082306 106.423093"></polygon>
                        <polygon id="Path" fill="#6366AD" points="33.5461971 110.063093 38.4833263 109.2 38.4833263 141.978763 33.5461971 151.228866"></polygon>
                        <polygon id="Path" fill="#B4BAC3" points="151.267631 74.7138144 194.932127 84.4892784 199.249769 83.0445361 157.55637 74.1321649"></polygon>
                        <path d="M89.7881706,97.2668041 C89.7881706,97.2668041 138.277162,108.055464 142.031633,111.207629 C142.932706,111.976907 143.458332,117.830928 143.458332,117.830928 L142.594803,118.393814 L142.594803,127.024742 L149.784615,125.58 L145.466973,109.2 L130.805765,102.595464 L89.7881706,97.2668041 Z" id="Path" fill="#0E2E51"></path>
                        <path d="M89.7881706,97.2668041 C89.7881706,97.2668041 142.106722,105.766392 143.420787,111.001237 C144.734852,116.236082 146.687177,133.216495 146.687177,133.216495 L172.517936,127.587629 C172.517936,127.587629 170.884741,109.012371 166.88623,105.072165 C162.887718,101.131959 110.75689,92.6886598 110.75689,92.6886598 L89.7881706,97.2668041 Z" id="Path" fill="#F4F4F4"></path>
                        <path d="M90.4264307,75.4830928 C90.4264307,75.4830928 85.1889438,97.1917526 86.6719598,102.426598 C88.1549758,107.661443 89.5629024,107.661443 89.5629024,107.661443 C89.5629024,107.661443 99.7750631,99.2931959 104.224111,100.869278 C108.673159,102.445361 111.019703,97.116701 111.019703,97.116701 C111.019703,97.116701 112.333768,77.5094845 110.75689,69.4226804 C110.268809,66.8146392 102.910046,62.8931959 101.595981,62.1051546 C101.051583,61.7674227 104.036388,66.9272165 100.54473,68.1280412 C99.8126078,68.3719588 97.1844782,62.6868041 96.3960393,62.5929897 C89.6379918,61.9175258 84.8510414,69.4226804 84.8510414,69.4226804 L90.4264307,75.4830928 Z" id="Path" fill="#FDBF5D"></path>
                        <path d="M110.963386,70.323299 C110.963386,70.323299 111.845687,88.2418557 112.408858,90.9624742 C113.460109,95.8971134 118.265832,101.319588 118.265832,101.319588 L109.630549,99.443299 C109.630549,99.443299 107.265232,91.337732 107.753314,86.8909278 C107.847175,85.6713402 110.963386,70.323299 110.963386,70.323299 Z" id="Path" fill="#FECE6E"></path>
                        <path d="M117.909157,149.540206 L117.909157,153.292784 C117.882233,154.341451 117.794481,155.387675 117.646344,156.426186 C119.426794,157.332078 121.264072,158.121772 123.146644,158.790309 C125.59036,159.459297 128.142453,159.637854 130.655586,159.31567 C132.232464,158.790309 124.366847,156.163505 123.334368,154.868866 C122.266316,152.613794 121.472227,150.239026 120.969051,147.795258 L117.909157,149.540206 Z" id="Path" fill="#FF9750"></path>
                        <path d="M80.0453187,108.055464 C80.0453187,108.055464 77.9803598,112.427216 76.1218967,113.68433 C74.7401056,114.522806 73.3110284,115.280838 71.8417999,115.954639 C71.8417999,115.954639 77.2106932,117.155464 78.6373922,115.598144 C80.0640911,114.040825 81.2655218,108.674639 81.2655218,108.674639 L80.0453187,108.055464 Z" id="Path" fill="#FF9750"></path>
                        <path d="M93.5614138,62.9307216 C93.5614138,62.9307216 96.1707711,59.1781443 96.1707711,57.4331959 C96.1707711,55.6882474 92.247349,46.9635052 95.1382916,46.7008247 C98.0292342,46.4381443 102.196697,39.3645361 104.299201,45.9127835 C104.873549,47.8423096 105.152039,49.8476868 105.125184,51.8606186 C105.125184,52.2921649 105.669582,53.436701 105.65081,53.8494845 C105.641012,55.7176491 104.97681,57.5233674 103.773575,58.9529897 L100.619819,58.7278351 C100.601841,59.9483438 100.969733,61.1433882 101.671071,62.1426804 C102.722323,63.1934021 103.548306,67.9028866 100.619819,68.165567 C98.1230959,68.3907216 93.5614138,62.9307216 93.5614138,62.9307216 Z" id="Path" fill="#FF9750"></path>
                        <path d="M82.8236272,76.0084536 C82.8236272,76.0084536 80.9463918,90.3995876 79.951457,93.0076289 C78.9565222,95.6156701 76.1969861,112.633608 76.1969861,112.633608 L80.1391805,112.633608 C80.1391805,112.633608 86.6719598,96.1597938 87.6481222,92.2383505 C88.6242847,88.3169072 90.5202924,74.6950515 90.5202924,74.6950515 C90.5202924,74.6950515 87.8921628,67.0210309 86.578098,67.1898969 C85.2640332,67.3587629 83.874879,70.5109278 82.8236272,76.0084536 Z" id="Path" fill="#FECE6E"></path>
                        <path d="M102.45951,43.3047423 C102.45951,43.3047423 98.3859089,41.0719588 95.1382916,42.516701 C90.4264307,44.5993814 88.4177888,50.4721649 87.7983011,53.774433 C87.5167158,55.3129897 87.4040816,58.2775258 85.7521145,59.722268 C83.6683831,61.5985567 95.1382916,64.2253608 96.4335841,58.9905155 C97.3534294,55.3692784 97.4848359,48.0142268 100.882632,46.9635052 C104.280428,45.9127835 103.811119,47.9391753 104.824826,46.9635052 C107.32155,44.5243299 103.247949,42.7981443 102.45951,43.3047423 Z" id="Path" fill="#02252D"></path>
                        <path d="M133.283716,142.354021 L133.921976,145.956495 C134.087869,146.993617 134.188187,148.040159 134.222333,149.089897 C136.137112,149.665966 138.087278,150.117223 140.060535,150.440825 C142.593532,150.666754 145.146182,150.386105 147.569477,149.615258 C149.014948,148.808454 140.830202,147.626392 139.553682,146.538144 C138.109922,144.504018 136.912643,142.305915 135.986935,139.989897 L133.283716,142.354021 Z" id="Path" fill="#FF9750"></path>
                        <path d="M107.171371,99.0305155 C107.171371,99.0305155 130.730675,102.970722 131.781927,106.53567 C132.833179,110.100619 137.019414,142.185155 137.019414,142.185155 L132.833179,144.061443 C132.833179,144.061443 122.621018,116.817732 122.020303,114.453608 C121.419588,112.089485 105.519404,107.11732 105.519404,107.11732 L107.171371,99.0305155 Z" id="Path" fill="#FDBF5D"></path>
                        <polygon id="Path" fill="#FD9F28" points="100.882632 105.578763 126.018814 111.076289 127.858505 129.651546 124.197896 124.679381 122.095392 114.472371"></polygon>
                        <path d="M113.985735,117.343093 C113.985735,117.343093 113.722922,122.577938 113.722922,125.730103 C113.722922,128.882268 116.388597,150.103093 116.388597,150.103093 C116.388597,150.103093 122.414522,151.153814 122.677335,150.103093 C122.940148,149.052371 127.914822,112.164536 125.02388,110.081856 C122.132937,107.999175 100.882632,98.5051546 98.5360877,98.5051546 C96.1895434,98.5051546 87.5354881,103.74 89.6379918,107.661443 C91.7404955,111.582887 113.985735,117.343093 113.985735,117.343093 Z" id="Path" fill="#FECE6E"></path>
                        <ellipse id="Oval" fill="#E6E8EB" cx="70.3775563" cy="173.781856" rx="6.21364927" ry="7.18618557"></ellipse>
                        <ellipse id="Oval" fill="#E6E8EB" cx="175.690464" cy="148.301856" rx="4.58045445" ry="6.86721649"></ellipse>
                        <ellipse id="Oval" fill="#516174" cx="72.3861982" cy="174.644948" rx="6.21364927" ry="7.18618557"></ellipse>
                        <ellipse id="Oval" fill="#516174" cx="177.717878" cy="148.301856" rx="4.58045445" ry="6.86721649"></ellipse>
                        <path d="M83.1052125,76.608866 L85.8459762,76.6463918" id="Path" stroke="#FFFFFF"></path>
                        <path d="M47.6630076,60.0412371 C46.7963558,60.0513693 46.0962671,60.7511049 46.0861298,61.6173196 L46.0861298,63.4936082 L44.2088944,63.4936082 C43.3993185,63.5817642 42.7860621,64.2651166 42.7860621,65.0790722 C42.7860621,65.8930277 43.3993185,66.5763801 44.2088944,66.6645361 L47.6066905,66.6645361 C48.4806039,66.6542592 49.1836288,65.9432239 49.1835683,65.0696907 L49.1835683,61.6736082 C49.2049284,60.8068247 48.5295427,60.0817764 47.6630076,60.0412371 Z" id="Path" fill="#47ECBB"></path>
                        <path d="M47.8131864,69.985567 C48.6158793,69.8725534 49.2102653,69.1821287 49.2023406,68.3719588 L49.2023406,66.6082474 L50.9669419,66.6082474 C51.5748632,66.6744449 52.1671643,66.3875596 52.4918761,65.8696347 C52.8165878,65.3517098 52.8165878,64.6938572 52.4918761,64.1759323 C52.1671643,63.6580074 51.5748632,63.3711221 50.9669419,63.4373196 L49.0897065,63.4373196 C47.4247717,63.4475605 46.0776035,64.7940493 46.0673575,66.4581443 L46.0673575,68.334433 C46.0490214,68.7944448 46.2304651,69.2399356 46.5650345,69.5563578 C46.8996039,69.8727799 47.3546566,70.0292615 47.8131864,69.985567 Z" id="Path" fill="#21C4FC"></path>
                        <g id="Group" opacity="0.31" transform="translate(118.265832, 54.412371)" fill="#21C4FC">
                            <path d="M3.0411214,-2.11758237e-21 C2.65751705,-6.66591805e-15 2.34654429,0.310815927 2.34654429,0.694226804 L2.34654429,1.48226804 L1.55810541,1.48226804 C1.18486875,1.48226804 0.882300652,1.78468354 0.882300652,2.15773196 C0.882163158,2.53393341 1.18185159,2.84179118 1.55810541,2.85195876 L3.0411214,2.85195876 C3.42056628,2.84210308 3.72583785,2.53698547 3.73569851,2.15773196 L3.73569851,0.750515464 C3.75146175,0.556853044 3.68530322,0.365451064 3.55329726,0.222813895 C3.4212913,0.080176727 3.23552063,-0.00063982411 3.0411214,-1.33318348e-14 Z" id="Path"></path>
                            <path d="M3.11621081,4.35298969 C3.44439643,4.3292244 3.71086542,4.07855655 3.75447086,3.75257732 L3.75447086,2.98329897 L4.52413739,2.98329897 C4.87090343,2.97852009 5.16398972,2.72516789 5.2187145,2.3828866 C5.2455625,2.18636863 5.1870301,1.98775715 5.05788595,1.83716496 C4.9287418,1.68657277 4.7413199,1.59838229 4.54290974,1.59484536 L3.67938144,1.59484536 C2.95786534,1.60493288 2.37540925,2.18709521 2.36531664,2.90824742 L2.36531664,3.75257732 C2.4141335,4.12153265 2.74535686,4.38637771 3.11621081,4.35298969 Z" id="Path"></path>
                        </g>
                        <g id="Group" opacity="0.31" transform="translate(67.580475, 52.536082)" fill="#21C4FC">
                            <path d="M3.09743846,1.1257732 C2.71383411,1.1257732 2.40286135,1.43658912 2.40286135,1.82 L2.40286135,2.60804124 L1.61442247,2.60804124 C1.23081813,2.60804124 0.919845361,2.91885716 0.919845361,3.30226804 C0.919845361,3.68567892 1.23081813,3.99649485 1.61442247,3.99649485 L3.09743846,3.99649485 C3.47369227,3.98632726 3.77338071,3.67846949 3.77324321,3.30226804 L3.77324321,1.87628866 C3.78879738,1.68584673 3.72513122,1.49741681 3.59724401,1.35539156 C3.46935679,1.21336632 3.28855655,1.1303039 3.09743846,1.1257732 Z" id="Path"></path>
                            <path d="M3.15375552,5.44123711 C3.5032225,5.38541382 3.75890578,5.08194306 3.75447086,4.72824742 L3.75447086,3.95896907 L4.52413739,3.95896907 C4.8780115,3.96340176 5.18163539,3.70784743 5.23748685,3.3585567 C5.25889529,3.16182023 5.19528178,2.96530303 5.06263112,2.8183859 C4.92998046,2.67146876 4.74090288,2.58811814 4.54290974,2.58927835 L3.75447086,2.58927835 C3.02873291,2.58927835 2.44040606,3.17730848 2.44040606,3.90268041 L2.44040606,4.74701031 C2.44033756,4.93442817 2.51608728,5.11391158 2.65043454,5.24465741 C2.78478181,5.37540325 2.96631158,5.44630247 3.15375552,5.44123711 Z" id="Path"></path>
                        </g>
                        <g id="Group" opacity="0.31" transform="translate(107.002420, 24.391753)" fill="#21C4FC">
                            <path d="M2.64690196,1.5385567 C2.26329761,1.5385567 1.95232485,1.84937263 1.95232485,2.23278351 L1.95232485,3.00206186 L1.16388597,3.00206186 C0.780281622,3.00206186 0.469308858,3.31287778 0.469308858,3.69628866 C0.469308858,4.07969954 0.780281622,4.39051546 1.16388597,4.39051546 L2.64690196,4.39051546 C3.02634684,4.38065978 3.33161841,4.07554217 3.34147907,3.69628866 L3.34147907,2.23278351 C3.34147907,1.84937263 3.0305063,1.5385567 2.64690196,1.5385567 Z" id="Path"></path>
                            <path d="M2.70321902,5.83525773 C3.05311216,5.78889467 3.31647984,5.49375256 3.32270671,5.14103093 L3.32270671,4.37175258 L4.09237324,4.37175258 C4.43913928,4.36697369 4.73222557,4.1136215 4.78695035,3.77134021 C4.81379835,3.57482224 4.75526595,3.37621076 4.6261218,3.22561857 C4.49697765,3.07502638 4.30955575,2.9868359 4.11114559,2.98329897 L3.24761729,2.98329897 C2.52610119,2.99338649 1.9436451,3.57554882 1.93355249,4.29670103 L1.93355249,5.15979381 C1.93766997,5.35440685 2.023345,5.53835191 2.16969156,5.66678653 C2.31603813,5.79522115 2.50961042,5.85634519 2.70321902,5.83525773 Z" id="Path"></path>
                        </g>
                        <g id="Group" opacity="0.31" transform="translate(30.035767, 78.804124)" fill="#21C4FC">
                            <path d="M4.31764149,1.14453608 C3.81999261,1.14453608 3.41656848,1.54775674 3.41656848,2.04515464 L3.41656848,3.05835052 L2.40286135,3.05835052 C1.90521247,3.05835052 1.50178834,3.46157118 1.50178834,3.95896907 C1.49661388,4.19937616 1.58988551,4.43146926 1.76000413,4.60150208 C1.93012274,4.77153489 2.16233295,4.86475948 2.40286135,4.85958763 L4.28009678,4.85958763 C4.52062518,4.86475948 4.75283539,4.77153489 4.92295401,4.60150208 C5.09307262,4.43146926 5.18634425,4.19937616 5.18116979,3.95896907 L5.18116979,2.08268041 C5.19658846,1.84243391 5.1130682,1.60633085 4.94999118,1.42916262 C4.78691416,1.25199439 4.55845872,1.14916445 4.31764149,1.14453608 Z" id="Path"></path>
                            <path d="M4.41150326,6.75463918 C4.86763605,6.68885998 5.2046655,6.29585726 5.19994214,5.83525773 L5.19994214,4.84082474 L6.19487692,4.84082474 C6.65570886,4.84554572 7.04890989,4.50868625 7.11472228,4.05278351 C7.14681676,3.79834416 7.06886277,3.54229628 6.90040981,3.34885219 C6.73195685,3.1554081 6.48898292,3.04291626 6.23242163,3.03958763 L5.10608037,3.03958763 C4.16262104,3.03958763 3.39779613,3.8040268 3.39779613,4.74701031 L3.39779613,5.87278351 C3.40112644,6.12921541 3.51367505,6.37206679 3.70721675,6.54043479 C3.90075845,6.70880279 4.15693552,6.78671747 4.41150326,6.75463918 Z" id="Path"></path>
                        </g>
                        <ellipse id="Oval" fill="#001223" cx="101.671071" cy="52.3109278" rx="1" ry="1"></ellipse>
                        <path d="M102.816185,52.0294845 C102.816185,52.0294845 101.915112,51.4665979 101.389486,51.616701 C100.86386,51.7668041 100.169283,52.78 100.169283,52.78 L101.671071,51.954433 L102.816185,52.0294845 Z" id="Path" fill="#001223"></path>
                        <path d="M105.125184,55.8383505 C105.125184,55.8383505 104.824826,57.0204124 104.393062,57.0954639 C103.961298,57.1705155 102.38442,56.1385567 102.38442,56.1385567 L105.125184,55.8383505 Z" id="Path" fill="#FFFFFF"></path>
                        <path d="M102.947591,51.4290722 C102.621156,50.8923804 101.96771,50.6513491 101.370713,50.8474227 C100.787592,51.1336381 100.260017,51.5211785 99.8126078,51.9919588 C100.420681,51.704972 101.04793,51.4604682 101.689843,51.2602062 C102.116551,51.1892782 102.554737,51.2481093 102.947591,51.4290722 Z" id="Path" fill="#02252D"></path>
                        <path d="M104.768509,51.9731959 C104.768509,52.2734021 104.768509,52.4235052 105.162729,52.3296907 C105.556948,52.2358763 105.444314,51.1851546 105.162729,51.2789691 C104.868117,51.3695157 104.695239,51.6739562 104.768509,51.9731959 Z" id="Path" fill="#001223"></path>
                        <path d="M105.575721,51.5228866 C105.575721,51.5228866 105.744672,51.0725773 105.219046,51.128866 C104.69342,51.1851546 104.167794,51.9731959 104.167794,51.9731959 L105.425542,51.5041237 L105.575721,51.5228866 Z" id="Path" fill="#001223"></path>
                        <path d="M105.594493,50.6597938 C105.594493,50.6597938 105.988712,50.2282474 105.125184,50.3220619 C104.798015,50.3279137 104.514458,50.5500494 104.430607,50.8661856 C104.430607,50.8661856 104.430607,50.7536082 105.387997,50.7723711 C105.65081,50.791134 105.594493,50.6597938 105.594493,50.6597938 Z" id="Path" fill="#02252D"></path>
                        <polygon id="Path" fill="#FFAA2E" points="104.073932 51.3915464 105.275363 54.6750515 103.754802 54.8439175"></polygon>
                        <polygon id="Path" fill="#F4F4F4" points="211.564433 44.7119588 213.441668 44.3554639 211.808474 45.7626804"></polygon>
                        <g id="Group" opacity="0.31" transform="translate(152.056070, 48.783505)" fill="#21C4FC">
                            <path d="M4.09237324,-5.42101086e-20 C3.85184484,-0.00517185231 3.61963463,0.0880527363 3.44951601,0.258085553 C3.2793974,0.42811837 3.18612577,0.660211465 3.19130023,0.900618557 L3.19130023,1.87628866 L2.15882074,1.87628866 C1.66536138,1.88625554 1.26771965,2.28369673 1.25774774,2.77690722 C1.25774774,3.27430511 1.66117186,3.67752577 2.15882074,3.67752577 L4.03605618,3.67752577 C4.53370506,3.67752577 4.93712918,3.27430511 4.93712918,2.77690722 L4.93712918,0.900618557 C4.93806062,0.424398516 4.56790305,0.0297628994 4.09237324,-5.42101086e-20 Z" id="Path"></path>
                            <path d="M4.16746266,5.62886598 C4.62359544,5.56308678 4.9606249,5.17008406 4.95590154,4.70948454 L4.95590154,3.75257732 L5.96960867,3.75257732 C6.48799292,3.75257732 6.90822638,3.3325558 6.90822638,2.81443299 C6.90822638,2.29631018 6.48799292,1.87628866 5.96960867,1.87628866 L4.84326741,1.87628866 C3.89980808,1.87628866 3.13498317,2.64072783 3.13498317,3.58371134 L3.13498317,4.69072165 C3.1207693,4.96063136 3.22858889,5.2226517 3.42868328,5.40446395 C3.62877767,5.5862762 3.89998931,5.66865593 4.16746266,5.62886598 Z" id="Path"></path>
                        </g>
                        <path d="M44.5467968,3.95896907 C49.0797186,3.8709101 53.3269097,6.16490721 55.7370589,10.0030647 C58.1472081,13.8412221 58.3673448,18.6614351 56.3170629,22.7030928 C54.1690822,26.9258717 49.8850931,29.6388958 45.1475121,29.776701" id="Path" fill="#47ECBB"></path>
                        <ellipse id="Oval" fill="#21C4FC" cx="44.772065" cy="16.9428866" rx="11.976762" ry="11.9707216"></ellipse>
                        <path d="M44.8288581,-0.742085525 L45.8979303,-0.742085525 C46.234824,-0.742085525 46.5079303,-0.468979222 46.5079303,-0.132085525 L46.5079303,2.42115769 C46.5079303,2.75805139 46.234824,3.03115769 45.8979303,3.03115769 L44.8288581,3.03115769 C44.4919644,3.03115769 44.2188581,2.75805139 44.2188581,2.42115769 L44.2188581,-0.132085525 C44.2188581,-0.468979222 44.4919644,-0.742085525 44.8288581,-0.742085525 Z" id="Rectangle" fill="#47ECBB" transform="translate(45.363394, 1.144536) rotate(90.000000) translate(-45.363394, -1.144536) "></path>
                        <path d="M41.0926836,13.9971134 C41.0926836,15.4981443 40.5482853,16.3237113 39.5533505,16.3237113 C38.5584157,16.3237113 38.1078792,15.5169072 38.0891069,14.0534021 C38.0703345,12.5898969 38.7273669,11.745567 39.6284399,11.745567 C40.5295129,11.745567 41.0926836,12.5898969 41.0926836,13.9971134 Z M38.6898222,13.9971134 C38.6898222,15.1604124 39.0464969,15.8734021 39.5908952,15.8734021 C40.1352935,15.8734021 40.4919682,15.1416495 40.4919682,13.9971134 C40.4919682,12.8525773 40.2291553,12.1208247 39.6096676,12.1208247 C38.9901799,12.1208247 38.6898222,12.8525773 38.6898222,14.0534021 L38.6898222,13.9971134 Z" id="Shape" fill="#FFFFFF" fill-rule="nonzero"></path>
                        <path d="M41.7872607,15.5731959 C42.0914874,15.745491 42.4327527,15.8420268 42.7821955,15.8546392 C43.0285945,15.8864864 43.2770083,15.8130229 43.4664008,15.6522991 C43.6557933,15.4915752 43.7686095,15.2584886 43.7771302,15.0103093 C43.7771302,14.391134 43.2139596,14.1284536 42.6320166,14.1284536 L42.2941142,14.1284536 L42.2941142,13.6593814 L42.6320166,13.6593814 C43.0637808,13.6593814 43.6269514,13.4342268 43.6269514,12.908866 C43.6269514,12.3835052 43.4016831,12.2334021 42.8385125,12.2334021 C42.5200011,12.2374155 42.2110159,12.3425489 41.9562119,12.5336082 L41.806033,12.083299 C42.1461386,11.8604793 42.544497,11.7429902 42.9511466,11.745567 C43.8334473,11.745567 44.2276667,12.2709278 44.2276667,12.7962887 C44.2187247,13.2918522 43.8813044,13.7210797 43.4016831,13.8470103 C43.9677683,13.9218425 44.3921867,14.4020738 44.3966179,14.9727835 C44.3966179,15.6857732 43.8522197,16.3049485 42.7821955,16.3049485 C42.3796012,16.3165708 41.9821386,16.2123708 41.6370818,16.0047423 L41.7872607,15.5731959 Z" id="Path" fill="#FFFFFF"></path>
                        <path d="M45.1850568,15.8921649 C45.1799266,15.7794747 45.2211626,15.6695955 45.2991766,15.5880765 C45.3771906,15.5065576 45.4851849,15.460502 45.5980486,15.4606186 C45.7741872,15.4529571 45.9372926,15.5531038 46.0100759,15.7136035 C46.0828593,15.8741032 46.0506978,16.0627102 45.9288316,16.1900515 C45.8069654,16.3173929 45.6198782,16.3578847 45.4562228,16.2923397 C45.2925674,16.2267947 45.1852235,16.0683813 45.1850568,15.8921649 Z" id="Path" fill="#FFFFFF"></path>
                        <path d="M49.5026983,13.9971134 C49.5026983,15.4981443 48.9395277,16.3237113 47.9633652,16.3237113 C46.9872028,16.3237113 46.517894,15.5169072 46.4991216,14.0534021 C46.4803493,12.5898969 47.1373817,11.745567 48.0384547,11.745567 C48.9395277,11.745567 49.5026983,12.5898969 49.5026983,13.9971134 Z M47.0998369,13.9971134 C47.0998369,15.1604124 47.4565117,15.8734021 48.00091,15.8734021 C48.5453082,15.8734021 48.901983,15.1416495 48.901983,13.9971134 C48.901983,12.8525773 48.6203976,12.1208247 48.00091,12.1208247 C47.3814223,12.1208247 47.0998369,12.8525773 47.0998369,14.0534021 L47.0998369,13.9971134 Z" id="Shape" fill="#FFFFFF" fill-rule="nonzero"></path>
                        <path d="M52.9943562,13.9971134 C52.9943562,15.4981443 52.4311856,16.3237113 51.4550231,16.3237113 C50.4788607,16.3237113 50.0095519,15.5169072 49.9907795,14.0534021 C49.9720072,12.5898969 50.6290396,11.745567 51.5301126,11.745567 C52.4311856,11.745567 52.9943562,12.5898969 52.9943562,13.9971134 Z M50.6853566,14.0534021 C50.6853566,15.216701 51.0420313,15.9296907 51.5864296,15.9296907 C52.1308279,15.9296907 52.4875026,15.1979381 52.4875026,14.0534021 C52.4875026,12.908866 52.2059173,12.1771134 51.5864296,12.1771134 C50.9669419,12.1771134 50.6853566,12.8525773 50.6853566,14.0534021 Z" id="Shape" fill="#FFFFFF" fill-rule="nonzero"></path>
                        <path d="M39.9287976,23.1534021 C39.7439936,23.0338012 39.6050673,22.8552717 39.5345782,22.6468041 C39.3338674,22.140594 39.3338674,21.5769317 39.5345782,21.0707216 C39.6108262,20.8603342 39.7480732,20.6774305 39.9287976,20.5453608 C40.2842075,20.3207166 40.7372737,20.3207166 41.0926836,20.5453608 C41.2683408,20.6824767 41.4043894,20.8637834 41.486903,21.0707216 C41.6876138,21.5769317 41.6876138,22.140594 41.486903,22.6468041 C41.4094362,22.8514398 41.2720541,23.0279849 41.0926836,23.1534021 C40.7451862,23.4038648 40.276295,23.4038648 39.9287976,23.1534021 Z M41.0551389,23.1534021 C41.2190887,23.0211956 41.3426588,22.8456845 41.4118136,22.6468041 C41.5071369,22.4149892 41.5519341,22.1655304 41.5432201,21.9150515 C41.5512341,21.65853 41.50651,21.4030924 41.4118136,21.1645361 C41.342306,20.9710395 41.2184718,20.8016676 41.0551389,20.676701 C40.7275332,20.4503544 40.293948,20.4503544 39.9663423,20.676701 C39.8026848,20.8057074 39.6736693,20.973343 39.5908952,21.1645361 C39.504395,21.4053352 39.4599458,21.6592025 39.4594887,21.9150515 C39.4598289,22.1648009 39.5043148,22.412526 39.5908952,22.6468041 C39.6736879,22.8432624 39.8024422,23.0169931 39.9663423,23.1534021 C40.293948,23.3797487 40.7275332,23.3797487 41.0551389,23.1534021 Z" id="Shape" fill="#FFFFFF" fill-rule="nonzero"></path>
                        <path d="M44.0774879,22.0463918 C44.2099019,22.1741206 44.2844756,22.3502969 44.2839838,22.5342268 C44.2946112,22.7684676 44.1893288,22.9929569 44.0023985,23.1346392 C43.7590027,23.2801159 43.4785772,23.3518164 43.1951873,23.3410309 C42.9173875,23.3549584 42.6420531,23.2828834 42.4067484,23.1346392 C42.2152717,22.9949138 42.1033414,22.7711662 42.1063907,22.5342268 C42.1058989,22.3502969 42.1804726,22.1741206 42.3128866,22.0463918 C42.467732,21.9009743 42.6650869,21.8089218 42.8760572,21.7837113 C42.6931748,21.763781 42.5218007,21.6847251 42.387976,21.5585567 C42.2653075,21.4155866 42.2060221,21.2289368 42.2237206,21.041427 C42.2414192,20.8539173 42.3345825,20.6816421 42.4818378,20.5641237 C42.9242732,20.3132049 43.4661013,20.3132049 43.9085367,20.5641237 C44.0847448,20.6875672 44.1842403,20.8935609 44.1713497,21.1082474 C44.1722142,21.2739845 44.1120826,21.4342545 44.0023985,21.5585567 C43.8685738,21.6847251 43.6971997,21.763781 43.5143173,21.7837113 C43.7252876,21.8089218 43.9226425,21.9009743 44.0774879,22.0463918 Z M43.9273091,23.0595876 C44.1066304,22.9476557 44.2081241,22.7447707 44.190122,22.5342268 C44.1971097,22.3310601 44.0974669,22.1389887 43.9273091,22.0276289 C43.4776164,21.7540027 42.9127581,21.7540027 42.4630654,22.0276289 C42.2981869,22.1436756 42.2001393,22.332672 42.2002525,22.5342268 C42.1903256,22.7431462 42.2898895,22.9421735 42.4630654,23.0595876 C42.9127581,23.3332138 43.4776164,23.3332138 43.9273091,23.0595876 Z M42.5381548,21.5773196 C42.9476141,21.8009114 43.4427604,21.8009114 43.8522197,21.5773196 C44.0092083,21.4736254 44.101489,21.2962521 44.0962603,21.1082474 C44.1044315,20.9144732 44.01222,20.7301432 43.8522197,20.6204124 C43.4427604,20.3968205 42.9476141,20.3968205 42.5381548,20.6204124 C42.3903991,20.7384982 42.3069314,20.9192538 42.3128866,21.1082474 C42.3068301,21.2919915 42.3909308,21.467113 42.5381548,21.5773196 Z" id="Shape" fill="#FFFFFF" fill-rule="nonzero"></path>
                        <path d="M46.0673575,23.1534021 C45.8879869,23.0279849 45.7506048,22.8514398 45.673138,22.6468041 C45.4724273,22.140594 45.4724273,21.5769317 45.673138,21.0707216 C45.7556516,20.8637834 45.8917003,20.6824767 46.0673575,20.5453608 C46.2405503,20.4332011 46.4429411,20.3744721 46.6493004,20.3764948 C46.8618777,20.3718785 47.0710113,20.4306676 47.2500158,20.5453608 C47.425673,20.6824767 47.5617216,20.8637834 47.6442352,21.0707216 C47.820162,21.5813692 47.820162,22.1361565 47.6442352,22.6468041 C47.5667684,22.8514398 47.4293863,23.0279849 47.2500158,23.1534021 C47.0766542,23.2818202 46.8649723,23.3479375 46.6493004,23.3410309 C46.4398035,23.3451652 46.2349468,23.2791157 46.0673575,23.1534021 Z M47.1936987,23.1534021 C47.3631159,23.0222962 47.4930364,22.846992 47.5691458,22.6468041 C47.6644691,22.4149892 47.7092663,22.1655304 47.7005523,21.9150515 C47.7085663,21.65853 47.6638422,21.4030924 47.5691458,21.1645361 C47.4926487,20.9697222 47.3624677,20.8005723 47.1936987,20.676701 C47.0352957,20.5630158 46.8442678,20.5037612 46.6493004,20.5078351 C46.4550669,20.5087356 46.265518,20.5675314 46.1049022,20.676701 C45.9469536,20.8068367 45.8242979,20.9745966 45.7482274,21.1645361 C45.653531,21.4030924 45.6088069,21.65853 45.616821,21.9150515 C45.6081069,22.1655304 45.6529041,22.4149892 45.7482274,22.6468041 C45.8243518,22.8420302 45.9467469,23.0158723 46.1049022,23.1534021 C46.265518,23.2625717 46.4550669,23.3213675 46.6493004,23.322268 C46.850882,23.3103076 47.0426013,23.2310155 47.1936987,23.0971134 L47.1936987,23.1534021 Z" id="Shape" fill="#FFFFFF" fill-rule="nonzero"></path>
                        <path d="M49.7842836,21.9150515 C49.9616702,22.0626019 50.0590673,22.2851115 50.0470966,22.5154639 C50.0636869,22.7426578 49.9734713,22.9646152 49.803056,23.1158763 C49.6009367,23.2758103 49.347067,23.3559392 49.0897065,23.3410309 C48.8838196,23.3456 48.6792372,23.3072602 48.4889912,23.2284536 C48.3283489,23.1645273 48.1863416,23.0613014 48.0759994,22.9282474 C48.1727536,23.0549055 48.3027022,23.1523177 48.4514465,23.2096907 C48.6352368,23.2880665 48.8336135,23.3264427 49.0333894,23.322268 C49.2702146,23.3355414 49.503773,23.2621743 49.6904218,23.1158763 C49.8448232,22.978485 49.9278172,22.7780175 49.9156901,22.5717526 C49.9261681,22.3617917 49.8354432,22.1595073 49.6716495,22.0276289 C49.4694109,21.8853772 49.2234713,21.8189406 48.9770724,21.84 L48.8081212,21.84 L49.7655113,20.6016495 L48.0947717,20.6016495 L48.0947717,20.5078351 L49.8781454,20.5078351 L48.9207553,21.7649485 C49.217124,21.6985414 49.5277477,21.7525357 49.7842836,21.9150515 Z" id="Path" fill="#FFFFFF"></path>
                        <rect id="Rectangle" fill="#21C4FC" x="2.42163371" y="14.8226804" width="18.1528666" height="11.6142268"></rect>
                        <polygon id="Path" fill="#21C4FC" points="23.0149064 14.8226804 0 14.8226804 11.5074532 3.32103093"></polygon>
                        <rect id="Rectangle" fill="#47ECBB" x="8.12842941" y="16.0797938" width="6.75804755" height="6.75463918"></rect>
                        <rect id="Rectangle" fill="url(#linearGradient-1)" x="71.4663528" y="12.908866" width="4.50536503" height="4.05278351" rx="1.08"></rect>
                        <rect id="Rectangle" fill="#21C4FC" x="68.9133126" y="8.03051546" width="21.2315327" height="19.025567" rx="1"></rect>
                        <rect id="Rectangle" fill="#FFFFFF" x="77.3984168" y="12.908866" width="4.50536503" height="4.05278351" rx="1.08"></rect>
                        <rect id="Rectangle" fill="#47ECBB" x="71.4663528" y="12.908866" width="4.50536503" height="4.05278351" rx="1.08"></rect>
                        <rect id="Rectangle" fill="#FFFFFF" x="83.818562" y="12.908866" width="4.50536503" height="4.05278351" rx="1.08"></rect>
                        <rect id="Rectangle" fill="#FFFFFF" x="77.3984168" y="18.8191753" width="4.50536503" height="4.05278351" rx="1.08"></rect>
                        <rect id="Rectangle" fill="#FFFFFF" x="71.4663528" y="18.8191753" width="4.50536503" height="4.05278351" rx="1.08"></rect>
                        <rect id="Rectangle" fill="#FFFFFF" x="83.818562" y="18.8191753" width="4.50536503" height="4.05278351" rx="1.08"></rect>
                        <ellipse id="Oval" fill="#47ECBB" cx="85.6957974" cy="27.0560825" rx="5.93206396" ry="5.92907216"></ellipse>
                        <rect id="Rectangle" fill="#47ECBB" x="67.5053861" y="6.36061856" width="23.6531664" height="2.21402062" rx="0.59"></rect>
                        <ellipse id="Oval" fill="#FFFFFF" cx="85.8272039" cy="24.8608247" rx="1.37038186" ry="1.36969072"></ellipse>
                        <path d="M85.8272039,26.5682474 C84.3254155,26.5682474 83.7997896,28.782268 83.7810173,29.8142268 L87.8733905,29.8142268 C87.8546181,28.782268 87.3102199,26.5682474 85.8272039,26.5682474 Z" id="Path" fill="#FFFFFF"></path>
                        <path d="M8.46633179,21.4084536 L8.46633179,21.0331959 L8.93564065,20.6391753 C10.0807543,19.5696907 10.5876078,18.9880412 10.5876078,18.3313402 C10.6123717,18.0923178 10.5266683,17.8550635 10.3548464,17.6869821 C10.1830244,17.5189008 9.94386241,17.4383621 9.70530717,17.4682474 C9.35709682,17.4746362 9.02325007,17.6081076 8.76668946,17.8435052 L8.57896592,17.4119588 C8.91754338,17.0855071 9.36641325,16.8980143 9.83671365,16.8865979 C10.2098998,16.8284044 10.5892629,16.9435302 10.8670787,17.1992842 C11.1448946,17.4550381 11.2908181,17.8234849 11.2634126,18.2 C11.2634126,19.0068041 10.6814696,19.682268 9.74285188,20.5641237 L9.38617715,20.9018557 L11.2634126,20.9018557 L11.2634126,21.3896907 L8.46633179,21.4084536 Z" id="Path" fill="#FFFFFF"></path>
                        <path d="M14.6048916,17.4870103 L12.9153798,17.4870103 L12.7464286,18.6315464 L13.1218757,18.6315464 C13.4515172,18.6226194 13.7769477,18.7071887 14.0604934,18.8754639 C14.46808,19.1009472 14.7146713,19.535889 14.6987534,20.0012371 C14.7003516,20.4281347 14.522241,20.8360208 14.2079843,21.125134 C13.8937276,21.4142471 13.4723041,21.5579266 13.0467862,21.5210309 C12.6615358,21.5264352 12.2809675,21.4361764 11.9392173,21.2583505 L12.0893962,20.7892784 C12.3835191,20.9482497 12.7124147,21.0320435 13.0467862,21.0331959 C13.3151916,21.0539291 13.5802486,20.9629537 13.7792838,20.7817809 C13.978319,20.6006081 14.0936614,20.3453231 14.0980381,20.0762887 C14.0980381,19.5134021 13.7038186,19.1006186 12.821518,19.1006186 L12.2020303,19.1006186 L12.502388,16.9804124 L14.6048916,16.9804124 L14.6048916,17.4870103 Z" id="Path" fill="#FFFFFF"></path>
                    </g>
                </g>
            </g>
        </g>
    </g>
</svg>