<?xml version="1.0" encoding="UTF-8"?>
<svg viewBox="0 0 213 198" version="1.1" xmlns="http://www.w3.org/2000/svg" xmlns:xlink="http://www.w3.org/1999/xlink">
    <g id="Page-1" stroke="none" stroke-width="1" fill="none" fill-rule="evenodd">
        <g id="home_1" transform="translate(-850.000000, -2314.000000)">
            <g id="unlock" transform="translate(219.000000, 1753.000000)">
                <g id="4" transform="translate(601.000000, 521.000000)">
                    <g id="24" transform="translate(30.000000, 40.000000)">
                        <rect id="Rectangle" fill="#B4BAC3" x="0" y="0" width="211.901306" height="148.060559" rx="7"></rect>
                        <rect id="Rectangle" fill="#E6E8EB" x="0" y="2.79258864" width="212.717744" height="149.732555" rx="7"></rect>
                        <rect id="Rectangle" fill="#FFFFFF" x="1.6506258" y="5.86977229" width="209.434241" height="144.698781" rx="7"></rect>
                        <rect id="Rectangle" fill="#E6E8EB" x="7.77391506" y="22.9098991" width="197.169914" height="110.067124"></rect>
                        <rect id="Rectangle" fill="#E6E8EB" x="96.1800131" y="140.58994" width="18.9555737" height="1.12059289" rx="0.31"></rect>
                        <rect id="Rectangle" fill="#E6E8EB" x="117.371919" y="140.58994" width="3.9047062" height="1.12059289" rx="0.31"></rect>
                        <ellipse id="Oval" fill="#42566E" cx="16.1335361" cy="1.67199574" rx="1" ry="1"></ellipse>
                        <ellipse id="Oval" fill="#42566E" cx="196.850438" cy="1.95659076" rx="1" ry="1"></ellipse>
                        <rect id="Rectangle" fill="#FFFFFF" x="16.4175147" y="111.187717" width="89.7727452" height="9.40942286" rx="2.65"></rect>
                        <ellipse id="Oval" fill="#21C4FC" cx="87.4121728" cy="115.883535" rx="6.53150855" ry="6.54568547"></ellipse>
                        <path d="M90.8376651,113.660136 C90.6667462,113.479574 90.4293091,113.377317 90.1809645,113.377317 C89.9326198,113.377317 89.6951828,113.479574 89.5242639,113.660136 L86.7377236,116.257066 L85.3355791,114.762942 C84.9717844,114.446948 84.42864,114.457218 84.0769983,114.78674 C83.7253566,115.116261 83.6787202,115.658672 83.9689319,116.043619 L85.9390337,118.160295 C86.1229751,118.356294 86.3805158,118.465987 86.6489802,118.462677 C86.9161427,118.489712 87.1818071,118.3988 87.3766755,118.213657 L90.8021677,115.02975 C90.9994788,114.859507 91.1158598,114.613663 91.1226201,114.352822 C91.1293805,114.091982 91.0258914,113.840415 90.8376651,113.660136 Z" id="Path" fill="#FFFFFF"></path>
                        <rect id="Rectangle" fill="#FFFFFF" x="15.9915467" y="33.6177868" width="179.563239" height="62.6998404"></rect>
                        <polygon id="Path" fill="#B4BAC3" points="86.8619642 95.268183 103.155238 74.8307031 119.430764 95.268183"></polygon>
                        <polygon id="Path" fill="#6366AD" points="62.2978125 95.268183 80.7031776 44.1478025 99.1262914 95.268183"></polygon>
                        <polygon id="Path" fill="#FDBF5D" points="45.5430732 95.268183 63.912941 55.9940702 79.993231 95.268183"></polygon>
                        <polygon id="Path" fill="#0E2E51" points="17.5889266 95.268183 36.8817249 80.8961345 56.1922719 95.268183"></polygon>
                        <ellipse id="Oval" fill="#0E2E51" cx="36.8817249" cy="76.7517195" rx="1.77486645" ry="1.77871888"></ellipse>
                        <ellipse id="Oval" fill="#0E2E51" cx="103.155238" cy="71.4155629" rx="1.77486645" ry="1.77871888"></ellipse>
                        <ellipse id="Oval" fill="#0E2E51" cx="80.6676803" cy="38.8116459" rx="1.77486645" ry="1.77871888"></ellipse>
                        <ellipse id="Oval" fill="#0E2E51" cx="64.5518929" cy="51.262678" rx="1.77486645" ry="1.77871888"></ellipse>
                        <rect id="Rectangle" fill="#0E2E51" x="134.49938" y="41.1595548" width="49.9092447" height="2.17003703" rx="0.61"></rect>
                        <rect id="Rectangle" fill="#E6E8EB" x="134.49938" y="44.7169926" width="49.9092447" height="2.17003703" rx="0.61"></rect>
                        <rect id="Rectangle" fill="#FDBF5D" x="134.49938" y="55.3893058" width="49.9092447" height="2.17003703" rx="0.61"></rect>
                        <rect id="Rectangle" fill="#E6E8EB" x="134.49938" y="58.9467436" width="49.9092447" height="2.17003703" rx="0.61"></rect>
                        <rect id="Rectangle" fill="#6366AD" x="134.49938" y="69.6190568" width="49.9092447" height="2.17003703" rx="0.61"></rect>
                        <rect id="Rectangle" fill="#E6E8EB" x="134.49938" y="73.1764946" width="49.9092447" height="2.17003703" rx="0.61"></rect>
                        <rect id="Rectangle" fill="#B4BAC3" x="134.49938" y="83.8488078" width="49.9092447" height="2.17003703" rx="0.61"></rect>
                        <rect id="Rectangle" fill="#E6E8EB" x="134.49938" y="87.4062456" width="49.9092447" height="2.17003703" rx="0.61"></rect>
                        <path d="M156.596467,103.521439 C156.596467,103.521439 152.212547,104.072841 151.058884,103.307992 C149.905221,102.543143 148.822552,98.5232386 148.822552,98.5232386 L154.981339,100.462042 L158.318088,101.99174 L156.596467,103.521439 Z" id="Path" fill="#FDDCA5"></path>
                        <polygon id="Path" fill="#FDDCA5" points="185.065325 176.271041 186.46747 192.208362 182.899988 193.684698 180.592662 174.670194"></polygon>
                        <path d="M186.165742,188.010585 C186.766856,189.525298 187.207085,191.099255 187.479143,192.706403 C187.159667,194.30725 172.64126,194.912014 172.64126,194.912014 C168.133099,194.787504 181.888314,188.099521 181.888314,188.099521 L186.165742,188.010585 Z" id="Path" fill="#0E2E51"></path>
                        <path d="M181.639833,103.165695 C177.192952,108.44305 174.758955,115.130586 174.7711,122.037902 C174.487121,132.372259 175.321308,149.608045 175.321308,149.608045 L181.515592,185.858335 L186.218988,183.510426 C186.218988,183.510426 187.780871,168.071147 187.035427,161.383164 C186.7337,158.608362 184.639357,153.236631 184.7281,150.426255 C184.958833,142.190787 189.165267,124.937214 188.118095,116.790681 C187.727625,113.713498 183.947159,107.096664 183.947159,107.096664 L181.639833,103.165695 Z" id="Path" fill="#0E2E51"></path>
                        <polygon id="Path" fill="#FDDCA5" points="203.34645 177.444995 209.18576 192.101639 206.239482 194.502909 198.678551 177.195974"></polygon>
                        <path d="M208.724295,189.575858 C209.424053,191.023262 209.959852,192.544656 210.321675,194.111591 C210.126439,195.694651 195.856513,197.259923 195.856513,197.259923 C191.419347,197.455582 204.517861,189.949389 204.517861,189.949389 L208.724295,189.575858 Z" id="Path" fill="#0E2E51"></path>
                        <path d="M179.368004,109.266701 C176.658115,115.521796 176.255503,122.538678 178.232089,129.063842 C180.894389,138.917944 186.573962,154.961989 186.573962,154.961989 L202.707498,187.47697 L207.517386,183.919532 C207.517386,183.919532 202.796241,169.369611 200.187187,163.268606 C199.104519,160.725038 196.122743,155.744625 195.412796,153.058759 C193.300705,145.214609 193.3717,127.712015 190.088197,120.312545 C188.845791,117.502169 182.669255,112.326097 182.669255,112.326097 L179.368004,109.266701 Z" id="Path" fill="#0E2E51"></path>
                        <path d="M178.835544,79.526521 C177.798456,78.3753044 177.09833,76.9597035 176.812196,75.4354675 L175.463298,75.1330853 C175.878803,74.2203582 176.217214,73.2743233 176.474971,72.3049223 C176.474971,70.7930113 175.055078,68.4273152 177.078426,66.2750653 C178.853292,64.4963465 186.272234,66.2750653 187.283908,68.3383792 C188.064849,70.0281622 186.396475,76.0758063 189.413748,82.2835352 C190.017202,83.5464256 191.188614,87.2817353 191.188614,87.2817353 L187.266159,99.7327674 L181.4091,90.5190036 L183.716427,83.582 C184.160143,82.3191096 182.278785,78.5838 182.278785,78.5838 C182.278785,78.5838 180.113448,80.6115395 178.835544,79.526521 Z" id="Path" fill="#FDDCA5"></path>
                        <path d="M184.976582,71.8424554 C187.461395,67.1999992 182.722501,70.9175216 182.527266,70.0637365 C181.67533,66.9509785 178.764549,67.0221273 177.699629,66.8442554 C171.913565,65.9371087 174.149896,64.2829002 177.468897,63.0022226 C179.882715,62.0772888 180.592662,60.0851236 183.929411,61.2235037 C188.72155,63.0022226 191.028876,63.1267329 190.673903,69.352249 C190.673903,70.6329266 189.129769,75.6844882 188.277833,75.9690832 C187.425897,76.2536782 183.556689,74.5105337 184.976582,71.8424554 Z" id="Path" fill="#0E2E51"></path>
                        <path d="M174.735602,104.055054 L177.664132,91.8352556 C177.664132,91.8352556 181.338106,83.1906819 183.840667,82.1945993 C185.740952,81.6903626 187.666383,81.2866288 189.608983,80.9850704 C191.099871,83.2440434 194.933583,85.752037 194.312379,94.7523545 C193.90416,104.46416 193.176465,124.439173 193.566935,128.459077 C193.566935,128.459077 171.097126,129.33065 171.700581,126.680358 C175.356806,110.138273 174.735602,104.055054 174.735602,104.055054 Z" id="Path" fill="#21C4FC"></path>
                        <path d="M192.484267,92.1376378 C191.721074,94.6634186 178.88879,107.505769 178.88879,107.505769 L154.732857,104.944414 L155.105579,100.586552 L176.208741,100.586552 C176.208741,100.586552 184.408624,89.8075161 186.343229,87.7797766 C186.343229,87.7797766 191.437096,86.3923758 192.413272,87.7797766 C192.903492,89.187029 192.928386,90.7150978 192.484267,92.1376378 Z" id="Path" fill="#33D4FF"></path>
                        <polygon id="Path" fill="#FFFFFF" points="177.255913 78.6549487 179.084025 76.6805708 177.078426 77.5699302"></polygon>
                        <g id="Group" opacity="0.31" transform="translate(26.622997, 42.689253)" fill="#21C4FC">
                            <path d="M3.8514602,0.835997872 C3.38491005,0.845446459 3.00895243,1.22222012 2.99952431,1.68978293 L2.99952431,2.66807831 L2.04109642,2.66807831 C1.81368446,2.66317541 1.59413709,2.75155218 1.43329534,2.91274304 C1.2724536,3.0739339 1.18426823,3.29395781 1.18916052,3.52186338 C1.18916052,3.99339584 1.57058522,4.37564844 2.04109642,4.37564844 L3.81596287,4.37564844 C4.28647408,4.37564844 4.66789877,3.99339584 4.66789877,3.52186338 L4.66789877,1.77871888 C4.6926498,1.54338241 4.61882921,1.30830673 4.46405401,1.1295917 C4.3092788,0.950876676 4.08743336,0.844554261 3.8514602,0.835997872 Z" id="Path"></path>
                            <path d="M3.94020353,6.15436731 C4.36870933,6.10027699 4.6890332,5.73339796 4.68564744,5.30058225 L4.68564744,4.34007406 L5.62632666,4.34007406 C6.06202862,4.34454954 6.4337877,4.02520726 6.49601122,3.59301213 C6.52635553,3.351804 6.45265251,3.109071 6.29338559,2.92568629 C6.13411866,2.74230158 5.90439454,2.63565947 5.66182399,2.63250394 L4.59690411,2.63250394 C3.70489329,2.63250394 2.98177564,3.35719114 2.98177564,4.25113811 L2.98177564,5.33615663 C2.98986183,5.5761203 3.09839531,5.80158114 3.2807743,5.95727823 C3.46315329,6.11297533 3.70251941,6.18451667 3.94020353,6.15436731 Z" id="Path"></path>
                        </g>
                        <g id="Group" opacity="0.31" transform="translate(46.146528, 55.140285)" fill="#21C4FC">
                            <path d="M3.26575427,0.249020643 C3.03980683,0.249020643 2.8231136,0.338972739 2.66334462,0.499088497 C2.50357565,0.659204256 2.41381838,0.876367827 2.41381838,1.1028057 L2.41381838,2.08110109 L1.43764183,2.08110109 C1.107243,2.03293147 0.779220632,2.18261904 0.598557538,2.4640033 C0.417894444,2.74538756 0.417894444,3.10659754 0.598557538,3.3879818 C0.779220632,3.66936606 1.107243,3.81905364 1.43764183,3.77088402 L3.21250828,3.77088402 C3.68301948,3.77088402 4.06444418,3.38863143 4.06444418,2.91709896 L4.06444418,1.13838008 C4.08468033,0.673284413 3.72940283,0.277674806 3.26575427,0.249020643 Z" id="Path"></path>
                            <path d="M3.33674893,5.56739008 C3.77211695,5.51260286 4.09475314,5.13537697 4.08219284,4.69581783 L4.08219284,3.75309683 L5.04062073,3.75309683 C5.47353701,3.75000721 5.84104791,3.43431412 5.91030529,3.0060349 C5.93521264,2.76296719 5.857164,2.52058399 5.69518092,2.33795749 C5.53319785,2.15533099 5.30215813,2.04923504 5.05836939,2.04552671 L4.01119818,2.04552671 C3.58283948,2.04552671 3.17202523,2.21606089 2.86912989,2.51961368 C2.56623454,2.82316647 2.39606971,3.23487241 2.39606971,3.66416089 L2.39606971,4.73139221 C2.39409683,4.97290573 2.49644435,5.20347271 2.67675647,5.36371921 C2.85706858,5.5239657 3.09772329,5.59823072 3.33674893,5.56739008 Z" id="Path"></path>
                        </g>
                        <g id="Group" opacity="0.31" transform="translate(95.842788, 44.467972)" fill="#21C4FC">
                            <path d="M3.37224626,0.996082571 C3.01349318,1.00542575 2.72486861,1.29467678 2.71554567,1.65420856 L2.71554567,2.40127048 L1.97010176,2.40127048 C1.61436574,2.41090934 1.33101984,2.70275805 1.33114984,3.05939647 C1.33114984,3.41304582 1.61721836,3.69973526 1.97010176,3.69973526 L3.37224626,3.69973526 C3.72811226,3.69986554 4.01932887,3.41590463 4.02894685,3.05939647 L4.02894685,1.65420856 C4.01962391,1.29467678 3.73099934,1.00542575 3.37224626,0.996082571 Z" id="Path"></path>
                            <path d="M3.42549225,5.08713599 C3.7629627,5.04225841 4.01415627,4.75237737 4.01119818,4.41122281 L4.01119818,3.68194807 L4.73889343,3.68194807 C4.99592894,3.72473101 5.25389247,3.61117542 5.39634796,3.39253647 C5.53880345,3.17389752 5.53880345,2.89153385 5.39634796,2.6728949 C5.25389247,2.45425595 4.99592894,2.34070036 4.73889343,2.38348329 L3.92245486,2.38348329 C3.23629269,2.38348329 2.68004834,2.94093499 2.68004834,3.62858651 L2.68004834,4.42901 C2.67829798,4.62011716 2.7595277,4.80254842 2.90262212,4.92888141 C3.04571655,5.0552144 3.23654134,5.11297042 3.42549225,5.08713599 Z" id="Path"></path>
                        </g>
                        <g id="Group" opacity="0.31" transform="translate(111.816587, 53.361566)" fill="#21C4FC">
                            <path d="M2.57355636,0.533615663 C2.21769036,0.533485385 1.92647375,0.817446294 1.91685577,1.17395446 L1.91685577,1.92101639 L1.17141186,1.92101639 C0.80872617,1.92101643 0.51471135,2.21566946 0.51471135,2.57914237 C0.51471135,2.94261528 0.80872617,3.23726831 1.17141186,3.23726836 L2.57355636,3.23726836 C2.93230944,3.22792518 3.220934,2.93867414 3.23025694,2.57914237 L3.23025694,1.17395446 C3.22063897,0.817446294 2.92942235,0.533485385 2.57355636,0.533615663 Z" id="Path"></path>
                            <path d="M2.62680235,4.60688189 C2.9576152,4.56292978 3.20662097,4.28313549 3.21250828,3.94875591 L3.21250828,3.21948117 L3.94020353,3.21948117 C4.2738589,3.21358108 4.55304719,2.96403483 4.59690411,2.63250394 C4.6168517,2.44905584 4.55903169,2.26564214 4.43753957,2.12697579 C4.31604745,1.98830943 4.14204548,1.90713059 3.95795219,1.9032292 L3.14151362,1.9032292 C2.45934307,1.91279215 1.90864935,2.46468118 1.8991071,3.14833241 L1.8991071,3.96654309 C1.90300005,4.15103597 1.98400306,4.32541561 2.12236909,4.44717144 C2.26073512,4.56892727 2.44375157,4.62687277 2.62680235,4.60688189 Z" id="Path"></path>
                        </g>
                        <ellipse id="Oval" fill="#001223" cx="176.634709" cy="71.237691" rx="1" ry="1"></ellipse>
                        <path d="M175.711779,71.1487551 C175.895818,70.8573243 176.203512,70.6670582 176.545966,70.6329266 C177.152267,70.7324711 177.746931,70.893379 178.320833,71.1131807 L175.711779,71.1487551 Z" id="Path" fill="#001223"></path>
                        <path d="M175.410052,70.4728419 C176.018951,70.2865629 176.655639,70.208309 177.29141,70.2416084 C177.774253,70.3083667 178.263957,70.3083667 178.7468,70.2416084 C178.327085,70.1273499 177.917479,69.9786199 177.522143,69.7969287 C176.917334,69.7188541 176.303283,69.7550532 175.711779,69.9036518 L175.410052,70.4728419 Z" id="Path" fill="#516174"></path>
                    </g>
                </g>
            </g>
        </g>
    </g>
</svg>