<?xml version="1.0" encoding="UTF-8"?>
<svg viewBox="0 0 141 38" version="1.1" xmlns="http://www.w3.org/2000/svg" xmlns:xlink="http://www.w3.org/1999/xlink">
    <g id="Page-1" stroke="none" stroke-width="1" fill="none" fill-rule="evenodd">
        <g id="home_1" transform="translate(-80.000000, -45.000000)">
            <g id="header" transform="translate(80.000000, 45.000000)">
                <g id="logo_d">
                    <g id="logo">
                        <path d="M18.6417742,0 C15.3957452,0.0415028393 12.7783523,2.67022641 12.7508715,5.9164044 L12.7508715,12.7508715 L5.9164044,12.7508715 C2.79253246,12.9558533 0.36355658,15.5494369 0.36355658,18.6800268 C0.36355658,21.8106167 2.79253246,24.4042004 5.9164044,24.6091821 L18.6672759,24.6091821 C20.2408561,24.6024579 21.7469294,23.9691391 22.8524271,22.8492844 C23.9579247,21.7294296 24.5717584,20.2153102 24.5581786,18.6417742 L24.5581786,5.89090265 C24.5302948,2.63912977 21.8936372,0.0138370709 18.6417742,0 Z" id="Path" fill="#47ECBB"></path>
                        <path d="M19.1773108,37.0540327 C22.1424733,36.5856014 24.3144324,34.0118298 24.2776594,31.0101196 L24.2776594,24.3796664 L30.9081126,24.3796664 C33.9098229,24.4164394 36.4835944,22.2444803 36.9520257,19.2793178 C37.147774,17.5944426 36.6172535,15.9058768 35.4930754,14.6357015 C34.3688972,13.3655262 32.7572992,12.6337762 31.0611231,12.6233628 L23.7931263,12.6233628 C17.6132112,12.6369195 12.5910919,17.6135898 12.5213559,23.7931263 L12.5213559,31.1631301 C12.5317692,32.8593062 13.2635192,34.4709042 14.5336945,35.5950823 C15.8038699,36.7192605 17.4924356,37.249781 19.1773108,37.0540327 Z" id="Path" fill="#21C4FC"></path>
                    </g>
                    <path d="M56.892,14.444 L51.798,14.444 L50.898,17 L48.216,17 L52.896,4.436 L55.794,4.436 L60.456,17 L57.774,17 L56.892,14.444 Z M56.208,12.518 L54.336,7.154 L52.464,12.518 L56.208,12.518 Z M66.782,6.902 C67.6220042,6.902 68.3779966,7.10599796 69.05,7.514 C69.7220034,7.92200204 70.2469981,8.51299613 70.625,9.287 C71.0030019,10.0610039 71.192,10.9699948 71.192,12.014 C71.192,13.0580052 71.0030019,13.9669961 70.625,14.741 C70.2469981,15.5150039 69.7220034,16.105998 69.05,16.514 C68.3779966,16.922002 67.6220042,17.126 66.782,17.126 C65.9419958,17.126 65.225003,16.925002 64.631,16.523 C64.036997,16.120998 63.6140013,15.5840034 63.362,14.912 L63.362,21.752 L60.824,21.752 L60.824,7.028 L63.362,7.028 L63.362,9.098 C63.6140013,8.42599664 64.036997,7.89200198 64.631,7.496 C65.225003,7.09999802 65.9419958,6.902 66.782,6.902 Z M65.99,9.116 C65.2219962,9.116 64.5890025,9.37699739 64.091,9.899 C63.5929975,10.4210026 63.344,11.1259956 63.344,12.014 C63.344,12.8900044 63.5929975,13.5889974 64.091,14.111 C64.5890025,14.6330026 65.2219962,14.894 65.99,14.894 C66.782004,14.894 67.4179976,14.6390025 67.898,14.129 C68.3780024,13.6189974 68.618,12.9140045 68.618,12.014 C68.618,11.1139955 68.3780024,10.4060026 67.898,9.89 C67.4179976,9.37399742 66.782004,9.116 65.99,9.116 Z M77.95,6.902 C78.7900042,6.902 79.5459966,7.10599796 80.218,7.514 C80.8900034,7.92200204 81.4149981,8.51299613 81.793,9.287 C82.1710019,10.0610039 82.36,10.9699948 82.36,12.014 C82.36,13.0580052 82.1710019,13.9669961 81.793,14.741 C81.4149981,15.5150039 80.8900034,16.105998 80.218,16.514 C79.5459966,16.922002 78.7900042,17.126 77.95,17.126 C77.1099958,17.126 76.393003,16.925002 75.799,16.523 C75.204997,16.120998 74.7820013,15.5840034 74.53,14.912 L74.53,21.752 L71.992,21.752 L71.992,7.028 L74.53,7.028 L74.53,9.098 C74.7820013,8.42599664 75.204997,7.89200198 75.799,7.496 C76.393003,7.09999802 77.1099958,6.902 77.95,6.902 Z M77.158,9.116 C76.3899962,9.116 75.7570025,9.37699739 75.259,9.899 C74.7609975,10.4210026 74.512,11.1259956 74.512,12.014 C74.512,12.8900044 74.7609975,13.5889974 75.259,14.111 C75.7570025,14.6330026 76.3899962,14.894 77.158,14.894 C77.950004,14.894 78.5859976,14.6390025 79.066,14.129 C79.5460024,13.6189974 79.786,12.9140045 79.786,12.014 C79.786,11.1139955 79.5460024,10.4060026 79.066,9.89 C78.5859976,9.37399742 77.950004,9.116 77.158,9.116 Z M85.698,8.936 C86.0700019,8.29999682 86.5619969,7.79900183 87.174,7.433 C87.7860031,7.06699817 88.4699962,6.884 89.226,6.884 L89.226,9.602 L88.488,9.602 C86.6279907,9.602 85.698,10.4659914 85.698,12.194 L85.698,17 L83.16,17 L83.16,7.028 L85.698,7.028 L85.698,8.936 Z M99.008,11.636 C99.008,11.8880013 98.9780003,12.1759984 98.918,12.5 L91.61,12.5 C91.6460002,13.3880044 91.8859978,14.0419979 92.33,14.462 C92.7740022,14.8820021 93.3259967,15.092 93.986,15.092 C94.5740029,15.092 95.0629981,14.9480014 95.453,14.66 C95.843002,14.3719986 96.0919995,13.9820025 96.2,13.49 L98.882,13.49 C98.7499993,14.1860035 98.4680022,14.8099972 98.036,15.362 C97.6039978,15.9140028 97.0490034,16.3459984 96.371,16.658 C95.6929966,16.9700016 94.9400041,17.126 94.112,17.126 C93.1399951,17.126 92.2760038,16.9190021 91.52,16.505 C90.7639962,16.0909979 90.1760021,15.5000038 89.756,14.732 C89.3359979,13.9639962 89.126,13.0580052 89.126,12.014 C89.126,10.9699948 89.3359979,10.0610039 89.756,9.287 C90.1760021,8.51299613 90.7639962,7.92200204 91.52,7.514 C92.2760038,7.10599796 93.1399951,6.902 94.112,6.902 C95.0960049,6.902 95.9569963,7.10599796 96.695,7.514 C97.4330037,7.92200204 98.002998,8.48299643 98.405,9.197 C98.807002,9.91100357 99.008,10.7239954 99.008,11.636 Z M96.452,11.384 C96.4880002,10.5679959 96.2750023,9.9500021 95.813,9.53 C95.3509977,9.1099979 94.7840034,8.9 94.112,8.9 C93.4279966,8.9 92.8520023,9.1099979 92.384,9.53 C91.9159977,9.9500021 91.6580002,10.5679959 91.61,11.384 L96.452,11.384 Z M105.748,6.884 C106.900006,6.884 107.817997,7.26199622 108.502,8.018 C109.186003,8.77400378 109.528,9.83599316 109.528,11.204 L109.528,17 L107.008,17 L107.008,11.492 C107.008,10.699996 106.804002,10.0850022 106.396,9.647 C105.987998,9.20899781 105.430004,8.99 104.722,8.99 C104.001996,8.99 103.426002,9.22399766 102.994,9.692 C102.561998,10.1600023 102.346,10.8319956 102.346,11.708 L102.346,17 L99.808,17 L99.808,7.028 L102.346,7.028 L102.346,9.026 C102.610001,8.35399664 103.044997,7.82900189 103.651,7.451 C104.257003,7.07299811 104.955996,6.884 105.748,6.884 Z M116.088,14.822 L116.088,17 L114.756,17 C113.639994,17 112.785003,16.7300027 112.191,16.19 C111.596997,15.6499973 111.3,14.7500063 111.3,13.49 L111.3,9.17 L109.914,9.17 L109.914,7.028 L111.3,7.028 L111.3,4.562 L113.838,4.562 L113.838,7.028 L116.07,7.028 L116.07,9.17 L113.838,9.17 L113.838,13.526 C113.838,14.0060024 113.933999,14.341999 114.126,14.534 C114.318001,14.726001 114.641998,14.822 115.098,14.822 L116.088,14.822 Z M116.618,4.166 C116.618,3.75799796 116.761999,3.42500129 117.05,3.167 C117.338001,2.90899871 117.715998,2.78 118.184,2.78 C118.652002,2.78 119.029999,2.90899871 119.318,3.167 C119.606001,3.42500129 119.75,3.75799796 119.75,4.166 C119.75,4.56200198 119.606001,4.88899871 119.318,5.147 C119.029999,5.40500129 118.652002,5.534 118.184,5.534 C117.715998,5.534 117.338001,5.40500129 117.05,5.147 C116.761999,4.88899871 116.618,4.56200198 116.618,4.166 Z M119.444,7.028 L119.444,17 L116.906,17 L116.906,7.028 L119.444,7.028 Z M125.23,6.902 C126.514006,6.902 127.584996,7.24999652 128.443,7.946 C129.301004,8.64200348 129.837999,9.589994 130.054,10.79 L127.372,10.79 C127.263999,10.2619974 127.018002,9.84500153 126.634,9.539 C126.249998,9.23299847 125.764003,9.08 125.176,9.08 C124.503997,9.08 123.943002,9.32899751 123.493,9.827 C123.042998,10.3250025 122.818,11.0539952 122.818,12.014 C122.818,12.9740048 123.042998,13.7029975 123.493,14.201 C123.943002,14.6990025 124.503997,14.948 125.176,14.948 C125.764003,14.948 126.249998,14.7950015 126.634,14.489 C127.018002,14.1829985 127.263999,13.7660026 127.372,13.238 L130.054,13.238 C129.837999,14.438006 129.301004,15.3859965 128.443,16.082 C127.584996,16.7780035 126.514006,17.126 125.23,17.126 C124.257995,17.126 123.394004,16.9190021 122.638,16.505 C121.881996,16.0909979 121.294002,15.5000038 120.874,14.732 C120.453998,13.9639962 120.244,13.0580052 120.244,12.014 C120.244,10.9699948 120.453998,10.0610039 120.874,9.287 C121.294002,8.51299613 121.881996,7.92200204 122.638,7.514 C123.394004,7.10599796 124.257995,6.902 125.23,6.902 Z M140.232,11.636 C140.232,11.8880013 140.202,12.1759984 140.142,12.5 L132.834,12.5 C132.87,13.3880044 133.109998,14.0419979 133.554,14.462 C133.998002,14.8820021 134.549997,15.092 135.21,15.092 C135.798003,15.092 136.286998,14.9480014 136.677,14.66 C137.067002,14.3719986 137.315999,13.9820025 137.424,13.49 L140.106,13.49 C139.973999,14.1860035 139.692002,14.8099972 139.26,15.362 C138.827998,15.9140028 138.273003,16.3459984 137.595,16.658 C136.916997,16.9700016 136.164004,17.126 135.336,17.126 C134.363995,17.126 133.500004,16.9190021 132.744,16.505 C131.987996,16.0909979 131.400002,15.5000038 130.98,14.732 C130.559998,13.9639962 130.35,13.0580052 130.35,12.014 C130.35,10.9699948 130.559998,10.0610039 130.98,9.287 C131.400002,8.51299613 131.987996,7.92200204 132.744,7.514 C133.500004,7.10599796 134.363995,6.902 135.336,6.902 C136.320005,6.902 137.180996,7.10599796 137.919,7.514 C138.657004,7.92200204 139.226998,8.48299643 139.629,9.197 C140.031002,9.91100357 140.232,10.7239954 140.232,11.636 Z M137.676,11.384 C137.712,10.5679959 137.499002,9.9500021 137.037,9.53 C136.574998,9.1099979 136.008003,8.9 135.336,8.9 C134.651997,8.9 134.076002,9.1099979 133.608,9.53 C133.139998,9.9500021 132.882,10.5679959 132.834,11.384 L137.676,11.384 Z M59.682,22.292 L59.682,35 L57.126,35 L57.126,29.474 L51.69,29.474 L51.69,35 L49.152,35 L49.152,22.292 L51.69,22.292 L51.69,27.44 L57.126,27.44 L57.126,22.292 L59.682,22.292 Z M70.364,29.636 C70.364,29.8880013 70.3340003,30.1759984 70.274,30.5 L62.966,30.5 C63.0020002,31.3880044 63.2419978,32.0419979 63.686,32.462 C64.1300022,32.8820021 64.6819967,33.092 65.342,33.092 C65.9300029,33.092 66.418998,32.9480014 66.809,32.66 C67.1990019,32.3719986 67.4479995,31.9820025 67.556,31.49 L70.238,31.49 C70.1059993,32.1860035 69.8240022,32.8099972 69.392,33.362 C68.9599978,33.9140028 68.4050034,34.3459984 67.727,34.658 C67.0489966,34.9700016 66.2960041,35.126 65.468,35.126 C64.4959951,35.126 63.6320038,34.9190021 62.876,34.505 C62.1199962,34.0909979 61.5320021,33.5000038 61.112,32.732 C60.6919979,31.9639962 60.482,31.0580052 60.482,30.014 C60.482,28.9699948 60.6919979,28.0610039 61.112,27.287 C61.5320021,26.5129961 62.1199962,25.922002 62.876,25.514 C63.6320038,25.105998 64.4959951,24.902 65.468,24.902 C66.4520049,24.902 67.3129963,25.105998 68.051,25.514 C68.7890037,25.922002 69.358998,26.4829964 69.761,27.197 C70.163002,27.9110036 70.364,28.7239954 70.364,29.636 Z M67.808,29.384 C67.8440002,28.5679959 67.6310023,27.9500021 67.169,27.53 C66.7069977,27.1099979 66.1400034,26.9 65.468,26.9 C64.7839966,26.9 64.2080023,27.1099979 63.74,27.53 C63.2719977,27.9500021 63.0140002,28.5679959 62.966,29.384 L67.808,29.384 Z M75.07,24.902 C75.9100042,24.902 76.629997,25.099998 77.23,25.496 C77.830003,25.892002 78.2559987,26.4259966 78.508,27.098 L78.508,25.028 L81.028,25.028 L81.028,35 L78.508,35 L78.508,32.912 C78.2559987,33.5840034 77.830003,34.120998 77.23,34.523 C76.629997,34.925002 75.9100042,35.126 75.07,35.126 C74.2299958,35.126 73.4740034,34.922002 72.802,34.514 C72.1299966,34.105998 71.6050019,33.5150039 71.227,32.741 C70.8489981,31.9669961 70.66,31.0580052 70.66,30.014 C70.66,28.9699948 70.8489981,28.0610039 71.227,27.287 C71.6050019,26.5129961 72.1299966,25.922002 72.802,25.514 C73.4740034,25.105998 74.2299958,24.902 75.07,24.902 Z M75.862,27.116 C75.069996,27.116 74.4340024,27.3739974 73.954,27.89 C73.4739976,28.4060026 73.234,29.1139955 73.234,30.014 C73.234,30.9140045 73.4739976,31.6189974 73.954,32.129 C74.4340024,32.6390026 75.069996,32.894 75.862,32.894 C76.6300038,32.894 77.2629975,32.6330026 77.761,32.111 C78.2590025,31.5889974 78.508,30.8900044 78.508,30.014 C78.508,29.1259956 78.2590025,28.4210026 77.761,27.899 C77.2629975,27.3769974 76.6300038,27.116 75.862,27.116 Z M84.87,21.68 L84.87,35 L82.332,35 L82.332,21.68 L84.87,21.68 Z M91.502,32.822 L91.502,35 L90.17,35 C89.0539944,35 88.199003,34.7300027 87.605,34.19 C87.010997,33.6499973 86.714,32.7500063 86.714,31.49 L86.714,27.17 L85.328,27.17 L85.328,25.028 L86.714,25.028 L86.714,22.562 L89.252,22.562 L89.252,25.028 L91.484,25.028 L91.484,27.17 L89.252,27.17 L89.252,31.526 C89.252,32.0060024 89.347999,32.341999 89.54,32.534 C89.732001,32.726001 90.0559977,32.822 90.512,32.822 L91.502,32.822 Z M98.26,24.884 C99.4120058,24.884 100.329997,25.2619962 101.014,26.018 C101.698003,26.7740038 102.04,27.8359932 102.04,29.204 L102.04,35 L99.52,35 L99.52,29.492 C99.52,28.699996 99.316002,28.0850022 98.908,27.647 C98.499998,27.2089978 97.9420035,26.99 97.234,26.99 C96.5139964,26.99 95.9380022,27.2239977 95.506,27.692 C95.0739978,28.1600023 94.858,28.8319956 94.858,29.708 L94.858,35 L92.32,35 L92.32,21.68 L94.858,21.68 L94.858,27.026 C95.1220013,26.3539966 95.556997,25.8290019 96.163,25.451 C96.769003,25.0729981 97.467996,24.884 98.26,24.884 Z" id="Apprentice-Health" fill="#313D4D"></path>
                </g>
            </g>
        </g>
    </g>
</svg>